/* XPM */
static char *d4ulvqj_617874e0_9150_4646_9d54_5999db07377e_1__removebg_preview_resized[] = {
/* columns rows colors chars-per-pixel */
"64 64 215 2 ",
"   c #371F26",
".  c #231B2E",
"X  c #31222E",
"o  c #3B252D",
"O  c #382027",
"+  c #2B293B",
"@  c #342632",
"#  c #3C2730",
"$  c #3D2831",
"%  c #322A39",
"&  c #43252B",
"*  c #46282E",
"=  c #422A32",
"-  c #4A2D32",
";  c #523336",
":  c #593537",
">  c #553639",
",  c #573939",
"<  c #5B3A3A",
"1  c #5A3738",
"2  c #4C3136",
"3  c #643E3E",
"4  c #66423E",
"5  c #68443F",
"6  c #1E2942",
"7  c #202941",
"8  c #323D51",
"9  c #5E3E41",
"0  c #633E41",
"q  c #3D587F",
"w  c #3E4B5A",
"e  c #5E4040",
"r  c #6C4543",
"t  c #6B4745",
"y  c #734C46",
"u  c #754D4B",
"i  c #794D4D",
"p  c #72454A",
"a  c #7C544C",
"s  c #735048",
"d  c #7A4C54",
"f  c #765253",
"g  c #7D5554",
"h  c #7E5A54",
"j  c #7D5A5D",
"k  c #775957",
"l  c #78625D",
"z  c #4E597B",
"x  c #415B6C",
"c  c #7E5D68",
"v  c #6D5E62",
"b  c #516A77",
"n  c #576C7B",
"m  c #5C747D",
"M  c #4E6474",
"N  c #766A63",
"B  c #75746A",
"V  c #74756A",
"C  c #797A73",
"Z  c #6F6D7C",
"A  c #80534E",
"S  c #835553",
"D  c #845C55",
"F  c #845D5A",
"G  c #8A5D5C",
"H  c #866059",
"J  c #8C635D",
"K  c #8E685F",
"L  c #90645E",
"P  c #86476C",
"I  c #87496B",
"U  c #88486E",
"Y  c #885768",
"T  c #8D4877",
"R  c #825872",
"E  c #8C6363",
"W  c #8E6A63",
"Q  c #866768",
"!  c #916666",
"~  c #946C66",
"^  c #996C65",
"/  c #956C6C",
"(  c #986C6D",
")  c #92676A",
"_  c #88786D",
"`  c #94736A",
"'  c #9A736B",
"]  c #947A6F",
"[  c #977067",
"{  c #816975",
"}  c #976F70",
"|  c #986F70",
" . c #897E73",
".. c #977070",
"X. c #9B7371",
"o. c #917E71",
"O. c #2B9976",
"+. c #10A168",
"@. c #0DA268",
"#. c #169E6D",
"$. c #568E70",
"%. c #738A79",
"&. c #778577",
"*. c #73917F",
"=. c #688073",
"-. c #40AD7E",
";. c #87877A",
":. c #3F5B82",
">. c #415D85",
",. c #435F88",
"<. c #46618C",
"1. c #49648F",
"2. c #597887",
"3. c #4A6591",
"4. c #4D6995",
"5. c #4F6C99",
"6. c #516E9C",
"7. c #52709F",
"8. c #647982",
"9. c #667983",
"0. c #73768B",
"q. c #5574A4",
"w. c #5675A9",
"e. c #5877A9",
"r. c #5979AA",
"t. c #5877A7",
"y. c #597CB2",
"u. c #975897",
"i. c #915588",
"p. c #876F83",
"a. c #927BAD",
"s. c #568494",
"d. c #5B8593",
"f. c #5D8997",
"g. c #5F8B98",
"h. c #7C8A8B",
"j. c #739583",
"k. c #749D8A",
"l. c #799887",
"z. c #658D9A",
"x. c #6B939E",
"c. c #67949B",
"v. c #75969A",
"b. c #6F9984",
"n. c #44B385",
"m. c #4AAE86",
"M. c #6FA58C",
"N. c #74A38D",
"B. c #78A88E",
"V. c #74AD94",
"C. c #77A79A",
"Z. c #6AB99B",
"A. c #73B49B",
"S. c #71BD9E",
"D. c #75B299",
"F. c #5E81AC",
"G. c #5F95A5",
"H. c #5C80B2",
"J. c #6185AC",
"K. c #668CAE",
"L. c #688FAE",
"P. c #6295A5",
"I. c #6499A7",
"U. c #6A92AF",
"Y. c #6B9CAC",
"T. c #6999A6",
"R. c #7297A0",
"E. c #7499A2",
"W. c #729BAF",
"Q. c #668EB2",
"!. c #688FB2",
"~. c #6A93B2",
"^. c #6D9AB1",
"/. c #739DB1",
"(. c #6AA2AE",
"). c #6FA0A2",
"_. c #7CAEA3",
"`. c #72ACAD",
"'. c #7FABAC",
"]. c #73BEA1",
"[. c #7CB5AD",
"{. c #78B5A5",
"}. c #6AA2B1",
"|. c #6DA8B5",
" X c #73A5B1",
".X c #79A6B3",
"XX c #7AA9B3",
"oX c #75A4BA",
"OX c #78ABB9",
"+X c #7AB5B1",
"@X c #70C09F",
"#X c #69C09D",
"$X c #6FC6A3",
"%X c #71C2A2",
"&X c #72C8A7",
"*X c #838897",
"=X c #8E9293",
"-X c #8D89AC",
";X c #8695A7",
":X c #8697A9",
">X c #9185AF",
",X c #82B3A5",
"<X c #85B2AC",
"1X c #98B7AC",
"2X c #9AB3B6",
"3X c #91A7A7",
"4X c #A0B5B6",
"5X c #98CBBB",
"6X c #91CCBA",
"7X c #A0C7BF",
"8X c #8BB2C6",
"9X c #97C9C0",
"0X c #9CD4C3",
"qX c #A3D5C5",
"wX c #A2C9C2",
/* pixels */
"+.+.@.O.a.T y d u.:X;X;X;X-Xu.u u T >X:X;X:X-Xi.p u u f s I a.:X;X-X;Xa.T s i u.:X;X:X;X:Xu.p f u u u u.-X:X'.:Xi.s u i.:X].$XS.",
"+.#.+.2.U Y K J I P U U I I Y W W Y I I I I T d J ) ) E ~ Y I I P I I I Y K W I I I I P I I ) E W ) E I P R R R Q W W Q p.+X$X].",
"O.n Z 0.h K ' ' H h h h h h F / ( E h h h h h h ) ) ) ) ( E h h h h D g E ^ ~ D h h h h h F ( / ) / ( F h h h g J ' ' F &.C.k.*X",
"O.j S ^ ' [ [ ( ` ......| | ) S S E ..| ..( ....G d p p a Y X...( ` | | G S F / ....X...' ) S p p p S / | | | | } / [ ` ' [ f i.",
"Z.c A ' ^ X./ a G L K J D u r r t t y a a a a p ; $ o o & > p a a g a p r r r r a a a A i 0 = o o o = 0 i D X.) S g ..' ^ ' s i.",
"].k.C F ( ! a r 0 9 < 9 < ; ; ; ; ; ; : , , > ; &         & ; > < , : ; ; ; ; ; ; < , , > - o         - : < t 9 r y D ~ ~ J C *X",
"].&XN.u ..J r < & o o o o # @ @ @ @ @ # # # # @ @ X X @ @ X @ # o o # @ @ @ @ @ o o o o o @ X X X X   % @ o o o = 3 i ! E f _.&X",
"].$XN.f ( ! p # = $ = $ = + 6 7 6 6 + = $ * $ 7 6 6 6 6 6 6 7 $ = $ $ 7 6 6 7 6 % = $ = + 6 6 + 7 7 6 6 + = = = $ = S / E f D.%X",
"S.$XN.k ( ~ u $ . M E.R.E.z.s.s.s.s.f.f.d.d.d.s.2.z.T.R.T.z.s.d.C._._._._._._.f.s.f.d.x.E.P.d.s.s.s.s.x.E.x.W.8 . 2 D / E f A.%X",
"%X$XV.k / J t $ x P.OXQ.Q.^. X X XY.P.I.G.Y. X}.|./.!.!.!.^. X X X`.`.`.`.`.`. X X}. X^.!.^. X X X X X~.!.~.OX2.w - a ~ E f S.%X",
"S.%XV.l ( J r $ g..X/.e.w.K. X/./.Y.I.I.I.Y. X/. XQ.w.e.w.J. X/.Y.P.I.P.P.P.P././. X/.e.e.r./././././.J.w.e. X|.n & s ~ E f S.@X",
"%X&XD.k / ~ s o d.}./.e.e.e.e.e.w.~.XX.XXXU.e.e.e.e.r.r.e.e.e.e.^.XX.XXXXXXX.XF.e.e.e.e.r.r.e.e.t.r.r.r.r.r. X^.b * H ( E k S.@X",
"5XqX1Xh | K r $ x.~.r.r.e.r.r.r.e.F.F.F.F.r.e.r.r.r.r.e.r.r.r.r.r.J.J.r.J.r.J.e.e.e.r.r.e.r.r.r.r.r.r.r.r.r.r./.m & s ~ E N #X@X",
"qX3X;.W ..F < o E.Q.e.r.e.r.r.e.r.r.e.e.e.r.r.r.e.r.r.r.e.r.e.r.e.e.e.e.e.e.e.e.r.r.r.e.r.r.r.r.r.r.r.r.r.r.w.8Xh.& t E ! C %X@X",
"2XQ S ' X.g : $ E.~.e.e.e.r.r.r.r.r.r.r.r.e.r.r.r.r.e.r.r.r.r.r.e.e.r.r.r.r.r.r.e.r.r.r.r.r.e.r.r.r.r.r.r.r.w.8Xh.  3 E ! &.$X%X",
"f E ' ^ ..S : $ R.!.e.r.r.r.r.e.e.r.e.r.r.e.e.r.e.r.r.r.r.r.e.e.e.e.r.r.r.r.e.r.r.r.e.r.e.r.r.e.t.r.r.e.r.r.w.8Xh.  4 E ' ` k.%X",
"u L ' [ X.S , $ v.Q.w.r.e.r.r.r.r.r.r.e.r.r.r.r.r.q.<.4.3.7.r.r.r.r.r.e.e.r.r.r.e.e.r.e.r.r.r.r.r.r.e.r.e.r.w.oX9.& 3 Y ' [ *.@X",
"C Q J ' X.g : = z.^.K.e.r.r.r.r.6.q.r.e.q.5.7.6.7.3.:.<.1.4.6.6.7.q.r.e.r.r.r.r.r.e.6.6.7.6.7.4.q.r.r.r.e.r.L. Xm & 3 E / l.$X@X",
"[.Z S [ X.h , & d. X Xe.e.r.e.r.4.6.r.t.3.<.1.1.1.,.>.1.1.1.<.1.<.4.t.t.t.t.r.r.e.q.1.<.1.1.<.q 4.r.t.r.e.J..X(.b & 0 E J b.&X@X",
"]._.p.g | F r $ d. X/.e.r.r.r.r.r.r.e.3.3.1.1.3.>.:.>.1.1.1.1.1.1.1.1.3.1.4.r.r.6.1.3.1.3.<.>.:.5.r.r.r.e.r. X}.b & i ~ ! N.&X@X",
"].&Xh.i | ! y # d.(./.e.r.r.q.3.t.r.t.1.1.1.1.1.>.,.1.1.1.1.1.1.1.1.1.1.1.5.r.r.6.<.1.1.1.<.>.<.3.5.e.r.e.r..X}.b * D ( G b.@X@X",
"].%Xk.f } ) s # d. X Xe.r.r.e.5.t.r.q.1.1.3.1.3.>.,.3.1.1.3.1.1.1.1.1.1.4.7.t.r.5.<.1.1.1.<.>.<.<.4.r.r.r.F. X}.b * H ` Y N.&X@X",
"@X%Xk.k ( ~ y # f. X~.e.r.r.r.r.e.r.t.1.1.1.1.1.>.,.3.1.1.1.1.1.1.1.3.1.q.r.e.r.6.1.1.1.1.<.>.<.3.4.r.r.e.r./.}.n & S [ L b.&X@X",
"%X%XV.k } H 5 # R.Q.e.r.r.r.r.e.e.e.t.1.1.3.<.>.:.,.3.1.1.1.1.1.1.1.1.<.7.r.e.e.5.1.1.3.,.>.:.1.<.4.r.r.r.r.t.oX8.& y ~ J N.&X@X",
"S.%XD.k | S < $ E.U.w.e.r.r.r.r.r.r.e.3.,.>.>.:.<.1.1.1.1.1.1.3.1.1.1.q.t.e.r.r.6.<.,.>.>.>.1.1.1.4.e.e.r.r.e.OX8.& 4 E / l.A.@X",
"%XV.b.Q | h , $ J.K.e.r.r.r.r.r.q.5.5.<.>.:.<.>.<.3.1.1.1.1.1.1.1.1.3.e.r.t.7.7.1.,.>.>.,.<.3.1.1.4.r.e.r.e.e.~.n & 4 Y ' ^ ;.@X",
"%XC h ' X.S : $ 6.r.r.e.r.r.q.r.<.q :.>.>.<.3.3.1.1.1.3.3.1.1.1.1.1.1.q.t.6.q >.>.>.>.1.1.1.1.1.1.3.e.e.r.e.e.y.z & 4 E ' [ ^ B.",
"&X&.N ] ..S : $ 6.r.t.r.r.4.:.:.:.<.1.1.1.1.1.1.1.1.1.1.1.1.1.1.3.1.>.>.:.:.>.1.1.1.1.1.1.1.1.1.1.3.3.e.r.r.e.H.z & 3 E ' ^ ' V.",
"@XD.D._ ( g : = 6.r.r.r.r.q.7.7.<.<.3.1.1.1.1.1.1.1.1.1.1.3.1.,.<.:.:.7.7.5.<.<.3.1.1.3.1.1.1.1.1.1.1.q.r.r.r.y.z & 3 E X.^ *.&X",
"@X%X%XB / F < $ t.J.t.r.r.r.r.r.5.<.1.3.1.1.1.1.1.3.1.1.3.<.<.:.<.3.3.r.r.t.1.1.1.1.1.1.1.1.1.1.1.3.1.t.r.e.e.Q.n & r E ' l.@X@X",
"@X@X%XB / K 4 $ ;XU.t.r.r.r.e.t.4.<.3.1.1.1.3.1.1.1.1.1.3.<.:.:.7.r.r.e.r.q.1.1.1.1.1.1.1.1.1.1.1.1.1.q.r.e.q.oX8.& s ! ! *.&XS.",
"].@XS.B ) ! y o v.U.e.r.r.r.q.3.1.1.1.1.1.1.1.1.1.1.3.1.,.:.>.q.r.r.e.r.5.1.1.1.1.1.1.3.1.1.1.1.1.<.>.7.r.e.e.oX8.& D / J *.&X@X",
"].#XS.N / ~ u # E.!.w.r.e.r.q.1.3.1.1.1.1.1.3.1.1.1.<.3.<.<.q.r.r.r.r.5.3.<.3.1.1.1.1.1.1.3.1.1.1.3.7.t.r.r.t.oX9.* H ' G *.%X%X",
"S.$XD.l / ~ t $ x.^.r.r.r.r.q.1.1.1.1.1.3.3.<.3.1.3.5.<.q 4.r.e.r.r.q.3.<.3.1.1.1.3.1.1.1.1.<.5.1.1.r.r.e.e.J. X2.& D ! E *.%XS.",
"@X].B.k ( F 4 $ d. X Xe.r.r.t.1.1.1.1.1.1.1.3.3.1.7.t.>.:.3.e.t.r.q.<.3.1.1.1.1.1.1.1.1.1.1.3.t.4.<.r.r.e.F..X}.b & y ! E j.%X%X",
"<XC j [ X.S < $ d. X/.e.r.r.e.e.4.1.3.1.1.1.<.<.q.6.:.q 7.r.e.4.3.3.<.<.1.1.1.3.1.1.3.1.<.4.e.<.4.e.r.r.e.r..X}.b & 3 ! E b.%XS.",
"c E E ( X.S < $ d. X/.t.r.e.r.r.4.1.1.1.<.4.7.7.e.7.:.6.6.6.4.1.1.1.1.1.1.1.1.1.<.<.<.7.7.7.r.>.4.r.r.r.r.r. X}.b & 3 K / l.%XS.",
"p E ' ~ X.g : $ d. X/.t.r.r.r.r.3.1.1.5.4.q.r.r.t.3.>.t.4.1.1.1.1.1.1.1.1.3.1.1.4.5.5.e.F.r.q.<.4.H.r.r.e.F.XX}.b & 3 Y ' ^ &.%X",
"i K ' [ X.g , * d. X/.e.e.r.e.e.5.<.3.r.r.r.r.r.3.<.:.<.1.1.1.1.1.1.1.1.1.1.3.1.q.r.r.r.r.q.<.>.5.r.r.r.e.r. X}.b & 3 G ' ;.N.@X",
"*XQ A ' X.g : # d. X Xe.r.r.r.r.3.6.r.r.6.3.3.3.3.<.>.3.3.1.1.1.1.1.1.1.1.1.<.q.r.q.3.4.3.3.3.:.5.r.r.r.r.F. XOXm & 3 ! ! j.$X@X",
"{.h.{ D X.F 3 # z.^.J.e.r.r.t.6.7.t.r.5.1.1.1.1.<.>.>.1.1.1.1.3.3.1.1.1.1.3.7.r.q.4.1.1.<.<.<.q 1.6.r.r.e.r.J.OX8.& r W E *.%X].",
"%X+Xh.a ` E 5 o E.!.w.e.r.r.q.<.t.r.t.<.<.3.1.1.>.>.>.1.1.1.1.1.1.1.1.3.1.5.r.r.6.<.1.1.3.<.:.<.<.4.r.r.r.r.q.oX8.& a ~ E %.%XS.",
"#X%X*Xa ( ~ s $ R.!.e.r.r.r.w.1.q.r.t.3.1.1.1.3.,.,.1.1.1.1.1.1.1.1.1.1.1.5.r.r.5.1.1.1.3.<.<.<.1.4.r.r.r.r.e.oXm & D ( E V %X@X",
"%X&X*Xs / / s o f. X^.e.r.r.e.t.t.r.t.1.1.1.1.3.>.,.3.1.1.1.1.1.3.1.1.1.7.r.r.r.4.1.1.1.3.<.q <.1.3.r.r.r.r./.}.n - D ' E N S.%X",
"5XwX=Xf ..W t # d.`./.e.r.r.r.r.r.r.t.3.1.3.1.<.>.,.1.1.1.1.1.1.1.1.1.<.7.r.r.r.6.1.1.1.1.<.q <.4.q.e.e.e.r. X}.b * a ) E l S.%X",
"qXqX3Xi ..F 4 # d.}./.r.r.r.r.r.r.r.t.<.<.<.<.:.>.<.1.1.1.1.1.1.1.3.5.4.7.r.r.r.6.<.<.<.<.:.<.<.7.r.e.r.r.F..X}.b & y E ) B S.@X",
"7XwX=Xd | D : # d.`./.w.r.r.r.r.r.r.q.3.<.:.:.:.<.1.1.1.3.1.1.1.1.5.r.r.r.r.r.r.4.<.:.:.q <.<.<.7.r.r.r.e.F..X}.b & 3 J ' ` l.].",
"8X..J ! ..g > * x.~.r.r.r.e.r.r.r.r.q.:.q <.t.q.t.6.<.1.<.4.t.t.q.t.e.e.r.r.e.r.t.t.q.1.<.1.q.q.e.r.e.r.e.r.r..Xm & 3 Q X.^ ] &.",
"<XY a ' X.g , $ E.Q.w.e.r.r.r.r.r.r.q.5.4.q.r.r.r.w.5.q.q.q.e.r.r.r.e.r.r.e.r.r.r.r.r.q.6.t.r.r.r.r.r.r.r.r.w.oX8.& 3 J ' [ ' F ",
"[.{ j [ X.g 1 = R.!.e.r.e.r.r.e.r.r.r.r.r.r.r.e.r.r.r.r.r.r.e.e.r.r.r.r.r.r.r.e.r.e.e.r.r.r.r.e.e.r.r.e.r.r.w.oXm & 3 K ..^ ] C ",
"]._.h.i ..S : $ R.!.e.r.r.r.r.r.r.r.r.r.r.r.r.r.r.r.r.r.r.e.r.e.r.r.r.r.r.r.e.r.r.r.e.r.e.e.r.r.r.r.r.r.e.r.w.oX9.& 3 Y ' ] *.A.",
"].$Xk.i ` F 3 $ E.!.w.e.r.e.r.r.r.e.e.e.w.r.r.r.r.r.r.r.e.r.r.r.e.e.e.e.e.r.r.r.r.r.r.r.r.r.r.r.r.r.r.e.e.e.w.oX9.& r ! ! &.%XS.",
"].%Xk.d ( E t $ z.^.J.e.r.e.r.e.e.J.U.L.~.J.e.e.e.e.r.e.r.r.e.e.F.~.L.L.L.L.L.r.e.e.e.r.r.r.e.r.e.e.e.e.e.r.K.|.m & a / E &.@X@X",
"S.&Xl.i ` ~ s # d.XX/.e.r.r.F.r.r.U.XX.XXX^.r.r.r.r.e.e.r.r.J.r.Y.XXXX X.XXX XF.r.F.F.r.r.r.r.r.r.F.F.e.e.F.XX}.b * H [ Y V S.@X",
"@X%Xl.d | ~ s $ d. X/.w.w.!.XX.XXXY.P.G.G.T.XX XXXU.q.r.e.Q..X.XI.G.P.P.P.G.G..X.XXX Xr.w.F.XX.XXX.XXXF.e.r..X}.b & H / E N S.@X",
"@X&Xh.f | ! u $ d.I.T././.Y.I.I.I.G.P.[.<X`.P.Y.Y.Y.^././.Y.I.P.`.[.[.[.[.[.+XT.I.T.T./././.I.I.T.P.P.W././.I.I.b - H ( E B S.@X",
"S.v.{ F ` E t o x.(.I.`.`.Y.I.|.`.(.+X6X6X+XG.I.G.Y..X}. X(.G.G.+X5X9X9X9X6X6XI.G.P.I.}. X}.P.G.(.`.`.`. X XP.|.m & g ~ ! &.%XS.",
"_.Q A ' ..H t * B.).s.g.f.f.c.,X,X,X_._.{.x.f.g.g.g.f.f.f.g.g.f.C.<X2X2X2X2X_.g.f.g.g.f.f.g.g.f.C.<X_.c.d.f.f.[.=.* a W X.] j.D.",
"_.R A ' ' ' E 3 = # # # # # # # o # $ $ # # # # # # # # # # # # # o $ $ # # # # $ # # $ # $ # # @ # # # # # # o 2 r | [ ^ ] %.D.",
"D.v.C S ( ' ! J Y j j j j j j j j j j h F j j j j j j j j j j j c j j j j j j j j j j j j j j j j j j j j j j j F J / ' W l.%X].",
"S.&XD.C J W [ ' ~ W ~ K E / X.X.' X.' ! ! ! ! ~ W / ' X./ E ! E ! E ^ ' ..X.X.X.~ ! ~ E ~ ! ! ' X.' ~ E ! / ~ E ^ [ ^ W V.Z.@X@X",
"%XS.@X&XC W ] ~ k f k h N o.[ ^ [ ` ;.B B V N N B &.] o.&.&.&.&.%.%.*.;.[ ~ ^ ] &.N f f f f a L [ ! f f f f k N =.;._ $.Z.%X@X@X",
"S.%XS.S.%X&.i f N.S.@X,X7X5X .' ' ;.j.S.S.S.@X@X@XA.k.k.S.].].%X%X%XS.B.;.;.o.&.C._.B.,X2X2X7X_ y c C.C.D.C.D.S.-.$.$.n.Z.S.%XS.",
"%XS.%X@X].N.h.l.S.%X@X@X5X7X7X=X;.V.A.@X@X#X@X@X@X@XA.A.S.%X].@XS.%X@XS.B.=Xl.D.A.%X%X&X5XqX7X3X*Xl.].&X%X@X@X#Xm.-.-.n.#X%XS.%X"
};
