/* XPM */
static char *_6514_1__resized[] = {
/* columns rows colors chars-per-pixel */
"64 64 203 2 ",
"   c #010100",
".  c #0A0201",
"X  c #040C03",
"o  c #0B0C04",
"O  c #120603",
"+  c #140A04",
"@  c #190D05",
"#  c #1B0603",
"$  c #021303",
"%  c #0C1106",
"&  c #001B00",
"*  c #031D0A",
"=  c #0B1D0A",
"-  c #091708",
";  c #121307",
":  c #1B1207",
">  c #230D06",
",  c #270F07",
"<  c #241107",
"1  c #281307",
"2  c #241608",
"3  c #2B1309",
"4  c #2B1909",
"5  c #271809",
"6  c #331C0A",
"7  c #3B1D0B",
"8  c #351709",
"9  c #012401",
"0  c #002B00",
"q  c #0B260C",
"w  c #0D2D0E",
"e  c #06230B",
"r  c #102F0F",
"t  c #003400",
"y  c #003A00",
"u  c #0B3C0B",
"i  c #0E3210",
"p  c #113311",
"a  c #133B14",
"s  c #0F2F10",
"d  c #3D230D",
"f  c #36200C",
"g  c #43250E",
"h  c #4A260E",
"j  c #43280F",
"k  c #4A280F",
"l  c #472B10",
"z  c #4D2D11",
"x  c #4E2610",
"c  c #522A10",
"v  c #592F12",
"b  c #4F3012",
"n  c #533212",
"m  c #5B3514",
"M  c #5E3815",
"N  c #653714",
"B  c #643C16",
"V  c #6B3D17",
"C  c #713E17",
"Z  c #004200",
"A  c #004B00",
"S  c #0A440A",
"D  c #015201",
"F  c #005A00",
"G  c #0A540B",
"H  c #154416",
"J  c #144B18",
"K  c #194C1A",
"L  c #184817",
"P  c #16541B",
"I  c #1B541C",
"U  c #1D5A1D",
"Y  c #125916",
"T  c #205A1F",
"R  c #006300",
"E  c #006D00",
"W  c #096409",
"Q  c #007300",
"!  c #027C02",
"~  c #0B7E0B",
"^  c #1B601F",
"/  c #1C681C",
"(  c #216E1F",
")  c #1F5F20",
"_  c #1D6320",
"`  c #216421",
"'  c #236922",
"]  c #297626",
"[  c #6C4118",
"{  c #694017",
"}  c #724419",
"|  c #78451A",
" . c #77481A",
".. c #7B4A1B",
"X. c #824A1B",
"o. c #8A4E1D",
"O. c #86511E",
"+. c #8A531F",
"@. c #91531F",
"#. c #8F5620",
"$. c #915720",
"%. c #945921",
"&. c #9B5D22",
"*. c #A35F23",
"=. c #9F6023",
"-. c #A36224",
";. c #AB6525",
":. c #AD6826",
">. c #B16B27",
",. c #B66E28",
"<. c #B86F29",
"1. c #BC722A",
"2. c #C3752B",
"3. c #CB7A2D",
"4. c #C7782C",
"5. c #D17E2F",
"6. c #018401",
"7. c #008A00",
"8. c #098709",
"9. c #009500",
"0. c #009C00",
"q. c #099C09",
"w. c #1A861A",
"e. c #1E9C1C",
"r. c #00A400",
"t. c #02AA02",
"y. c #0AAF0A",
"u. c #0CA20B",
"i. c #00B100",
"p. c #0CB20C",
"a. c #05BA05",
"s. c #1CA81A",
"d. c #13B512",
"f. c #16B915",
"g. c #18B917",
"h. c #1CBC1B",
"j. c #1DB61B",
"k. c #20BE1F",
"l. c #2B872C",
"z. c #2C8C2E",
"x. c #268C24",
"c. c #318D2F",
"v. c #30862E",
"b. c #2B972B",
"n. c #319C2F",
"m. c #31912F",
"M. c #329531",
"N. c #349C33",
"B. c #318F30",
"V. c #31A82F",
"C. c #29BA27",
"Z. c #31BB2E",
"A. c #3BA737",
"S. c #3DB23A",
"D. c #37BE35",
"F. c #28A726",
"G. c #41BE3E",
"H. c #1DC21C",
"J. c #21C31F",
"K. c #25C323",
"L. c #28C526",
"P. c #2CC62A",
"I. c #2EC92C",
"U. c #25C823",
"Y. c #31CB2E",
"T. c #2ED02C",
"R. c #34CC32",
"E. c #39CF36",
"W. c #3AC437",
"Q. c #36D233",
"!. c #3DD33A",
"~. c #3EDA3B",
"^. c #39D236",
"/. c #42C13F",
"(. c #42CB3E",
"). c #42D53E",
"_. c #43DA3F",
"`. c #44C440",
"'. c #45C942",
"]. c #48CD44",
"[. c #44D641",
"{. c #49D446",
"}. c #46D942",
"|. c #4ADB46",
" X c #4DDC49",
".X c #50DF4C",
"XX c #4AE246",
"oX c #4EE24A",
"OX c #45E142",
"+X c #50E44C",
"@X c #51E94D",
"#X c #D5802F",
"$X c #D78230",
"%X c #DB8431",
"&X c #E08732",
"*X c #E48A33",
"=X c #EC8E34",
"-X c #EE9035",
";X c #F49336",
":X c #F99637",
">X c #FA9738",
",X c #FF9C3A",
"<X c #FFA13B",
/* pixels */
"r.r.t.H.T.~._.G.] a $                         X a ] A.{.@X@X@X X X X|. X X|. X X|. X X.X.X X X X X X X X X X|. X|. X X X X.X+X.X",
"r.r.p.f.I.!.(.A.] a $                         $ p ` N.`. X+X X X X X X X X X X X X X X X X X|. X X X X X X X X X X X X X X X X X",
"t.y.p.j.C.D.S.c.T p o . . + : < 2 5 2 : + .   X w I v.S./.{.{. X X X X X X X X|. X|.[.[.).).[.|.|.|. X X X X X X X X|.{.[.).).).",
"h.f.j.C.F.n.l.` H = X . < f z m M M m b d < O   * a ` l.N.G./.{.|. X X X X X X X|.[.).R.R.R.E.).{. X X X X X X X X|.[.!.E.R.P.P.",
"Y.I.Z.F.x.( I a e $   @ f B O.&.;.;.=.#.{ g :   X * i I ' M.S.'. XoXoX X X X X X|.~.R.L.k.k.P.E.}.|. X X X X X X X|.).E.L.k.j.f.",
"OX).W.N.] H q $     o 4 M %.2.%X*X*X%X2.&.B 6 o     X = a ] N./.|.oXoX X X X X X{.!.P.j.d.f.J.R.). X.X X X X X.X X|.!.P.h.d.p.t.",
"@X X`.N.` r X     + 5 z X.,.&X>X<X<X,X*X1.O.n 4 @ .   X q T c./. XoXoX X X X.X X|.!.P.h.d.f.K.Y.). XoX X X X X X X|.!.I.h.d.y.y.",
"@X X`.N.U w . O , g M O.:.5.;X,X<X<X,X;X$X>.+.B g 1 O . q I v./. X+X+X+X X.X.X X|.~.R.L.J.K.I.^.}.oX@XoX+XoX+X+X+X X).E.L.k.g.f.",
"@XoX`.M.U w o < h | *.1.5.=X:X,X,X,X,X:X=X%X2.-...c , O q P z.G.|.+X+X X X.X X X X}.).Q.Q.Q.!.}. XoX+X+XoXoXoX@X+XoX X).Q.Y.Y.P.",
"@X X`.M._ w ; 8 N &.3.&X;X;X:X>X>X,X,X:X;X;X*X3.*.V 7 ; q P z.G. XoXoX X X X X X X}.}.).).{.[.}.|. X X X X X X X X|.{.}.).).).).",
"@X X`.M.^ w ; 8 N *.4.&X-X;X>X,X,X,X,X>X;X-X*X3.*.C 7 ; q P B.G. XXX}._._._.}.}. X].].'.G.G.G.G.D./.D.G.G.G.G.G.G./.`.'.{.{. X X",
"@X X`.M._ w % 1 h C &.,.5.*X:X,X<X,X,X>X=X$X1.&.| c 3 ; q I B.G.}._.!.R.Y.Q.).OX X`.G.G.M.c.l.l.l.v.l.l.l.l.l.l.l.m.N.G.'. X+X@X",
"@X X`.M.` w o O < f M ..;.3.;X,X<X<X<X;X$X;.X.M g , O o q T B.G.).).Y.J.k.U.Q._.{./.N.] ' I K K J J J J J J J L L T ] M.G.{.+X@X",
"@X X`.M.` r X   . + 5 b X.,.*X>X<X<X,X*X<.#.n 4 + .   X w T M.G.).Q.U.f.d.h.I.!.(.G.v.T r = - - = = q = = = = - - q H ] A.`..X@X",
"@X X`.N.` r X   . + 5 l } =.2.%X%X*X$X4.-. .z 4 + .   o q T M.G.).Q.U.f.d.g.C.W.G.M.' a ;   . + : < 2 2 < : # . . X w P v.A.G.'.",
"@X X'.M.` r o O , g n {  .O.$.&.=.=.=.#.#. .B v d , O o q T B./._.).T.J.j.s.F.b.] ` H =   . # 8 h v N m m v 7 > O   $ p ` ] v.M.",
"@X|.`.M./ w % < c | @.@.+.[ M n b b n M { ..@.@.| c 3 % q I B./.}.OX~.R.C.F.x.' P a * X   O 8 N X.&.*.*.*.$.C g >   X * i H I I ",
"@X X`.M._ w ; 6 V *.2.<.@.{ f 2 : ; : f M +.,.2.;.C d @ q I z.G.|.@XXX}.W.V.] L q $     . 5 n +.<.%X=X=X%X4.*.V 6 +   X $ - = = ",
"@X X`.M._ w ; 6 V -.2.,.%.{ f 2 : @ 2 f { =.#X%X2.o.g : q P z./. X@X@XoX].N.' p %     O 2 l  .:.%X>X,X,X,X=X2.#.m 4 : o o       ",
"@X|.`.M._ w ; 3 c  .@.&.+. .B n b z n B +.1.*X-X3.o.k : q P z./. X@X@X+X].N._ w X O , d M ..;.3.-X,X<X<X,X>X%X<.#.V l 4 #       ",
"@X X`.M._ s o + 1 d n { ..+.=.=.-.&.&.-.1.%X-X-X4.o.h : q P B.G. X@X@XoX'.N._ w o > g C &.1.5.*X:X,X,X,X,X,X=X%X4.-.X.n 4 O     ",
"@X X/.N.` w X   . O 4 l  .=.1.%X%X%X%X%X=X;X>X-X2.X.g : q P z./.|.+X@XoX'.N._ i ; 3 N %.2.*X-X;X:X,X,X,X>X>X:X-X*X#X:. .g @     ",
"@X X`.N.` s o     @ 5 l } =.1.%X=X;X;X>X,X<X<X-X<.X.g : q P z.D. X@X@XoX'.N._ i ; 3 N @.2.%X;X;X:X>X,X,X,X>X:X;X*X#X:. .d @     ",
"@X X/.N.` s o O 5 d n {  .+.=.:.4.&X;X,X<X<X,X-X2.X.g ; q P z.`. X@X@XoX'.N._ p % > g V %.,.3.*X;X,X,X,X,X>X=X$X1.=...n 4 +     ",
"@X X/.M._ w % < x | @.%.O.[ { } @.2.*X,X<X<X,X-X1.X.g : q P z.G. X@X@XoX'.V.` p % o > 7 n  .-.4.-X,X<X<X<X;X%X>.+.M j 4 @ o     ",
"@X X/.M.^ w ; 7 V -.1.1.+.M d j [ -.%X:X,X<X,X-X2.X.g : q P z.`. XoX@X X'.N.` p o     O 2 z  .>.%X:X<X<X,X-X2.#.M 6 : o .       ",
"@X|./.M.^ w ; 7 V -.2.,.+.M d j { -.#X;X<X<X,X-X2.X.g : q P z.G. X@X@XoX].N.' p X   . O 2 j [ &.2.$X*X*X%X3.:...b 4 : o .       ",
"@XoX/.N._ w % 1 c  .$.%.O.[ { [ @.1.*X:X,X<X,X=X1.X.g ; q P z.G. X@X@XoX].N.` p % O , 7 n B } O.$.%.&.=.&.%.+. .{ b d 4 ; .     ",
"@X X`.N.` w o O 1 d n { ..+.=.:.4.%X-X:X<X<X,X=X2.X.g : q P z.W. X@X@XoX`.N._ i % 2 h C #.%.+.} B n b b n m { ..+.#. .n 6 o     ",
"@X X/.N.` r X . . O 4 l [ =.2.%X-X;X:X>X,X,X,X=X<.X.g : q P z.G.|.@X@XoX].N._ i % 6 B &.1.1.&.{ d 2 @ ; : 6 n +.>.2.>...j :     ",
"@X X`.N.` r X   . O 3 j } =.2.%X=X;X:X>X,X,X,X-X2.| g : q P z./. XoX@XoX'.N._ i ; 6 N &.1.1.=.{ d 2 : @ : f M &.3.*X4.#.n @     ",
"@X|.`.M.` w o O 1 g n { ..+.=.:.2.#X-X:X,X<X,X=X2.X.g # q P z./. X@X@XoX'.N._ i % < k } $.%.+. .B m n z b B O.1.%X-X5.$.n :     ",
"@X|.`.n._ w % < b  .#.=.#.[ { } #.1.*X>X,X<X,X=X1.X.g : q P z.G. X@X@XoX'.N._ i % o , 7 n B  .+.&.-.=.&.&.-.<.%X=X;X3.@.n :     ",
"@X|.`.M.U w ; 7 V =.1.,.#.M d j { -.$X;X<X<X,X-X2.X.g : q P z.G. X@X@XoX'.N.' a o   . O 2 j { &.1.#X%X%X%X%X*X;X:X-X4.+.b :     ",
"@X X`.M._ w ; 7 V -.1.,.#.n d d { -.$X;X,X<X,X-X2.X.g ; q P z.G.|.@X@X X'.V.` a X   . O 2 j { &.1.%X-X-X;X:X,X,X,X;X2.O.z @     ",
"@X X`.M._ w ; 3 c } %.=...[ { } $.1.*X>X,X<X,X=X<.X.l ; q P z.G. X@X@XoX'.N.` w % O , 7 n B  .O.&.:.4.%X;X,X<X<X,X;X4.O.z :     ",
"@X X`.N.` w o O < g n V  .#.=.:.4.%X-X:X,X<X,X=X2.X.7 @ q P z.G. X@X@XoX'.N.` w % 2 h } #.=.O.} B [ #.<.%X,X<X<X,X-X4.+.z :     ",
"@X|.G.N.` w X   . + 5 l [ =.1.%X=X;X;X>X,X,X,X=X2.X.g : q P z.`. X@X@XoX'.N._ i ; 4 N &.1.<.$.{ d j M =.#X;X<X<X,X;X4.O.z :     ",
"@X X`.N.` p o   . + 4 l } =.1.%X-X;X:X>X,X,X,X=X2.X.g : q P z.G. XoX@XoX].N._ i % 6 B =.1.<.$.M d j { =.#X;X<X<X<X;X4.O.z @     ",
"@X X'.N.` w o O < d n V  .#.=.:.2.%X-X>X,X<X,X;X2.o.g : q P z.G. X@X@X X'.N._ i % < h [ $.%.+.} { [ +.,.%X;X,X<X,X-X4.O.z :     ",
"@X.X'.N._ w % < x | %.%.X.} { [ #.1.%X>X<X<X<X;X4.o.h : q P z.`. X@X@XoX'.N._ a o O < d n {  .+.%.;.2.5.=X:X,X<X,X;X4.O.z :     ",
"@X X`.M.^ w ; f C *.2.,.#.M d l { -.$X:X<X<X,X-X<.X.g @ q P z.G. X@X@X X`.A.' i X   . O 5 d { %.1.%X=X;X:X:X,X,X,X;X4.O.z :     ",
"|.).W.z.U w ; 6 V *.2.<.#.m d l [ -.%X;X,X;X=X3.-.C 7 ; q P z.G.|.@X@XoX'.N.' i o     O 2 j [ %.2.%X=X;X;X>X,X,X,X=X2.+.z @     ",
"Q.I.C.w.Y e O 3 c ..&.&.#.[ V [ &.1.*X:X-X%X1.&.| x , + q P z.G. X@X@XoX'.A._ i % O , d n {  .+.%.:.2.%X=X:X,X<X,X;X4.O.z :     ",
"J.h.s.~ G e X O 3 h M [ X.o.*.,.3.*X:X;X%X>.O.M g 1 O . q I c.G.|.@X@XoX'.N._ i % < h C @.%.+.[ B [ #.<.%X;X<X<X,X-X4.+.z :     ",
"p.y.q.! A 9 X . . + 2 l } &.2.&X-X:X:X*X1.O.n 4 O     o q U m./. X@X@X X'.N._ i ; 4 N &.1.1.%.M g d B =.5.;X,X<X,X;X4.O.z :     ",
"i.t.9.! F t & X     . 4 M $.2.5.*X*X%X2.&.N 4 o     X - u ` n./. X@X@XoX'.N._ i % 6 N &.2.1.$.B d d B =.$X;X,X<X,X;X4.O.z @     ",
"t.t.0.7.E D y 9 $     # 7 V @.*.:.:.*.@.V 7 @     X 9 y G w.V./.|.oX@XoX'.N._ i % 2 h } @.%.+.} { [ #.>.%X;X,X<X,X;X4.O.z :     ",
"t.r.r.9.7.Q R A 0 $   . > 7 c N B N v c 7 > .   X 9 Z R ~ e.Z.(. X@X@X.X].N.' i o O , d n {  .#.=.:.1.%X=X:X,X,X,X;X4.O.z :     ",
"t.r.r.r.0.0.7.E A 9 X . o # : 2 5 5 2 : @ .   X 9 y E 7.q.j.W.). X.X@X X].N.' p $   . O 2 d { %.1.$X-X-X:X:X,X,X,X;X4.+.z :     ",
"p.p.y.p.a.y.u.8.W S w = - - = = * = = = - = = q u W 8.u.f.U.Q.[. X.X@X X'.N.' p o     + 2 l { %.1.%X=X-X;X,X,X<X,X;X4.+.z @     ",
"g.h.h.h.H.H.j.s.w.( Y K J K J K J J J J K K K T / w.e.j.U.T.!.[. X.X@X X].N.' p % O < f b {  .+.=.:.1.$X=X:X,X<X,X;X3.+.b :     ",
"I.I.Y.Y.Y.I.Y.Z.V.n.m.l.l.l.z.l.l.l.l.z.l.l.v.M.n.V.Z.I.R.!._.|. X+X@X X].N._ i % < h } #.%.+.} { [ #.>.%X:X<X<X<X:X4.#.b :     ",
").).).).)._.).(.(././.G.G.G.G.G.G.G.S.`.G.G.G././.(.).).}.}.}. X XoX@X X].N._ i ; 4 N &.1.1.$.B d d B =.#X;X<X<X,X;X2.#.z :     ",
"|. X X X X X X X X|. X X X X X X X|. X|.|.}.).)._.}.|.|. X X X X XXX X[.W.b.^ i ; 8 N &.1.1.$.B d d { =.#X-X<X:X=X5.:.} d @     ",
" X.X X.XoX.X.X+XoX@X+XoXoXoXoXoX@X@XoXXX}.).Q.Q.Q.!.}. X X.X X X|.[.~.Q.C.w.Y e o , x | %.&.#.} { } #.1.%X:X-X%X1.-...n 4 O     ",
".X X X X.X X.X+X+X XoXoXoXoXoXoX+X+XoX|.~.Y.U.J.L.Y.~.|..X.X X X[.!.T.K.s.w.G 9 X O 3 g m } ..#.&.>.4.*X;X;X%X,.#.B j 3 @ .     ",
" X X X X X X X|. X X X X X X X X X.X X}.Q.L.f.d.g.L.E.}. X.X.X X[.Q.L.f.u.! D 0 X   . O 2 g { %.1.$X-X>X:X=X2.$.m 4 @ o .       ",
" X X|.|.}.[.).}.}.|.|. X X|. X X X.X|.}.E.L.g.d.g.L.E.{. X.X.X X~.R.H.p.0.! F y & $     . 2 n #.<.$X*X*X%X3.&.V f o     X & & & ",
" X X{.).!.R.Y.R.!.[.|. X X X X X X X X{.!.P.C.h.C.I.!.|. X.X.X|.[.Y.H.y.r.6.Q F Z 0 & X   + d B #.=.:.;.-.$.} l : . X & 9 y y Z ",
".X X}.!.Y.K.k.C.Y.!.|. X X X X X X X X|.[.!.R.Y.R.!.).|. X.X.X X).Y.k.p.r.9.7.! E D t &   o , f b M B B M n d 1 +   & 0 A F E Q ",
".X X[.R.K.f.d.g.L.E.{. X.X X X X X X X|.|.[.[.[.[.}.|.|. X.X X X).R.k.p.r.r.0.0.7.Q A 0 X   . + : 2 2 2 2 : @ O .   & Z R 6.9.0.",
".X X[.R.C.p.y.d.K.E.}. X X X X X X|. X X|. X X X X X X|. X.X X|.).Y.h.p.t.t.t.t.0.6.F t $                         X 9 A Q 9.r.i.",
".X X).R.k.y.t.y.k.R.}. X.X X X X X X X X X X X.X.X X X X X X.X|.).R.H.p.t.t.i.i.t.7.F t $                           0 D ! 0.i.a."
};
