/* XPM */
static char *index_removebg_preview_resized[] = {
/* columns rows colors chars-per-pixel */
"64 64 196 2 ",
"   c #010101",
".  c #050907",
"X  c #05030B",
"o  c #09050B",
"O  c #060A09",
"+  c #090C0B",
"@  c #090612",
"#  c #0E091A",
"$  c #050210",
"%  c #130917",
"&  c #0E1914",
"*  c #071710",
"=  c #151515",
"-  c #101B17",
";  c #121D19",
":  c #1A1A1A",
">  c #0D0E0E",
",  c #15241E",
"<  c #120B21",
"1  c #1E1335",
"2  c #1A0F31",
"3  c #1A2823",
"4  c #1F332B",
"5  c #2A2A2A",
"6  c #242A28",
"7  c #23362E",
"8  c #243E32",
"9  c #293E39",
"0  c #363635",
"q  c #045331",
"w  c #164C36",
"e  c #2A463B",
"r  c #2B493C",
"t  c #274136",
"y  c #2D1856",
"u  c #311E57",
"i  c #331F5A",
"p  c #2B1E46",
"a  c #323B47",
"s  c #392859",
"d  c #321A60",
"f  c #392264",
"g  c #3D2171",
"h  c #53195E",
"j  c #54145F",
"k  c #4E395F",
"l  c #571661",
"z  c #671D75",
"x  c #6D1E7A",
"c  c #701E7E",
"v  c #442878",
"b  c #6E217D",
"n  c #672777",
"m  c #355B4B",
"M  c #2E4B40",
"N  c #3B6453",
"B  c #3E6857",
"V  c #3F6A58",
"C  c #37604F",
"Z  c #4B4B4B",
"A  c #48474B",
"S  c #535352",
"D  c #59585A",
"F  c #4F5D57",
"G  c #416D5B",
"H  c #58635F",
"J  c #4A7A66",
"K  c #6A6A6A",
"L  c #656565",
"P  c #747474",
"I  c #797977",
"U  c #6B7671",
"Y  c #574D6C",
"T  c #0EA067",
"R  c #11A168",
"E  c #19A46E",
"W  c #1DAE75",
"Q  c #0DB775",
"!  c #3AA277",
"~  c #26A673",
"^  c #4D836D",
"/  c #4F8670",
"(  c #58957C",
")  c #538D75",
"_  c #67887C",
"`  c #50308E",
"'  c #752C9D",
"]  c #752986",
"[  c #5322AB",
"{  c #592BAB",
"}  c #5B36A1",
"|  c #5E32AE",
" . c #5D2EB2",
".. c #5727B0",
"X. c #5E32B3",
"o. c #5F3CB6",
"O. c #6239AD",
"+. c #712DB2",
"@. c #6133B4",
"#. c #653AB5",
"$. c #683CB7",
"%. c #663BBA",
"&. c #693CBA",
"*. c #6D34B5",
"=. c #7535B5",
"-. c #7934B5",
";. c #752EA3",
":. c #6B41B8",
">. c #7751B6",
",. c #7E5BBD",
"<. c #7954B8",
"1. c #7856B2",
"2. c #6D3EC2",
"3. c #7343CB",
"4. c #7644D0",
"5. c #872598",
"6. c #8B29A5",
"7. c #9727AD",
"8. c #9926AE",
"9. c #9227A6",
"0. c #8B2DB3",
"q. c #862EB2",
"w. c #9D26B0",
"e. c #912AB2",
"r. c #9B28B2",
"t. c #8030B4",
"y. c #8232B8",
"u. c #A125AF",
"i. c #A226B4",
"p. c #A529BB",
"a. c #A82ABE",
"s. c #815DBC",
"d. c #8455B9",
"f. c #8954BA",
"g. c #8261BC",
"h. c #8C6FBD",
"j. c #846DAA",
"k. c #B02EC8",
"l. c #8D6DC1",
"z. c #9273C4",
"x. c #987CC6",
"c. c #3DB280",
"v. c #43B485",
"b. c #4AB589",
"n. c #47B889",
"m. c #5FAB8D",
"M. c #64AC8F",
"N. c #66AD90",
"B. c #65BC99",
"V. c #6EBD9D",
"C. c #6AB597",
"Z. c #70BE9F",
"A. c #71BFA0",
"S. c #48C08D",
"D. c #70C09F",
"F. c #6FC09F",
"G. c #6EC7A3",
"H. c #71C0A0",
"J. c #78C3A5",
"K. c #75C8A7",
"L. c #77CAA8",
"P. c #79CDAB",
"I. c #7ED0AF",
"U. c #838383",
"Y. c #898989",
"T. c #969696",
"R. c #9C9C9C",
"E. c #A09FA0",
"W. c #A5A5A5",
"Q. c #ABABAB",
"!. c #AAACA5",
"~. c #B4B5B5",
"^. c #95CDB9",
"/. c #9BCFBD",
"(. c #81DBB7",
"). c #9DD0BE",
"_. c #A389CA",
"`. c #AE97D1",
"'. c #B099CD",
"]. c #B5A0D6",
"[. c #C9BADF",
"{. c #9ED9C4",
"}. c #A2D2C2",
"|. c #CBCBCB",
" X c #C4C6C5",
".X c #DDDDDD",
"XX c #D0D1D1",
"oX c #D3C6E3",
"OX c #D7CBE4",
"+X c #E5DDED",
"@X c #E6E5E6",
"#X c #F5F5F5",
"$X c #F9F6F9",
"%X c #FEFEFE",
"&X c #F6F5F8",
"*X c #CFF5E6",
/* pixels */
"R R T E B.H.H.H.H.H.H.F.H.D.H.H.H.H.H.H.H.A.H.H.H.H.H.D.A.H.H.H.H.A.H.H.A.A.H.H.H.H.A.Z.H.H.A.H.H.H.H.H.H.H.H.H.H.H.H.H.H.H.H.H.",
"R R R E B.H.H.H.H.H.H.F.H.H.D.H.H.H.H.F.H.H.H.H.H.H.H.H.H.H.H.A.H.H.A.H.H.H.H.A.D.H.H.H.H.H.H.H.Z.H.H.D.Z.H.H.F.H.Z.A.H.Z.H.H.F.",
"T T T E B.H.F.H.H.F.H.F.D.H.H.H.H.H.H.H.V.H.H.H.H.A.A.H.Z.A.H.H.Z.H.H.A.A.Z.H.H.D.H.H.H.D.H.D.D.H.Z.H.H.D.H.D.H.H.H.F.H.H.H.H.A.",
"E E E ~ B.H.H.H.F.F.V.F.F.H.H.D.H.H.V.A.H.H.H.V.Z.Z.V.V.Z.Z.V.V.V.Z.Z.V.Z.Z.Z.V.Z.H.D.H.H.H.H.H.H.H.H.D.H.H.H.H.H.H.H.A.H.Z.H.H.",
"B.B.B.B.H.H.H.F.n.n.v.n.V.H.H.H.A.H.H.H.H.H.H.L.L.L.P.P.P.L.P.P.P.P.L.P.L.P.P.P.K.H.H.D.H.H.H.H.H.H.H.H.Z.H.H.H.H.A.H.H.H.H.H.A.",
"H.H.H.H.H.H.H.B.v.c.! v.B.H.H.H.H.F.A.H.H.H.H.( ^ / ^ ^ / ^ ^ / / ^ / ^ ^ ^ ^ J ( H.D.H.D.H.D.H.H.D.H.D.H.H.Z.H.H.H.H.H.H.F.H.H.",
"H.F.F.D.H.D.H.F.v.c.c.v.V.H.H.H.H.H.H.H.H.V.P.7                                 , H.Z.H.H.H.H.H.H.H.H.H.H.H.H.H.Z.H.H.A.F.H.Z.H.",
"H.H.H.H.H.H.H.V.b.v.v.n.B.H.H.H.H.F.H.H.H.V.L.t                                 3 H.Z.Z.H.Z.Z.H.Z.H.D.H.D.H.D.H.H.J.H.J.H.H.H.H.",
"H.H.H.H.H.H.H.V.F.F.V.F.F.H.H.H.H.H.H.H.H.Z.P.8                                 , J.H.H.H.H.H.H.H.H.H.H.H.H.H.J.^././.^.J.D.H.D.",
"H.A.H.H.H.H.H.H.H.H.H.H.F.F.V.V.Z.V.Z.Z.Z.V.J.9   o o o X X X X X X X X o o o   3 H.V.A.V.Z.Z.Z.V.Z.H.H.H.H.Z.H./.}.}.).J.Z.H.H.",
"V.H.H.H.H.H.F.H.H.H.F.H.H.P.G + - - ; ; ; - & n 9.5.5.;.} } } } } } } } ;.5.5.6.] ; & - - ; ; ; > m L.Z.H.H.H.J./.}.}.).J.D.H.H.",
"H.J.H.J.H.D.H.H.F.H.H.F.B.G.m                 x p.w.i.0.%.&.%.%.&.&.%.%.q.i.w.a.5.                r P.V.Z.H.H.H.^.)././.J.D.H.D.",
")././.^.J.F.H.H.H.H.H.B.~ W w     .           x p.8.8.0.#.#.#.#.#.#.#.#.t.8.8.i.] o           .   r K.V.V.Z.A.H.J.J.J.J.H.D.H.H.",
"}.}.}.).J.F.H.F.H.H.P.G.W Q q                 x p.8.u.0.#.&.#.#.#.#.#.#.q.i.8.i.5.                r (.L.P.L.H.H.Z.D.Z.Z.D.H.H.D.",
"}.}.}./.J.V.H.H.H.H.G m w q a l h h h h h l h ' y.-.t.=.#.#.#.%.#.#.#.#.=.-.-.-.;.h h h h h h h j k N C N B V.H.H.H.H.H.H.H.H.A.",
"/./.)./.J.F.H.H.H.V.+       l k.p.p.p.p.p.p.p.=.o.#.#.#.#.#.#.#.#.#.%.#.#.#.#.#.*.p.p.p.p.p.p.p.k.z         M.J.V.H.D.H.H.Z.H.H.",
"J.J.J.J.H.F.H.V.A.Z.;       h p.7.7.8.8.8.8.8.-.$.#.%.#.#.#.#.#.#.#.#.#.#.$.$.$.=.8.8.8.8.8.8.8.p.z       + N.H.D.H.H.H.D.D.H.H.",
"H.V.H.V.H.H.H.H.A.V.-       l p.7.8.r.8.8.8.u.+.X.@.@.#.#.#.#.#.#.#.%.#.#.X.@.X.+.r.8.r.8.8.8.8.p.z       O N.K.F.H.D.H.H.H.D.H.",
"H.H.H.H.H.H.H.H.H.Z.&       h p.8.8.r.e.e.e.e.d.g.s.g.<.#.#.#.*.#.*.#.#.>.s.s.s.d.0.e.e.e.r.r.8.p.z       O N.K.Z.H.H.H.H.H.H.H.",
"H.H.H.H.H.H.H.V.H.V.&       j p.8.r.e.$.*.$.| oX%X%X%X[. .#.#.%.#.%.$. .].%X%X%X+X#.#.$.#.0.8.8.p.z       O N.H.Z.H.H.H.D.H.H.Z.",
"F.H.F.H.H.H.H.V.H.V.-       j p.8.u.e.$.#.$.| oX%X$X%X[.| $.#.#.#.#.&.| ].%X$X%X+X#.#.$.$.0.8.8.p.z       O N.J.Z.A.A.A.H.D.H.H.",
"H.H.H.H.H.A.Z.V.A.V.-       h p.8.8.e.$.%.&.@.oX%X$X%X[.X.&.$.$.%.#.&. .].%X$X%X+XO.$.$.$.0.8.8.p.z       O M.H.Z.Z.Z.A.H.H.H.Z.",
"H.H.H.H.A.J.P.L.L.J.&       h p.8.8.e.{ | | { OX%X%X%X[.[ O.@.| | | @.[ ].%X%X%X@X{ | @.#.0.8.8.p.z       . C.P.K.L.K.V.H.H.H.H.",
"H.F.H.H.J.( 8 8 8 8 n x b x ' =.-.+.d.oXoXoXOX_.l.z.l._.oXoXoXoXoXoXoXOX`.h.x.l.x.oXoXoXOXf.+.=.-.;.x b x b M 8 t 7 ) K.V.H.D.H.",
"H.H.H.V.P.J         9.p.i.p.y.#.$.X.g.%X%X%X%Xl...#.[ x.%X%X%X%X%X%X%X%X`.[ @...<.%X%X%X%Xx. .%.o.-.p.i.p.i.@       B P.V.H.H.H.",
"H.A.H.V.L.^       o 5.r.8.8.-.#.$.@.s.%X%X$X%Xz.X.:. .x.%X$X$X$X$X$X$X%X`.X.&.#.s.$X%X$X%Xz. .$.#.-.8.8.w.8.%   .   G P.Z.H.A.H.",
"H.H.A.V.P.^       o 5.p.8.i.-.#.$.@.s.%X%X%X%Xz.X.&. ._.%X%X%X%X%X%X%X%X].{ &.@.,.%X%X%X%Xz. .$.#.=.u.8.r.8.%       V P.V.H.H.H.",
"H.A.A.Z.L.^       o ;.0.0.0.+.%.#.@.s.%X%X%X%Xz. .&.@.1.!.W.W.W.W.W.W.!.j.@.$.@.,.%X%X$X%Xx. .&.#.=.0.q.0.q.%       V P.V.H.H.A.",
"A.H.H.Z.L.^       X } %.#.#.#.#.$.@.g.%X%X%X%Xz. .$.&.g                 y 2.#.@.,.%X%X%X%Xz. .$.#.#.#.#.%.#.#       G P.Z.A.A.A.",
"A.H.A.Z.L.^       X } &.#.#.#.#.#.@.s.%X%X%X%Xz. .$.&.v   . .       .   f 2.#.@.,.%X%X%X%Xz. .&.#.#.#.#.#.O.#       V P.V.A.H.A.",
"H.H.H.V.P.^       X } &.#.%.#.#.$.@.s.%X%X%X%Xz.X.$.3.v                 f 2.#.@.s.%X%X%X%Xx. .$.#.#.%.%.%.#.#       V P.Z.H.A.H.",
"H.A.A.V.L.^       X } O.O.O.#.#.#.@.s.$X$X$X%Xh.{ O.#.v   O . o   .     s &.O.| 1.$X$X$X%Xz. .#.%.#.O.O.O.O.#       V P.Z.H.A.H.",
"H.H.Z.Z.P.J         @ # # X g 2.#.#.:.>.<.>.<.p $ # X D @X.X@X.XT.Y.Y.T.A $ # @ 1 >.1.>.>.:.#.#.&.` X @ # @         G P.V.H.H.H.",
"H.Z.H.Z.P.^                 i 2.#.#.#.@.@.@.%.2       D %X%X%X%XQ.R.E.Q.Z       # @.#.@.@.#.#.#.2.v                 V P.Z.H.H.A.",
"H.H.H.V.P.^           . X   f 2.O.#.@.#.#.#.&.1   .   D %X$X%X$XQ.T.R.Q.Z       < #.#.#.#.#.#.@.2.v                 V P.V.H.H.Z.",
"H.D.D.V.P.^                 i 4.&.&.2.2.2.2.3.1       D %X%X%X%XQ.R.R.W.Z       < &.2.2.2.2.&.2.3.v                 V P.V.H.H.H.",
"H.H.Z.Z.P.^       . I Y.U.Y.Y y i u u u u u u #       A .X X|.|.W.R.R.Q.Z       o u u u u u u u y s S S S S O       G P.Z.A.A.A.",
"D.H.Z.Z.L.^       O #X%X%X%XI                         0 E.T.T.T.R.R.R.W.Z                         0 ~.W.W.W.=       V L.V.A.A.H.",
"H.H.H.Z.P.^       > .X%X#X%XP   o                     0 W.R.R.R.R.R.R.W.Z   .                 .   0 R.T.R.T.=   .   G L.Z.H.H.H.",
"A.A.Z.Z.P.J       O @X%X%X%XP                         0 Q.W.W.W.W.R.W.Q.Z                         0 Q.W.W.R.=       G P.Z.H.A.H.",
"H.H.H.Z.L.) , 3 , 7  X.X|.@XU > 5 5 5 5 5 5 5 5 5 5 6 Z Y.U.U.U.U.U.U.Y.Z = : : : : : : : : : : = 0 Y.U.U.U.7 3 6 3 _ }.J.H.H.H.",
"H.H.H.H.Z.H.H.H.J.Z.&       J *X%X%X%X%X%X%X%X%X%X$X%XW.                S Q.T.R.R.R.R.R.R.R.R.R.Q.K       + N.P.}.}.}./.J.H.H.F.",
"Z.H.D.H.H.D.H.H.A.V.&   .   Y.%X$X%X%X%X%X%X%X%X%X%X%XW.                S Q.R.R.R.R.R.R.R.R.R.R.W.K       . M.J.^.}.}./.J.F.H.H.",
"H.J.J.H.H.H.H.H.A.V.&   .   Y.%X$X%X%X%X%X%X%X%X%X$X%XW.  .         .   S W.R.R.R.R.R.R.R.R.R.R.W.K       O M.J.^.)././.J.F.H.H.",
"/./.).^.H.H.H.D.H.Z.-   .   Y.%X%X%X%X%X%X%X%X%X%X$X%XE.                Z Q.R.R.W.R.R.R.R.R.R.R.Q.K       . M.K.H.J.J.J.H.D.H.H.",
"}.}.}./.J.H.H.H.A.V.-       L  X~.~. X%X%X%X%X%X%X%X%X@XQ.~.~.~.P K K K U.W.R.R.R.R.R.R.W.R.R.R.W.K       . M.J.Z.F.F.D.D.H.H.D.",
"}.}.}.).J.D.H.Z.H.Z.&       S W.R.T.Q.%X%X%X%X%X%X%X%X%X%X%X%X%X~.W.W.W.W.R.R.R.R.R.R.R.R.R.R.R.W.L       . M.K.A.H.H.H.H.D.H.D.",
"/./.).^.J.Z.H.H.A.V.-   .   D W.R.T.Q.%X$X$X$X%X%X%X%X%X$X$X$X$XW.R.R.R.R.R.R.R.R.R.R.R.R.R.R.T.W.K   .   O M.J.Z.H.H.D.H.H.H.H.",
"J.J.J.J.H.H.H.Z.H.V.+       S ~.W.W.~.%X%X%X%X%X%X%X%X%X%X%X%X%XW.R.R.R.R.R.R.R.W.W.W.W.W.W.W.W.~.K         M.J.V.H.H.H.D.D.H.H.",
"Z.D.D.Z.D.H.D.H.H.Z.m e r e F K K L P Q.Q.Q.W.XX@X.X@X.X.X.X.X.XW.R.W.E.R.R.R.R.T.K K K K K K K K H e r e m C.H.D.H.H.F.H.H.D.H.",
"H.H.H.D.H.H.H.H.H.H.L.P.L.(.N                 L W.T.T.T.R.T.R.T.R.R.R.R.R.R.R.W.U.                r (.K.P.P.H.D.H.H.D.H.H.D.H.H.",
"H.D.H.H.H.Z.H.D.H.A.Z.V.V.L.m   .       .     P W.R.R.R.R.R.R.R.R.R.R.R.R.R.R.W.U.    .           r K.C.V.V.H.H.H.H.H.H.H.H.H.D.",
"H.D.H.H.H.D.H.H.H.H.H.H.Z.P.m                 P W.R.R.R.R.R.R.R.R.R.R.R.R.R.R.W.U.                w S.v.F.F.D.H.H.Z.D.H.H.H.H.H.",
"H.H.H.H.H.H.D.H.H.F.H.F.Z.L.B   + O . . . +   P W.R.R.R.R.R.R.R.R.R.R.R.R.R.R.R.U.O . . . O . +   w S.c.F.F.F.F.H.H.H.H.Z.H.H.D.",
"D.H.D.Z.D.Z.H.H.D.H.H.H.H.H.C.M.! ! ! ! m.M.C.e + = = = = = = = = = = = = = = > 7 N.M.N.M.N.M.M.) ! c.n.F.F.F.F.H.H.D.H.H.Z.H.H.",
"H.H.H.H.H.H.H.H.Z.H.H.H.H.F.H.H.n.v.v.n.G.H.P.8                                 , L.H.J.K.H.J.G.S.c.c.n.F.F.F.F.H.D.H.H.H.H.H.D.",
"H.V.H.A.H.H.H.V.H.H.Z.H.H.H.V.H.B.V.B.V.D.Z.K.t   . .       .           .   .   3 H.H.F.V.H.Z.Z.V.V.B.V.V.H.H.F.H.H.H.H.H.H.H.F.",
"H.H.H.H.H.H.H.H.H.H.H.H.H.H.H.H.H.H.H.H.D.Z.P.4                                 ; H.H.H.H.H.H.H.H.H.H.H.H.H.H.H.H.V.F.F.F.H.A.H.",
"H.H.A.H.H.H.A.H.H.H.A.A.H.V.F.H.D.H.D.H.H.Z.J.^ N B V V B B B B B V B V V B B N J H.F.H.F.H.F.H.H.F.F.H.H.H.H.H.H.H.H.H.H.A.H.H.",
"H.H.H.F.H.H.H.H.F.H.H.H.H.J.J.H.H.H.H.D.D.H.D.K.P.L.P.P.P.P.P.P.P.P.P.P.P.P.P.P.L.H.H.H.H.J.H.J.H.H.H.H.H.H.F.H.F.V.F.F.V.H.H.A.",
"H.H.F.H.H.H.H.F.H.H.H.H.^.)./.^.J.D.D.H.H.A.H.Z.V.V.Z.Z.Z.V.Z.Z.Z.Z.V.Z.Z.V.Z.V.V.H.A.J.^././.^.K.H.H.H.H.F.H.F.b.v.v.n.V.H.F.H.",
"H.H.H.A.H.H.H.H.H.H.H.J.).}.}.).J.D.H.H.H.H.A.A.H.H.A.Z.H.A.Z.A.Z.A.A.H.H.A.A.A.A.H.V.J.).}.}./.H.A.H.A.H.H.H.V.v.c.c.v.F.H.H.H.",
"H.H.H.A.H.H.H.A.H.H.V.J./.}.}.).J.D.H.H.H.Z.H.H.A.H.A.H.H.H.H.A.Z.A.A.H.H.H.A.A.H.H.H.H./.}.}./.J.H.H.H.H.H.H.V.b.c.c.v.V.H.F.H.",
"V.A.H.H.H.V.H.H.H.H.H.H./.}.}.).J.V.H.H.H.H.A.H.H.H.H.A.H.A.H.H.H.A.H.H.A.A.H.H.H.H.H.J./.}.}.).J.V.H.A.H.H.H.V.v.c.c.v.B.H.F.H."
};
