/* XPM */
static char *maxresdefault_1__removebg_preview_resized[] = {
/* columns rows colors chars-per-pixel */
"64 64 199 2 ",
"   c #000000",
".  c #0C040D",
"X  c #05040A",
"o  c #10030E",
"O  c #18060D",
"+  c #0F0111",
"@  c #130214",
"#  c #160619",
"$  c #190219",
"%  c #0B1C13",
"&  c #091611",
"*  c #19141F",
"=  c #141D1A",
"-  c #0C130E",
";  c #11201B",
":  c #1D0D24",
">  c #1D0724",
",  c #1D1124",
"<  c #1B1A23",
"1  c #230C28",
"2  c #22142A",
"3  c #25182D",
"4  c #2A1831",
"5  c #321C3F",
"6  c #33133C",
"7  c #162923",
"8  c #182523",
"9  c #193429",
"0  c #193A2C",
"q  c #163428",
"w  c #1B3C32",
"e  c #1F3632",
"r  c #003926",
"t  c #283539",
"y  c #393335",
"u  c #292D32",
"i  c #00432B",
"p  c #1D4434",
"a  c #19402F",
"s  c #24463A",
"d  c #371D45",
"f  c #3D244B",
"g  c #2D3C42",
"h  c #2E3442",
"j  c #363849",
"k  c #3F3B51",
"l  c #4A2B5C",
"z  c #462957",
"x  c #46325A",
"c  c #41204F",
"v  c #512E64",
"b  c #523166",
"n  c #55326B",
"m  c #59346D",
"M  c #5D3474",
"N  c #5D3A73",
"B  c #5E3179",
"V  c #4E2F63",
"C  c #63357C",
"Z  c #65387D",
"A  c #64397A",
"S  c #2C5B4A",
"D  c #265645",
"F  c #375854",
"G  c #2D4845",
"H  c #386C5D",
"J  c #38735F",
"K  c #3E6D63",
"L  c #397661",
"P  c #3C7F69",
"I  c #524C4E",
"U  c #406358",
"Y  c #5A4672",
"T  c #4F706C",
"R  c #0D9A6C",
"E  c #3F826C",
"W  c #00A26D",
"Q  c #0AA673",
"!  c #15AA7A",
"~  c #16B17F",
"^  c #40836D",
"/  c #448B74",
"(  c #4B8A79",
")  c #488C77",
"_  c #4A957D",
"`  c #49967E",
"'  c #508E7E",
"]  c #663780",
"[  c #683782",
"{  c #673881",
"}  c #6A3A84",
"|  c #6E3E89",
" . c #713E8C",
".. c #743E92",
"X. c #6E4089",
"o. c #71428D",
"O. c #764393",
"+. c #794295",
"@. c #7D439B",
"#. c #80449F",
"$. c #81499F",
"%. c #837E87",
"&. c #8346A3",
"*. c #8649A5",
"=. c #8B4BAB",
"-. c #8748A7",
";. c #8E51AD",
":. c #9152AE",
">. c #8F4CB0",
",. c #914DB3",
"<. c #9351B2",
"1. c #9A53BB",
"2. c #9752B9",
"3. c #9E55C2",
"4. c #9F59C0",
"5. c #A55ACA",
"6. c #A95ACE",
"7. c #A257C7",
"8. c #AC5CD3",
"9. c #AF5FD8",
"0. c #B15ED7",
"q. c #B25FDA",
"w. c #B353DF",
"e. c #B561DC",
"r. c #AF68D2",
"t. c #BA5BE5",
"y. c #B658E2",
"u. c #BD64E6",
"i. c #BF65E8",
"p. c #BB68E4",
"a. c #C266EB",
"s. c #C369ED",
"d. c #C069E7",
"f. c #C274E4",
"g. c #C668F1",
"h. c #CA6BF5",
"j. c #CA6BF5",
"k. c #CE71FB",
"l. c #D576FF",
"z. c #00B283",
"x. c #0AB487",
"c. c #0CB488",
"v. c #06BE82",
"b. c #15B68A",
"n. c #4C9780",
"m. c #4D9B83",
"M. c #509B85",
"N. c #7B8883",
"B. c #4DA388",
"V. c #51A48A",
"C. c #53A98E",
"Z. c #50A087",
"A. c #55AD91",
"S. c #5CAC94",
"D. c #4EBA98",
"F. c #57B295",
"G. c #58B497",
"H. c #59B598",
"J. c #52BE9C",
"K. c #5BBC9E",
"L. c #61AF9D",
"P. c #5CBFA0",
"I. c #4FC09E",
"U. c #53C09F",
"Y. c #5DC2A2",
"T. c #5AC5A3",
"R. c #63C3A5",
"E. c #60C8A7",
"W. c #62CCAB",
"Q. c #63C7A8",
"!. c #65D0AE",
"~. c #66D4B1",
"^. c #69D9B6",
"/. c #6BDCB9",
"(. c #68D7B4",
"). c #77E1C1",
"_. c #8F8E8C",
"`. c #BDB9BD",
"'. c #C0BCBE",
"]. c #8CCEBB",
"[. c #91CFBE",
"{. c #91D0BF",
"}. c #8CD3BF",
"|. c #C489DB",
" X c #D4B7DD",
".X c #C888E4",
"XX c #CE99E2",
"oX c #D098E6",
"OX c #D7AAE9",
"+X c #95D2C2",
"@X c #99D1C3",
"#X c #8ED4C0",
"$X c #BFC1C0",
"%X c #DBC9E1",
"&X c #E8CEF0",
"*X c #F3EAF5",
"=X c #FEFEFD",
"-X c #F8F7F7",
";X c #E9E4EB",
/* pixels */
"W W W Q J.Y.U.Y.Y.Y.Y.Y.Y.Y.Y.Y.Y.Y.Y.Y.Y.Y.Y.Y.Y.Y.Y.Y.Y.Y.Y.Y.R.Y.Y.Y.Y.Y.Y.Y.Y.Y.Y.Y.Y.Y.Y.Y.Y.Y.Y.Y.Y.Y.Y.Y.Y.Y.Y.Y.Y.Y.Y.Y.",
"W W W Q J.R.Y.Y.Y.Y.Y.Y.Y.Y.Y.Y.Y.Y.Y.Y.Y.Y.Y.Y.Y.Y.Y.Y.Y.Y.Y.Y.Y.Y.Y.Y.Y.Y.Y.Y.Y.Y.Y.Y.Y.Y.Y.Y.Y.Y.Y.Y.Y.Y.Y.Y.Y.Y.Y.Y.Y.Y.Y.Y.",
"W W W Q J.Y.Y.Y.R.R.Y.Y.Y.Y.Y.Y.Y.Y.Y.Y.Y.Y.Y.Y.Y.Y.Y.Y.Y.Y.Y.Y.Y.Y.Y.Y.Y.Y.Y.Y.Y.Y.Y.Y.Y.Y.Y.Y.Y.Y.Y.Y.Y.Y.Y.Y.Y.Y.Y.Y.Y.Y.Y.Y.",
"Q Q Q ! J.Y.Y.Y.J.U.U.U.Y.Y.Y.Y.Y.Y.Y.Y.Y.Y.Y.Y.Y.Y.Y.Y.Y.Y.Y.Y.Y.Y.Y.Y.Y.Y.Y.Y.Y.Y.Y.Y.Y.Y.Y.Y.Y.Y.Y.Y.Y.Y.Y.Y.Y.Y.Y.Y.Y.Y.Y.Y.",
"J.J.J.J.U.Y.Y.U.b.x.x.b.U.R.T.U.Y.Y.Y.Y.Y.Y.Y.Y.Y.Y.Y.Y.Y.Y.Y.Y.Y.Y.Y.Y.Y.Y.Y.Y.Y.Y.Y.Y.Y.Y.Y.Y.Y.Y.Y.Y.Y.Y.Y.Y.Y.Y.Y.Y.Y.Y.Y.Y.",
"Y.Y.R.Y.Y.Y.R.U.x.z.z.x.I.Y.U.R.Y.Y.Y.Y.Y.Y.Y.Y.Y.Y.Y.Y.Y.Y.Y.Y.Y.Y.Y.Y.Y.Y.Y.Y.Y.Y.Y.Y.Y.Y.Y.Y.Y.Y.Y.Y.Y.Y.Y.Y.Y.Y.Y.Y.Y.Y.Y.Y.",
"Y.T.Y.Y.Y.Y.Y.U.x.z.z.x.J.Y.R.Y.Y.Y.Y.Y.Y.Y.Y.Y.Y.U.Y.Y.Y.Y.Y.Y.Y.Y.Y.Y.Y.Y.Y.Y.Y.Y.Y.Y.Y.Y.Y.Y.Y.Y.Y.Y.Y.Y.Y.Y.Y.Y.Y.Y.Y.Y.Y.Y.",
"Y.Y.Y.Y.Y.Y.R.U.b.x.x.b.J.R.Y.Y.Y.Y.Y.Y.Y.Y.Y.Y.R.R.R.R.Y.Y.Y.Y.Y.Y.Y.Y.K.R.U.K.Y.Y.Y.Y.Y.Y.Y.Y.Y.Y.Y.Y.Y.Y.Y.Y.R.R.E.R.Y.Y.Y.Y.",
"Y.Y.Y.Y.Y.Y.Y.Y.U.J.U.U.T.Y.Y.Y.Y.Y.Y.Y.Y.R.Y.R.].[.].].R.Y.Y.Y.Y.U.R.!.~.!.!.~.T.Y.Y.Y.Y.Y.Y.Y.Y.Y.Y.Y.Y.Y.Y.R.].].[.].R.Y.Y.Y.",
"Y.Y.Y.Y.Y.Y.Y.Y.Y.Y.R.Y.T.K.Y.Y.Y.Y.Y.Y.R.U.Y.R.[.@X@X+XR.Y.Y.Y.Y.Q.K.0 q q w 0 S W.Y.Y.Y.Y.Y.Y.Y.Y.Y.Y.Y.Y.Y.R.{.@X@X{.R.Y.Y.Y.",
"Y.U.Y.Y.Y.Y.Y.Y.Y.Y.Y.Y.Y.R.Y.R.Y.P.U.K.P.Y.U.R.[.@X@X[.R.Y.Y.Y.Y.C.' y y y 4 $ 3 n.H.Y.Y.Y.Y.Y.Y.Y.Y.Y.Y.Y.Y.R.{.+X@X[.R.Y.Y.Y.",
"R.R.R.R.Y.Y.Y.Y.Y.Y.Y.Y.J.J.J.J.R.!.!.W.!.R.P.R.].[.[.].R.Y.P.P.).0 o =X=X*Xs.,.m   ) /.K.Y.Y.Y.Y.Y.Y.Y.Y.Y.Y.R.].{.[.].R.Y.Y.Y.",
"{.{.{.].R.Y.Y.Y.Y.Y.R.U.! Q Q b.D.w w s 0 _ ~.E.R.R.R.R.Y.E.!.K.s N.`.-X=X*Xp.-.N V g D W.Y.K.Y.Y.Y.Y.Y.Y.Y.U.U.R.R.R.R.Y.Y.Y.Y.",
"{.@X@X{.R.Y.Y.Y.Y.Y.Y.U.Q W W R ) y 4 4 1 U C.n.A.T.K.P.K.M.Z.' $ '.=X-X*X%Xu.*.] O.6 < m.H.Y.T.Y.Y.Y.Y.R.U.R.R.Y.Y.Y.Y.Y.Y.Y.Y.",
"@X{.@X{.R.R.Y.Y.Y.Y.Y.U.Q W ~ i O =XOXy.l.n     J /.W.(.H.    , u.&X=X=XoXy.a.&.C } | A   / /.!.Q.U.P.P.U.R.Y.Y.Y.R.Y.Y.Y.Y.Y.Y.",
"{.{.{.].R.U.Y.Y.Y.Y.Y.U.! R r T '.-X*X X$.C f z j p s p s z f n t.|.XXXXf.u.u.8.2.} } Z l g p w V.!.Q.Q.W.W.Y.Y.Y.Y.Y.Y.Y.Y.Y.Y.",
"R.R.R.R.R.Y.Y.Y.Y.Y.Y.P.T.B.  _.=X-X*X%XO.&.&.O.d @ # @ 1 *.&.=.u.t.t.t.t.u.u.g.u.} } } ..5 . @ U Z.` ` ` ` G.Y.Y.Y.Y.Y.Y.Y.Y.Y.",
"Y.R.U.Y.R.P.Y.Y.Y.Y.Y.Y.W.K.  _.=X=XOXy.d.d.0.[ } | | } O.u.u.u.u.i.p.i.u.u.u.i.8.} { } } | | O.3           ) (.K.Y.Y.Y.Y.Y.Y.Y.",
"R.Y.Y.Y.Y.Y.Y.Y.Y.Y.Y.W.L t =.r..X.Xf.u.u.u.u.6.6.6.6.6.8.u.u.u.u.u.u.u.u.u.u.i.u.8.@.C [ C | 6.1.:.:.:.:.1.k p W.Y.Y.Y.Y.Y.Y.Y.",
"Y.Y.Y.Y.Y.Y.Y.Y.Y.Y.P.W.D @ s.a.t.t.u.u.u.u.u.i.a.a.i.i.i.u.u.u.u.u.u.u.u.u.u.u.u.a.2.+.@.@.-.i.s.g.g.g.g.k.l = M.H.Y.Y.Y.Y.Y.Y.",
"Y.Y.Y.Y.Y.Y.Y.Y.Y.Y.P.^.S @ p.u.u.i.u.u.u.u.u.u.u.u.u.u.u.u.d.s.u.u.u.u.u.i.u.u.u.u.u.i.i.u.i.u.u.p.u.u.q.a.=.N   ^ W.T.Y.Y.Y.Y.",
"Y.Y.Y.Y.Y.Y.Y.Y.Y.E.A.q Y 1.u.u.u.u.u.u.u.u.u.u.u.u.u.u.u.h.A 5 u.u.u.u.u.u.u.u.u.u.u.u.u.u.u.u.u.u.u.u.u.s.=.n   ^ W.K.Y.Y.Y.Y.",
"Y.Y.Y.Y.Y.Y.Y.Y.P.E.C.  Z l.u.u.u.u.u.u.u.i.u.u.u.u.u.u.u.g.A 5 p.u.u.u.u.u.u.u.u.i.u.u.u.u.u.u.u.u.u.u.q.0.&.m   ^ !.Y.Y.Y.Y.Y.",
"Y.Y.Y.Y.Y.Y.Y.Y.P.E.C.  Z h.e.u.u.u.u.i.s.i.u.u.u.u.u.u.u.u.u.s.u.u.u.u.u.i.u.u.u.u.u.u.u.u.u.u.u.u.u.a.q.[  .M   E W.Y.Y.Y.Y.Y.",
"Y.Y.Y.Y.Y.Y.Y.Y.Y.!.A.  A h.p.u.u.u.i.6., +.j.p.u.u.u.u.u.u.a.g.g.g.g.a.a.u.u.u.u.u.u.u.u.u.u.i.a.u.@.@.+.X.5 u n.H.Y.Y.Y.Y.Y.Y.",
"Y.Y.Y.Y.Y.Y.Y.Y.R.A.( 3 @.h.u.u.i.u.s.5., O.h.p.u.u.t.u.u.u.7.;.<.;.<.6.e.u.u.u.u.u.u.i.u.d.u.8.8.3.} ] ] X.# % W.Y.Y.Y.Y.Y.Y.Y.",
"Y.Y.Y.Y.Y.Y.Y.K.W.D $ d.u.u.i.u.u.u.u.p.s.u.u.u.i.s.s.s.i.k.v       X C 7.a.u.u.u.i.u.u.u.a.8.[ ] { } } } O.1 % E.Y.Y.Y.Y.Y.Y.Y.",
"Y.Y.Y.Y.Y.Y.Y.U./.D O ;XoXt.u.u.u.u.u.i.g.g.i.j.} , 4 2 d O.*.,.<.:.<.6.q.a.u.u.u.u.u.u.u.a.q.| } } } | A @ K C.Y.Y.Y.Y.Y.Y.Y.Y.",
"Y.Y.Y.Y.Y.Y.R.K.V.H I =XOXt.u.u.i.u.i.e.<.<.<.e.A * 3 2 d  .7.j.g.s.g.a.u.u.i.u.u.u.u.u.u.q.3.| } } } M x 7 m.~.Y.Y.Y.Y.Y.Y.Y.Y.",
"Y.Y.Y.Y.Y.P.!.L.  _.=X=XOXt.i.u.u.u.d.7.    . M 1.h.s.d.g.i.u.u.u.u.u.u.u.u.u.u.u.u.u.u.a.*.C } } { O.: % W.Y.Y.Y.Y.Y.Y.Y.Y.Y.Y.",
"Y.Y.Y.Y.Y./.J 9 `.;X*X|.f.u.u.u.u.u.u.e.<.:.<.6.q.u.u.u.u.u.u.u.u.u.u.i.u.u.u.u.u.u.u.t.a.*.Z }  .C , X ; Y.Y.Y.Y.Y.Y.Y.Y.Y.Y.Y.",
"Y.Y.Y.Y.K.` S I =X=X*Xu.t.u.u.u.u.u.u.i.g.g.g.a.a.u.u.u.u.u.u.u.u.u.u.u.u.i.u.u.u.u.u.u.a.*.Z } M z * X = P.Y.Y.Y.Y.Y.Y.Y.Y.Y.Y.",
"Y.Y.P.E.A.  N.=X-X=X*Xu.u.u.u.u.u.u.u.u.u.u.u.u.u.u.u.u.u.u.u.u.u.u.i.u.u.u.u.i.u.u.u.t.a.*.C  .2 . O.2 % !.Y.Y.Y.Y.Y.Y.Y.Y.Y.Y.",
"Y.Y.Y.E.A.  _.=X|..X|.u.u.u.u.i.u.u.u.u.u.u.u.u.i.u.u.u.a.u.u.u.u.u.u.u.u.u.u.u.u.u.u.u.u.q.3. ., X { M x 7 m.~.Y.Y.Y.Y.Y.Y.Y.Y.",
"Y.Y.Y.E.A.  %.&Xq.t.t.u.u.a.u.u.u.u.u.u.u.u.u.u.u.u.u.u.u.u.u.i.u.u.u.u.u.u.u.u.u.u.u.a.u.a.q. .f 2 { o.A @ K C.K.Y.Y.Y.Y.Y.Y.Y.",
"Y.Y.P.E.A.  [ j.u.a.u.u.u.u.u.u.u.u.u.u.u.u.i.u.u.u.u.u.u.u.u.u.u.u.u.u.u.i.u.u.u.u.u.u.u.a.0.[ ] | } ] [ o.: & W.Y.Y.Y.Y.Y.Y.Y.",
"Y.Y.Y.Y.K.B.F 6 @.5.s.u.u.u.i.u.u.u.u.u.u.u.u.u.u.i.u.u.u.u.i.u.i.u.u.u.u.u.i.u.i.u.u.u.u.a.u.0.@.C ] <.8.8.| x 7 _ E.Y.Y.Y.Y.Y.",
"Y.Y.Y.Y.Y.(.L 8 l @.0.u.u.u.u.u.i.u.u.u.u.u.u.u.u.u.u.u.u.u.u.u.u.u.u.u.u.u.u.u.u.u.u.u.u.u.e.8.=.O.] 7.g.s.1.X.  ^ W.K.Y.Y.Y.Y.",
"Y.Y.Y.Y.Y.K.E.H.  f @.u.u.u.u.u.u.u.u.i.u.u.a.u.u.u.u.u.u.u.u.u.u.u.u.i.u.u.u.u.u.u.u.u.u.a.q.C 6.u.C 7.g.u.i.7.  / ^.T.Y.Y.Y.Y.",
"Y.Y.Y.Y.Y.Y.W.F.  5 +.u.i.u.u.u.u.u.u.u.u.u.u.u.u.u.u.i.u.i.u.u.u.u.u.u.u.u.i.u.u.u.u.u.a.=.@.0.-.@.9.-.&.i.a.8.n t s R.Y.Y.Y.Y.",
"Y.Y.Y.Y.Y.E.F.( * V >.u.u.u.u.u.i.u.u.u.u.u.u.u.u.u.u.u.u.u.u.u.u.u.u.u.u.u.u.u.u.i.u.u.a.>.@.0.=.+.0.=.@.6.u.8...1 - ].E.T.P.Y.",
"Y.Y.Y.K.K.W.S . Z 1.s.u.u.u.u.u.u.u.u.u.u.u.u.u.u.u.u.u.u.u.i.u.u.i.u.u.u.u.u.u.u.u.u.u.t.s.e.C 5.u.B 5.u.B 7.u. .: = +XR.P.Y.Y.",
"Y.Y.T.T.P.^.S . 5.e.u.u.u.u.u.i.a.a.a.a.a.a.a.a.a.u.u.u.i.u.u.u.u.u.u.a.u.u.u.u.u.u.u.u.s.:.@.e.=.&.8.,.O.} O.+. .: = +XR.P.Y.Y.",
"R.R.R.R.K.m.F c a.u.u.u.u.u.u.0.6.6.6.6.6.6.6.5.q.u.u.u.u.u.u.u.u.u.u.u.u.u.u.u.u.u.u.u.8.*.@.e.@.[ e.@.C } ] Z  .1 = ].R.Y.Y.Y.",
"[.].{.}.S.  Z k.u.u.u.u.u.u.s.=.C | } | } [ [ C 2.s.i.u.u.u.u.u.u.u.u.u.u.u.u.u.u.u.d.e.Z 6.e.[ } } ] ] } [ | | O.1 & R.R.Y.Y.Y.",
"@X+X@X+XS.  } k.u.u.u.a.1.+.*.@.C # # # @ z ..| +.#.@.@.-.a.i.i.u.u.u.u.u.i.a.a.e.@.@.@.} ..@.} } }  .| | O.5 @ @ H C.P.Y.Y.Y.Y.",
"@X@X@X+XS.  M e.e.u.u.8.*.B v v x 9 9 9 q j n v M ] ] ] | 8.8.8.u.u.u.u.u.u.6.8.7.[ Z Z } [ Z [ } ] b v b b t q 7 ` ~.P.Y.Y.Y.Y.",
"{.{.[.}.S.  f $.u.a.8.A | A     % Q.W.E.^.F     f O.] } [ ] Z ..u.a.i.u.a.e.[ ] [ } | [ [ | o.X.| m         ( ^.R.E.Y.Y.Y.Y.Y.Y.",
"R.R.R.R.K.V.G $ *.*.@.+.d < M.n.M.Y.U.K.Y.A.` V.G >  . .o.} } | @.@.#.@.&.+.} } } } } } ..5 . @ T H.n.m.n.n.H.Y.T.P.Y.Y.Y.Y.Y.Y.",
"Y.T.Y.Y.Y.(.E t z z z l h S ~.T.E.Y.R.Y.R.T.E.~.P e l z l [ } } ] [ Z ] ] ] } } } } } Z l g p w B.W.T.W.W.W.Y.Y.Y.Y.Y.Y.Y.Y.Y.Y.",
"Y.Y.Y.Y.Y.K.W.H.        L /.P.P.Y.Y.R.Y.Y.Y.U.K.!.H.    . | | } } } } } } } } } { { X.N   / /.E.Y.P.R.P.P.P.Y.Y.Y.Y.Y.Y.Y.Y.Y.Y.",
"Y.Y.Y.Y.Y.Y.Y.K.m.m.n.n.A.Y.Y.T.U.U.U.U.Y.Y.R.Y.T.K.n.m.( @ z +. .| } } } } } | o.O.6 * n.F.T.P.T.T.I.P.T.Y.Y.Y.Y.Y.Y.Y.Y.Y.Y.Y.",
"Y.Y.Y.Y.Y.Y.Y.Y.W.E.E.W.Y.Y.Y.T.b.c.c.b.J.Y.Y.Y.Y.Y.E.!.K.s j l z M } [ } } } b z l g S E.Y.R.J.b.x.x.b.P.T.Y.Y.Y.Y.Y.Y.Y.Y.Y.Y.",
"Y.Y.Y.Y.Y.Y.Y.Y.Y.P.T.P.Y.Y.T.P.x.z.z.x.U.Y.Y.Y.Y.Y.Y.K.Y./.S     l O.X.X.| O.2     / ^.K.T.Y.T.x.z.z.x.J.P.Y.Y.Y.Y.Y.Y.Y.Y.Y.Y.",
"Y.Y.Y.Y.Y.Y.Y.Y.Y.Y.Y.Y.Y.P.Y.J.x.z.z.x.I.Y.Y.Y.Y.Y.Y.Y.Y.Y.C.` V.g o # @ # @ U V.n.G.Y.Y.Y.Y.U.x.z.z.x.J.Y.Y.Y.Y.Y.Y.Y.Y.Y.Y.Y.",
"Y.Y.Y.Y.Y.Y.Y.Y.Y.Y.Y.Y.Y.P.T.T.b.x.x.b.U.R.Y.Y.Y.Y.Y.Y.Y.Y.T.W.~.L 9 p p p w B.!.W.Y.Y.Y.Y.Y.P.b.x.x.b.I.T.Y.Y.Y.Y.Y.Y.Y.Y.Y.Y.",
"Y.Y.Y.Y.Y.Y.Y.Y.Y.Y.Y.Y.Y.Y.Y.Y.U.U.I.T.T.P.Y.Y.Y.Y.Y.Y.Y.Y.Y.Y.K.E.!.W.!.W.!.Y.P.P.Y.Y.Y.Y.Y.Y.T.J.P.J.T.Y.Y.Y.Y.Y.Y.Y.Y.Y.Y.Y.",
"Y.Y.Y.Y.Y.Y.Y.Y.Y.Y.Y.Y.Y.Y.Y.Y.Y.R.Y.Y.P.T.Y.Y.Y.Y.Y.Y.Y.Y.Y.Y.Y.Y.K.Y.Y.P.Y.Y.Y.Y.Y.Y.Y.Y.Y.P.T.Y.T.Y.Y.Y.Y.Y.Y.Y.P.T.Y.Y.Y.Y.",
"Y.Y.Y.Y.Y.Y.Y.Y.Y.Y.Y.Y.P.T.Y.Y.Y.Y.Y.Y.Y.Y.Y.Y.Y.Y.Y.Y.Y.Y.Y.Y.Y.Y.Y.Y.Y.Y.Y.Y.Y.Y.Y.Y.Y.T.P.T.P.T.Y.Y.Y.Y.Y.Y.Y.T.P.T.Y.Y.Y.Y.",
"Y.Y.Y.Y.Y.Y.Y.Y.Y.Y.Y.Y.R.R.R.R.Y.Y.Y.Y.Y.Y.Y.Y.Y.Y.Y.Y.Y.Y.Y.Y.Y.Y.Y.Y.Y.Y.Y.Y.Y.Y.Y.Y.R.R.R.R.Y.P.Y.Y.Y.Y.Y.P.T.P.P.I.T.Y.Y.Y.",
"Y.Y.Y.Y.Y.Y.Y.Y.Y.Y.P.R.].[.[.].R.Y.Y.Y.Y.Y.Y.Y.Y.Y.Y.Y.Y.Y.Y.Y.Y.Y.Y.Y.Y.Y.Y.Y.Y.Y.Y.R.].[.].].R.P.Y.Y.Y.Y.Y.T.b.c.c.b.P.Y.Y.Y.",
"Y.Y.Y.Y.Y.Y.Y.Y.Y.P.T.R.].@X@X[.R.Y.Y.Y.Y.Y.Y.Y.Y.Y.Y.Y.Y.Y.Y.Y.Y.Y.Y.Y.Y.Y.Y.Y.Y.Y.Y.R.].@X@X+XR.T.Y.Y.Y.Y.Y.J.c.z.z.x.D.T.T.Y.",
"Y.Y.Y.Y.Y.Y.Y.Y.Y.Y.Y.R.].@X+X[.R.Y.Y.Y.Y.Y.Y.Y.Y.Y.Y.Y.Y.Y.Y.Y.Y.Y.Y.Y.Y.Y.Y.Y.Y.Y.Y.R.].@X@X[.R.P.Y.Y.Y.Y.Y.J.c.z.z.c.J.R.Y.Y.",
"Y.Y.Y.Y.Y.Y.Y.Y.Y.Y.Y.R.].@X@X+XR.Y.Y.Y.Y.Y.Y.Y.Y.Y.Y.Y.Y.Y.Y.Y.Y.Y.Y.Y.Y.Y.Y.Y.Y.Y.Y.R.].@X@X+XR.Y.Y.Y.Y.T.Y.T.c.z.z.x.J.Y.Y.Y."
};
