/* XPM */
static char *_040bola_resized[] = {
/* columns rows colors chars-per-pixel */
"32 32 208 2 ",
"   c #000000",
".  c #0F0003",
"X  c #0A030C",
"o  c #050F0A",
"O  c #0B0D0C",
"+  c #060B08",
"@  c #110005",
"#  c #19050C",
"$  c #09120B",
"%  c #090013",
"&  c #0F011C",
"*  c #12001A",
"=  c #0D1C15",
"-  c #151415",
";  c #151C19",
":  c #31000D",
">  c #12281D",
",  c #11281B",
"<  c #140425",
"1  c #1D0535",
"2  c #241F20",
"3  c #1B342A",
"4  c #1A2F28",
"5  c #282B2A",
"6  c #353535",
"7  c #3A3A3A",
"8  c #313F38",
"9  c #2B3933",
"0  c #48081D",
"q  c #6A122F",
"w  c #43393D",
"e  c #622237",
"r  c #28473A",
"t  c #37443E",
"y  c #444B3E",
"u  c #2D0753",
"i  c #31085B",
"p  c #2C0749",
"a  c #352D57",
"s  c #3B0F67",
"d  c #411059",
"f  c #430C7B",
"g  c #49187A",
"h  c #59357C",
"j  c #385D4F",
"k  c #345548",
"l  c #385E50",
"z  c #304E42",
"x  c #3B6654",
"c  c #4B4A4B",
"v  c #454646",
"b  c #445951",
"n  c #4A5D55",
"m  c #545856",
"M  c #4B6359",
"N  c #477B66",
"B  c #676767",
"V  c #7B7B7B",
"C  c #97133F",
"Z  c #B61233",
"A  c #8B1A40",
"S  c #A8144A",
"D  c #B3154B",
"F  c #BD174F",
"G  c #B71749",
"H  c #A81457",
"J  c #B91D53",
"K  c #8B3451",
"L  c #BA2E5E",
"P  c #B62758",
"I  c #BC365B",
"U  c #B9234D",
"Y  c #AD1E74",
"T  c #B63662",
"R  c #BC3461",
"E  c #BD3966",
"W  c #BE3D69",
"Q  c #B63C65",
"!  c #BB3B75",
"~  c #B12472",
"^  c #8F1473",
"/  c #C23D5A",
"(  c #C2265B",
")  c #C03E6A",
"_  c #C43D68",
"`  c #CC1956",
"'  c #BF416C",
"]  c #C64157",
"[  c #C1426D",
"{  c #C54F77",
"}  c #C65279",
"|  c #C55077",
" . c #2E805C",
".. c #159E66",
"X. c #3C8867",
"o. c #19A068",
"O. c #26A571",
"+. c #38A87A",
"@. c #4D846D",
"#. c #528C75",
"$. c #57947A",
"%. c #4CA37D",
"&. c #6E8C7E",
"*. c #500E95",
"=. c #761189",
"-. c #771792",
";. c #590DA6",
":. c #5B0FAB",
">. c #520CA7",
",. c #580FB5",
"<. c #5A13A0",
"1. c #6310A4",
"2. c #6210AC",
"3. c #6310B6",
"4. c #6C1CBB",
"5. c #620EAC",
"6. c #7225BF",
"7. c #6A15C6",
"8. c #731BCB",
"9. c #7424C5",
"0. c #7824CD",
"q. c #7A23D4",
"w. c #A41B98",
"e. c #B53A8C",
"r. c #8418A2",
"t. c #8322B9",
"y. c #A830B2",
"u. c #BB4387",
"i. c #817D85",
"p. c #B649B0",
"a. c #CF688C",
"s. c #D37897",
"d. c #D16C84",
"f. c #9F30DF",
"g. c #A22BC4",
"h. c #A335D6",
"j. c #A12ED1",
"k. c #8000FF",
"l. c #8913FE",
"z. c #8E1CFF",
"x. c #8724E9",
"c. c #9C2DE4",
"v. c #9F32E2",
"b. c #8D27FF",
"n. c #8F29FF",
"m. c #8D27F3",
"M. c #9326FF",
"N. c #952BFE",
"B. c #9C2EFF",
"V. c #9728F3",
"C. c #9A36FE",
"Z. c #9E3BFE",
"A. c #A332FF",
"S. c #AB34FF",
"D. c #A032E0",
"F. c #9517D3",
"G. c #A444FF",
"H. c #A74EFE",
"J. c #A74DF9",
"K. c #A952FD",
"L. c #AC59FE",
"P. c #BC75F0",
"I. c #3FB080",
"U. c #5C9E83",
"Y. c #45B485",
"T. c #5CAA8B",
"R. c #61A187",
"E. c #61A489",
"W. c #64AA8E",
"Q. c #67AD90",
"!. c #6AB496",
"~. c #6EBD9D",
"^. c #64B997",
"/. c #70BF9F",
"(. c #76AC95",
"). c #71BFA0",
"_. c #66C29D",
"`. c #73C4A3",
"'. c #78CDAB",
"]. c #75CAA8",
"[. c #7BD1AE",
"{. c #7ED6B2",
"}. c #50C895",
"|. c #868686",
" X c #939393",
".X c #9A9B9B",
"XX c #A5A5A5",
"oX c #ACACAC",
"OX c #BCBCBC",
"+X c #B1B1B1",
"@X c #80DBB6",
"#X c #BE80FD",
"$X c #EABCCE",
"%X c #C48BFE",
"&X c #C895FC",
"*X c #D4ABFB",
"=X c #C4C4C4",
"-X c #D5D5D5",
";X c #EDC6D5",
":X c #F0CFDE",
">X c #E2C8FB",
",X c #E9D7FA",
"<X c #FFEBFA",
"1X c #F3ECFA",
"2X c #FFFFF7",
"3X c #FEFEFC",
"4X c #F5F4F6",
"5X c #E8E7E8",
/* pixels */
"/./././././.~././.`.E.j j j j j j j j l j U.`.~././.~./././././.",
"/././.~.~.`.].`.`.{.$.                    @.{.`.].`.`.~./././.).",
").`.~.~.'.N > 4 4 > a 0.9.9.9.9.9.9.9.9.q.a > 4 4 , x '././././.",
"~.^.~.^./.k . @ @   p A.B.B.B.B.B.B.B.B.S.d   @ @ . 8 ~.!.~./.).",
"Y.Y.}.X.  e [ W W Q e.M.M.N.N.N.B.N.n.y.R T T Q T F q   @.@X/./.",
"I.I.x x w K _ [ ) ) e.C.C.C.B.N.B.V.j.p.a.a.a.[ E ( A : b #.!./.",
"I.+.  w <Xs.R ) W / u.H.K.K.C.N.N.v.I s.:X;X;X{ E ' L ` 0   R.`.",
"Y.%.q K s.} E ) ' y.h.H.J.K.C.N.N.v.I s.;X$X$X{ E [ L F 0   R.].",
"_.!.J ( E E W W ! M.C.H.H.K.C.N.N.v.I s.;X$X$X{ E ' L F 0   R.`.",
"3 5 T I W W ) U J m.M.C.N.M.B.N.N.v./ [ } } } ) W W L D S C (.].",
"$ . W ) W W T J Y J.G.M.Z.H.C.B.N.c.e.! E E W W W W L D G F &.T.",
"= @ W ) ' P Z F.M.2X,Xk.&X2XL.l.N.B.N.y./ ) W W _ W L D D F # o ",
"= @ L L L Y w.P.%X*X&X%X%X*X%X#XC.N.N.f.y.! W W W ) L D D J # o ",
"= @ D D Z y.b.,X2Xl.K.2X%Xq.>X3XZ.N.B.N.n.e.] ' W [ L D G G # o ",
"= X =.r.g.c.M.>X4XC.L.2X%Xl.>X4XZ.M.N.N.C.t.-.H U P J G ^ -.* O ",
"= % >.7.M.M.M.>X1XN.L.2X%Xl.>X<XZ.M.N.M.N.7.,.H D D S D =.,.* + ",
"= % :.8.B.N.N.Z.Z.C.C.S.A.B.Z.Z.N.N.C.N.B.8.;.1.1.1.1.1.5.3.& + ",
"= X f <.x.m.N.M.m.9.9.9.9.6.x.M.N.N.x.x.m.4.;.;.:.;.;.:.*.f % + ",
"=     1 3.x.B.A.N.          4.S.B.m.;.;.;.:.:.3.3.,.3.7.p     O ",
"=     * u s g g g i.|.|.|.|.h f 8.8.:.:.:.:.:.i u u u i &     $ ",
";               $ 2X3X3X3X3Xv   *.:.:.5.5.,.:.%               + ",
"E.#.  - c ;     - 5X3X4X4X3Xc   < < < < < < <       - c ;   @.E.",
"'.!.  ; B 6 O   - 5X3X4X4X3Xc   +             O O O 5 B 5   Q.'.",
"`.Q.  6 -XoX.X;   3X3X3X3X3Xv                 7 m  XXX-Xv   R.`.",
"`.!.r b V  XoXc 7 .XoXXXXXoXm 6 7 7 6 6 6 6 7 B V oX XV n r Q.`.",
"/.~.@X#.  B -XoX X          B +XXXXXXXXXXXXXXX.XXX-XV   N @X~.~.",
"/.~./.W.N M w .XoXB B B B B |..X.X.X.X.X.XXXoX+X.Xv n N E.`.).).",
"/./././.@Xj    X=XXXXXXXXXXX.X.X.X.X.X.X.X+XOX=X.X  r @X~.^.^.^.",
"/./././.`.Q.!.9 O X 7 =XOXOXOXOXOXOXOXOX=Xc @ # 5 Q.!.~.I.O.O.O.",
"/./././.~.`.'.r = = t .X X.X.X.X.X.X.X.XXXk = , r `.`.~.+.......",
"/./././././.`.`.`.[.$.                    @.[.`.`.~.~.~.+...o.o.",
"/./.~.~.`./.~.~.~.`.E.z z k z k b b b b z U.`.~.~.~.`._.+...o.o."
};
