/* XPM */
static char *ae3f0625f1d0b6c97fbd5115569a19dc_removebg_preview_resized[] = {
/* columns rows colors chars-per-pixel */
"64 64 199 2 ",
"   c #010102",
".  c #0B050B",
"X  c #0A0A0B",
"o  c #090306",
"O  c #130211",
"+  c #1F0A1B",
"@  c #0B110F",
"#  c #26001F",
"$  c #13231A",
"%  c #182619",
"&  c #15321E",
"*  c #0F2415",
"=  c #270020",
"-  c #2B0021",
";  c #280C26",
":  c #32022B",
">  c #201D20",
",  c #3A0F35",
"<  c #1B2924",
"1  c #183322",
"2  c #222422",
"3  c #3A3B3A",
"4  c #392E3B",
"5  c #400033",
"6  c #284839",
"7  c #25533C",
"8  c #453644",
"9  c #45224C",
"0  c #6D1D67",
"q  c #791D6F",
"w  c #5F3460",
"e  c #633864",
"r  c #394D45",
"t  c #2C5943",
"y  c #345C4A",
"u  c #3B564B",
"i  c #3B6051",
"p  c #33684D",
"a  c #49444A",
"s  c #444544",
"d  c #4F4B50",
"f  c #524D52",
"g  c #6E586D",
"h  c #4A7962",
"j  c #576966",
"k  c #646874",
"l  c #746A77",
"z  c #737773",
"x  c #831577",
"c  c #87207D",
"v  c #0C9F66",
"b  c #0DA066",
"n  c #13A26A",
"m  c #1AA46E",
"M  c #1DA670",
"N  c #22A773",
"B  c #26A875",
"V  c #29AA77",
"C  c #3EA177",
"Z  c #5A8C78",
"A  c #579A7C",
"S  c #45906E",
"D  c #720787",
"F  c #7A128D",
"G  c #960082",
"H  c #9B0086",
"J  c #AA1E9A",
"K  c #8A2181",
"L  c #95248A",
"P  c #99258D",
"I  c #912384",
"U  c #9C2591",
"Y  c #9E249B",
"T  c #A22896",
"R  c #A52A9B",
"E  c #A7299A",
"W  c #8C15A3",
"Q  c #A31FBD",
"!  c #8A25A3",
"~  c #9A25B0",
"^  c #A020AE",
"/  c #BB33AD",
"(  c #AB24B9",
")  c #BF30B0",
"_  c #C428B7",
"`  c #CA36BB",
"'  c #C533B6",
"]  c #8A6E8C",
"[  c #876D8A",
"{  c #B914D8",
"}  c #B91BD6",
"|  c #B11BC8",
" . c #A829C2",
".. c #B427CB",
"X. c #BA26D4",
"o. c #BD24DA",
"O. c #BD2ADA",
"+. c #B526D4",
"@. c #BB35C7",
"#. c #BD29E0",
"$. c #D218CF",
"%. c #E618CE",
"&. c #E906DA",
"*. c #FA01DB",
"=. c #F30CDA",
"-. c #F90ADD",
";. c #F700DA",
":. c #EC17D5",
">. c #F615DC",
",. c #C722DA",
"<. c #C238DD",
"1. c #D423C0",
"2. c #ED3DDE",
"3. c #CA1AE3",
"4. c #FF0CEB",
"5. c #FE05E1",
"6. c #FF1BED",
"7. c #F81EE0",
"8. c #FF09F6",
"9. c #C325E2",
"0. c #C726E8",
"q. c #CA36E7",
"w. c #FB32E0",
"e. c #C646DE",
"r. c #CC65CF",
"t. c #CD5AE2",
"y. c #CD47E7",
"u. c #F951E4",
"i. c #D066E7",
"p. c #D474E7",
"a. c #D66BEA",
"s. c #FF64EA",
"d. c #FF63F6",
"f. c #3FAF80",
"g. c #3DB280",
"h. c #44B485",
"j. c #48B587",
"k. c #4AB589",
"l. c #4CBF90",
"z. c #53BC91",
"x. c #65A68B",
"c. c #65AA8D",
"v. c #66A28A",
"b. c #61BC97",
"n. c #64BD99",
"m. c #6BBE9D",
"M. c #69B798",
"N. c #70BF9F",
"B. c #6BAC91",
"V. c #73BFA0",
"C. c #6FC09F",
"Z. c #70C09F",
"A. c #71C0A0",
"S. c #78C3A5",
"D. c #7BC7A9",
"F. c #7BCDAC",
"G. c #74CBA7",
"H. c #7ED2B0",
"J. c #6DC3A1",
"K. c #95879A",
"L. c #81A99B",
"P. c #9A84A1",
"I. c #A79CA9",
"U. c #83B4A6",
"Y. c #AAA3AB",
"T. c #BDBCBD",
"R. c #B7B1B8",
"E. c #96CDB9",
"W. c #9BCFBD",
"Q. c #94CBB7",
"!. c #82D6B5",
"~. c #9CD0BE",
"^. c #A1CEBF",
"/. c #C7B7CA",
"(. c #D788E6",
"). c #DD9BEA",
"_. c #FE83EC",
"`. c #E5AEEE",
"'. c #A1CEC0",
"]. c #A2D1C2",
"[. c #A6DECB",
"{. c #A2DAC7",
"}. c #AFE4D3",
"|. c #D3CAD5",
" X c #DFC4E3",
".X c #E2D7E5",
"XX c #ECCEF1",
"oX c #EFD8F2",
"OX c #F5D9FB",
"+X c #FCDDFF",
"@X c #F0D9F3",
"#X c #E1E0E0",
"$X c #EEE2F1",
"%X c #F0E3F3",
"&X c #FFE2FF",
"*X c #FBECFE",
"=X c #F4E9F5",
"-X c #FEFDFE",
";X c #F7F3F8",
/* pixels */
"n n b m b.A.A.A.A.A.A.A.A.A.A.Z.A.A.A.A.A.A.A.A.A.A.A.A.A.Z.A.Z.A.A.A.A.A.A.A.A.A.A.A.A.A.A.A.A.A.A.A.A.Z.A.A.A.A.A.A.A.Z.A.Z.A.",
"b n b m n.A.A.A.A.A.A.C.Z.A.A.A.Z.A.A.Z.A.Z.Z.A.Z.A.A.Z.A.A.A.A.A.A.A.Z.N.A.Z.A.Z.A.A.Z.A.N.A.Z.N.A.Z.A.A.A.A.Z.A.Z.A.A.A.A.A.A.",
"b b v n b.A.A.A.A.A.A.A.A.A.A.A.A.A.A.A.A.N.A.A.A.A.A.A.Z.A.Z.A.Z.A.Z.A.A.A.A.A.A.A.A.Z.A.A.J.A.A.A.A.A.A.A.A.Z.A.Z.A.Z.A.Z.Z.A.",
"m m m N n.A.Z.A.C.C.C.m.C.A.A.Z.Z.A.A.Z.A.A.A.A.Z.A.A.Z.A.A.A.A.A.A.A.A.A.Z.A.A.Z.A.A.A.A.A.N.V.A.A.Z.A.Z.A.A.A.A.A.A.A.A.A.A.A.",
"b.b.n.n.C.A.A.C.k.h.h.k.m.A.A.A.A.A.Z.A.A.A.A.A.A.A.A.A.A.A.A.A.A.A.A.A.Z.A.Z.A.A.A.Z.A.A.Z.A.A.Z.A.A.A.A.V.A.A.A.Z.A.A.A.A.A.A.",
"A.A.A.A.A.A.A.m.h.g.g.g.n.A.A.A.A.A.A.A.A.A.A.A.A.A.A.A.A.A.Z.A.A.Z.A.A.A.A.A.A.A.Z.A.A.A.A.A.Z.A.A.Z.A.A.C.A.Z.A.A.A.A.A.N.A.A.",
"A.A.A.N.A.A.A.m.j.g.g.h.C.A.A.A.N.A.A.A.A.A.A.A.N.A.Z.A.A.A.A.A.Z.A.N.A.A.Z.A.Z.A.A.A.N.A.Z.A.A.Z.A.A.A.A.Z.A.A.m.A.A.A.A.A.Z.A.",
"A.A.A.A.Z.A.A.m.k.h.h.h.m.A.A.A.A.A.A.A.A.A.A.A.A.S.S.A.A.A.Z.A.A.A.A.A.A.A.A.A.A.A.A.A.A.A.A.Z.A.A.Z.A.A.A.A.A.A.S.S.A.A.Z.A.A.",
"A.A.A.A.A.A.A.A.C.C.m.m.C.A.A.A.A.A.N.A.A.A.A.A.E.~.~.E.S.A.A.A.A.Z.A.A.A.A.Z.A.Z.A.Z.A.A.Z.A.A.A.A.A.A.A.A.A.A.E.~.~.E.A.N.A.A.",
"A.A.A.A.A.Z.A.A.J.C.A.A.A.C.C.A.A.A.A.A.A.A.A.A.W.].].~.S.m.A.A.A.A.A.A.A.A.A.A.A.A.A.A.A.A.A.A.A.Z.A.A.A.A.A.S.W.].].~.D.N.A.A.",
"m.A.A.Z.Z.A.A.N.m.A.A.A.A.A.A.A.A.A.A.A.Z.A.m.S.W.].].W.S.m.V.N.A.N.m.A.A.Z.A.Z.A.Z.A.Z.A.Z.A.N.Z.A.A.Z.A.A.A.S.~.].].W.S.N.A.N.",
"A.S.S.A.A.A.A.A.A.A.A.Z.m.n.m.m.C.A.Z.A.A.A.A.S.W.~.W.W.S.A.J.N.A.S.A.S.A.A.A.A.A.A.A.A.A.A.A.A.A.A.A.A.Z.A.A.A.E.~.~.W.S.Z.A.A.",
"W.W.W.E.S.Z.A.A.A.A.A.n.V m N B m.A.A.A.A.A.A.A.S.S.S.S.A.A.A.S.E.~.W.E.S.m.A.V.A.A.A.Z.A.A.A.A.A.A.A.Z.A.A.Z.A.S.S.S.S.A.A.A.Z.",
"].].].~.S.Z.A.A.A.A.A.m.M b b m n.A.Z.A.Z.A.A.Z.m.A.C.V.A.A.N.S.W.].].~.S.A.A.A.A.Z.A.A.Z.A.A.Z.Z.A.A.A.A.Z.A.A.N.Z.A.m.Z.A.A.A.",
"].].].~.S.Z.A.A.Z.A.A.m.m v b m n.A.C.A.A.A.A.A.A.A.A.A.A.A.m.S.W.].].W.S.A.A.A.A.A.A.Z.A.A.Z.A.Z.A.A.Z.A.A.A.A.A.A.A.A.Z.A.A.Z.",
"W.~.~.W.S.Z.A.A.A.Z.A.m.B m m N n.A.A.Z.A.A.A.Z.A.A.A.A.A.A.N.S.E.~.~.W.S.m.A.A.A.Z.A.A.A.A.A.A.A.A.A.A.A.Z.A.A.Z.A.A.A.A.A.A.A.",
"S.S.S.S.A.Z.A.A.A.Z.A.N.n.n.n.n.Z.A.A.A.A.A.A.Z.A.A.A.A.A.A.A.A.S.S.S.S.A.A.A.A.A.A.A.A.Z.A.A.Z.A.A.A.A.A.N.A.A.A.Z.A.Z.A.Z.A.A.",
"A.m.A.m.A.A.Z.A.A.A.A.A.A.A.A.A.A.A.A.A.A.A.A.A.A.A.A.Z.V.m.N.N.m.N.m.m.A.A.Z.A.Z.A.Z.A.A.A.A.A.N.A.A.Z.A.A.A.A.A.A.A.A.A.A.Z.A.",
"A.A.A.A.A.A.A.A.A.Z.A.A.A.A.A.A.A.A.A.A.A.A.A.Z.A.N.N.V.S.G.G.A.S.S.S.G.Z.A.V.V.A.A.Z.A.A.A.Z.Z.A.A.A.A.A.A.V.J.A.A.A.A.A.A.A.A.",
"A.A.A.A.A.Z.A.A.A.A.Z.A.A.A.A.A.m.m.m.C.Z.A.A.A.A.Z.N.N.c.c.x.x.x.c.c.c.Z.N.N.V.A.A.A.A.A.Z.Z.Z.C.m.m.m.Z.A.N.A.A.Z.A.Z.A.N.A.A.",
"A.A.A.A.Z.A.A.Z.Z.A.A.A.A.Z.J.m.k.j.j.k.m.A.A.m.A.D.S.D.<   . . . .   < F.D.D.V.N.Z.Z.Z.A.Z.A.C.k.h.h.k.m.A.A.A.A.A.A.N.A.A.A.A.",
"A.Z.A.A.A.A.A.A.A.A.A.Z.A.N.A.C.j.j.V j.m.Z.N.!.h * 1 & ! | Q  .( Q  .! 1 2 * h !.N.Z.A.A.Z.A.Z.h.g.g.h.m.A.A.A.Z.A.A.A.A.Z.C.A.",
"A.Z.N.A.A.Z.A.Z.A.A.A.Z.A.Z.A.m.h.C V j.C.Z.A.i c G G G } 0.9.9.9.#.3.&.x H x e p S.S.Z.A.A.Z.C.h.g.g.h.m.A.A.A.A.A.A.A.A.A.A.A.",
"A.A.A.A.A.A.A.A.Z.A.A.A.A.A.Z.C.l.h.h.h.C.m.Z 6 _ 8.4.4.,...+.o.o.{ 2.s.d.6.>.J , Z N.Z.Z.Z.Z.Z.k.h.h.k.m.A.A.A.A.A.Z.A.A.Z.A.A.",
"A.A.A.Z.Z.A.A.A.A.Z.A.A.A.A.A.C.C.C.C.C.A.v.# C.r.;.=.=... ...o.O.&._.-X-Xw.;.:./ X x.S.Z.Z.A.Z.m.m.m.m.Z.A.A.A.C.A.V.C.A.N.V.A.",
"Z.A.A.A.A.A.A.Z.A.A.Z.A.A.A.A.A.C.C.C.C.G.L.I %.>.-.=.O. . .@.o.+.&._.-X-X2.-.%.R @ v.S.Z.Z.Z.Z.A.A.A.A.A.A.Z.A.A.A.A.A.A.J.A.A.",
"Z.A.A.A.Z.A.A.Z.Z.A.A.A.A.Z.Z.N.C.C.C.G.S w %.-.5.%._ { o.} +.,.o.&.w.u.u.>.-.%./ P U.G.Z.Z.Z.Z.A.J.Z.A.A.A.A.Z.A.A.A.A.A.A.Z.A.",
"A.A.A.Z.A.A.A.A.A.A.A.A.S.A.S.S.Z.C.C.F.7 5 4.-.%.1.@.).#.t.p.{ o.3.&.*.;.-.5.%./ 1.k A G.S.S.A.V.N.A.A.Z.A.A.A.A.Z.A.Z.A.Z.A.A.",
"A.A.A.A.Z.A.A.A.A.A.A.A.E.~.W.E.S.C.Z.F.7 5 >.%._ @.i.XXt.).`.<.O.+.3.=.-.-.=.1./ ' # 7 {.W.~.E.S.A.A.A.Z.A.A.Z.A.A.A.A.Z.A.A.Z.",
"Z.V.A.A.A.A.Z.A.A.A.m.S.W.].].~.S.C.C.F.t : ' ' } a.@X{ XXp.e.=X<.o.O.,.-.-.1./ ' ` : y [.^.].~.S.m.A.A.A.A.A.A.N.A.Z.A.A.A.A.A.",
"A.Z.A.Z.Z.A.Z.A.Z.A.N.S.W.].].~.S.C.C.F.t - R @.{ p.%X} oXp.y.;X<.} ,...T _ ` ' / R # y [.W.].~.S.Z.A.A.Z.A.A.Z.A.A.Z.A.Z.A.A.Z.",
"A.A.A.A.A.A.A.A.A.A.Z.A.E.~.~.E.S.C.C.F.t - ^ X.} e.i.0.a.y.q.p.O.,.9...I T T T T R # y {.W.W.E.S.N.A.A.A.A.A.A.A.A.A.A.A.A.A.A.",
"A.A.A.A.A.A.Z.A.Z.A.A.A.A.S.S.S.A.Z.N.F.y O 0 ( o.} } F D D W 3.#...( ( L P P P L 0 O y !.V.S.S.A.A.J.N.A.A.V.A.A.J.A.Z.A.Z.A.A.",
"A.Z.A.A.Z.A.A.A.A.A.A.Z.A.Z.N.Z.Z.Z.m.F.y     q ^ ..~ 2 % * 9 +.+.Y I L L K c K q     y D.m.C.V.C.A.V.V.A.Z.C.A.V.N.A.A.A.A.Z.A.",
"Z.A.A.Z.A.A.Z.A.A.A.A.A.A.A.A.A.A.A.N.F.y     . O . 4 @X;X-XY.. L U U U U ; o . o     i F.m.A.A.A.A.A.C.A.A.A.A.A.A.A.A.A.A.A.A.",
"A.A.A.A.Z.A.A.A.A.Z.A.A.A.A.A.Z.A.A.V.A.M.Z o z 2   3 ;X-X-XR.  ; ; ; ; ;     2 z X Z m.A.V.A.A.Z.A.A.A.A.Z.A.A.A.Z.A.Z.A.Z.A.A.",
"A.A.A.Z.A.A.A.A.A.Z.A.A.A.Z.A.V.Z.A.A.N.G.c.o |.R.8 > -X-X-XR.            s l I./.o S l.m.A.Z.A.A.A.A.A.Z.A.A.Z.A.A.A.A.Z.A.A.Z.",
"Z.A.A.A.Z.A.Z.A.A.A.Z.A.A.A.A.A.A.A.A.N.A.B.r I.-X'.f R.T./.K.s a a a a d Y.$XoXP.7 C g.m.A.A.A.Z.A.A.Z.A.A.A.A.A.A.A.A.A.A.A.A.",
"Z.A.A.V.A.A.A.A.A.A.A.A.A.Z.A.A.A.A.Z.A.Z.S.S.@ I.-X#X+ X   f -X*X*X*X*X*X$XXXK.@ g.g.h.m.N.Z.A.A.A.Z.A.A.A.A.A.Z.N.A.Z.A.N.A.Z.",
"A.A.A.Z.A.Z.A.Z.A.Z.A.A.A.A.Z.A.A.Z.A.A.Z.C.m.D.u g *X%X.X.X.X$X$X$X$X@XXX+Xg r z.f.h.k.m.A.A.Z.A.A.A.A.Z.A.Z.A.A.S.S.A.A.A.A.A.",
"A.A.A.A.A.A.V.A.A.N.A.A.A.Z.Z.A.A.Z.Z.A.A.A.N.D.U.k 8 d  X*XOXOXOXOX&X/.8 8 j c.J.m.m.m.Z.A.A.A.A.A.Z.A.A.A.A.A.E.W.~.E.S.C.Z.A.",
"A.A.A.A.A.A.A.A.A.A.A.A.A.A.A.A.A.A.A.A.A.A.N.V.[.L.6 d l ] [ ] ] [ ] k 7 6 A D.m.V.V.V.A.Z.Z.A.Z.A.A.A.A.A.A.S.~.].].~.S.C.A.Z.",
"Z.A.A.A.A.A.Z.A.Z.A.Z.A.A.A.A.A.A.A.A.A.Z.Z.Z.S.E.{.}.}.6 * < $ < < $ r H.H.S.N.N.V.J.N.A.A.A.A.A.A.Z.A.Z.A.A.S.~.].].~.S.C.A.A.",
"A.S.S.A.A.Z.A.A.A.A.A.A.Z.A.A.Z.Z.A.A.Z.A.Z.N.S.E.W.W.Q.Q.S.S.D.D.D.D.D.N.N.m.A.A.J.V.N.m.n.m.n.C.A.V.A.A.A.A.A.Q.~.~.E.S.C.A.A.",
"W.W.~.E.S.Z.A.A.A.A.A.A.A.A.A.A.Z.A.Z.A.A.A.A.A.S.S.S.S.A.N.N.A.Q.~.W.E.S.m.A.N.A.J.A.m.B m m B n.A.A.A.A.A.A.A.A.S.S.S.A.Z.A.A.",
"].].].~.S.Z.A.A.Z.A.Z.A.A.A.Z.A.A.A.A.A.Z.A.A.A.C.C.m.A.A.A.N.S.W.].].~.S.A.A.A.V.V.A.m.m v b m b.A.A.A.A.A.Z.A.A.A.m.N.Z.A.A.A.",
"].].].W.S.Z.A.A.A.A.A.A.Z.A.A.Z.A.A.A.A.A.Z.Z.A.A.A.A.A.A.A.A.S.W.].].~.S.A.A.A.J.m.A.n.m b b m n.A.A.A.A.A.A.A.A.A.A.A.A.A.Z.A.",
"~.~.~.W.S.Z.A.Z.A.Z.A.Z.A.A.A.A.A.Z.Z.A.A.A.A.A.C.V.A.A.A.A.m.S.E.~.~.E.S.m.A.A.N.V.A.m.B m m N n.A.Z.A.A.A.A.A.A.A.Z.A.A.Z.A.A.",
"S.D.S.A.A.A.A.A.A.Z.Z.A.A.Z.A.A.J.N.V.A.Z.A.A.Z.A.A.Z.A.A.Z.A.A.S.S.S.S.A.A.A.A.A.A.A.A.n.n.b.n.Z.A.A.A.A.A.A.A.A.Z.A.N.A.A.A.Z.",
"m.Z.Z.N.A.A.Z.A.A.A.A.A.A.A.N.A.C.C.A.A.A.A.A.A.A.A.A.A.A.A.A.Z.Z.N.A.m.A.A.Z.A.Z.A.A.A.A.A.A.A.A.A.A.Z.Z.A.Z.A.A.A.A.A.A.A.A.A.",
"A.A.A.A.A.Z.A.A.A.A.A.A.A.A.A.A.C.J.A.J.Z.A.A.Z.A.A.Z.A.Z.A.Z.A.A.A.A.A.A.A.A.Z.A.A.A.A.A.A.Z.A.A.A.A.A.A.A.A.Z.A.A.A.A.Z.A.A.Z.",
"A.A.A.A.A.A.A.N.Z.A.A.Z.A.A.A.Z.C.C.C.C.Z.A.A.A.A.Z.A.A.A.A.A.A.Z.A.A.A.Z.A.A.A.A.A.A.A.A.A.A.Z.m.m.C.m.Z.A.A.A.A.Z.A.Z.A.A.A.A.",
"A.A.Z.A.A.A.A.A.Z.A.Z.A.Z.Z.A.m.l.h.h.j.m.A.A.Z.A.Z.Z.A.A.A.A.A.A.Z.A.A.Z.A.A.A.Z.A.Z.A.A.A.A.C.k.h.h.l.C.J.A.A.Z.A.A.A.A.A.A.A.",
"N.A.A.A.Z.A.A.A.A.A.A.A.A.A.A.m.h.g.g.h.m.A.C.A.A.A.A.A.A.Z.Z.A.A.A.Z.A.A.A.A.Z.A.A.A.A.A.A.A.m.h.g.C h.m.J.Z.A.A.A.A.N.A.Z.Z.A.",
"A.A.A.A.A.Z.A.Z.A.A.A.A.A.A.A.m.h.C g.h.m.A.A.A.A.A.A.A.A.N.A.A.A.A.A.A.Z.A.A.Z.A.Z.Z.A.A.A.A.m.h.g.g.h.m.A.J.A.A.A.A.A.A.A.A.A.",
"A.A.A.Z.A.A.A.A.Z.A.Z.A.A.A.A.C.k.h.h.h.m.A.Z.A.Z.A.A.Z.A.A.A.A.A.Z.A.A.A.A.A.A.A.A.A.A.A.A.A.m.k.h.h.k.m.C.N.A.Z.A.A.A.Z.A.Z.A.",
"A.Z.A.Z.A.A.V.A.A.A.A.A.A.Z.A.Z.m.m.m.m.C.A.Z.A.A.A.A.A.Z.A.A.A.Z.A.N.A.A.A.Z.A.A.A.Z.A.Z.A.A.A.m.m.m.m.Z.A.A.A.A.A.V.N.A.A.A.A.",
"A.A.A.A.A.A.C.A.Z.A.Z.A.A.A.A.A.A.A.A.A.A.A.A.A.A.A.Z.A.A.A.A.N.A.A.A.A.A.A.A.A.A.A.A.A.A.A.A.A.A.A.A.A.A.Z.A.A.A.Z.J.A.A.A.A.Z.",
"A.A.A.A.Z.A.Z.A.A.A.Z.A.A.A.Z.Z.Z.A.A.A.A.A.C.A.Z.A.A.Z.A.A.A.A.A.A.A.A.A.Z.Z.A.A.A.A.A.Z.A.A.A.C.J.Z.A.A.A.A.A.A.A.A.A.A.A.A.A.",
"A.Z.Z.A.A.A.A.A.A.A.A.A.A.A.S.S.A.A.A.A.A.A.A.A.A.A.A.A.A.Z.A.A.Z.A.Z.A.A.A.A.A.A.A.A.A.S.A.S.A.A.N.A.A.A.Z.A.A.m.m.m.C.m.A.A.Z.",
"A.A.A.A.A.A.A.V.A.A.A.A.E.~.W.W.A.A.A.A.A.A.A.A.Z.A.A.N.A.Z.A.Z.A.Z.A.A.A.A.A.A.A.A.C.A.E.~.W.E.S.Z.A.A.A.A.A.m.k.h.h.l.m.A.A.A.",
"A.Z.Z.A.A.N.J.N.A.A.A.S.W.].].W.S.Z.A.A.A.Z.A.Z.A.A.A.A.A.A.A.A.A.A.A.A.Z.A.A.Z.A.A.Z.S.~.].].~.S.N.A.A.A.Z.A.m.h.g.g.g.m.A.A.A.",
"A.A.A.A.A.A.A.A.A.A.A.A.W.].].W.S.C.A.Z.A.Z.A.A.A.A.A.A.Z.A.Z.A.A.A.A.N.Z.A.A.A.A.A.Z.S.W.].].W.S.Z.A.A.A.A.J.C.j.g.g.h.m.A.A.A.",
"Z.A.Z.A.A.A.A.A.A.A.A.A.W.].].~.S.N.A.A.A.A.A.A.Z.A.Z.A.A.A.A.A.A.Z.A.A.A.A.A.Z.A.A.Z.A.W.].].~.S.N.A.A.N.J.A.J.h.g.C h.C.A.A.A."
};
