/* XPM */
static char *d51oedb_6021332c_fbb9_4c71_95e9_3489d4b770cd_2__removebg_preview_resized[] = {
/* columns rows colors chars-per-pixel */
"64 64 243 2 ",
"   c #010001",
".  c #03050A",
"X  c #090A0D",
"o  c #07090B",
"O  c #190905",
"+  c #030C14",
"@  c #0A0D12",
"#  c #030C19",
"$  c #0B1114",
"%  c #0A151C",
"&  c #0A161B",
"*  c #12151A",
"=  c #0A110D",
"-  c #2E1107",
";  c #0A1825",
":  c #151826",
">  c #161C32",
",  c #130E20",
"<  c #17272A",
"1  c #182637",
"2  c #122934",
"3  c #25293C",
"4  c #39393D",
"5  c #293134",
"6  c #3B201D",
"7  c #451B0A",
"8  c #592916",
"9  c #4F2615",
"0  c #622D15",
"q  c #642F19",
"w  c #6C321A",
"e  c #67301A",
"r  c #72351D",
"t  c #52312A",
"y  c #6F2B24",
"u  c #702D26",
"i  c #76312C",
"p  c #653735",
"a  c #264035",
"s  c #6E4533",
"d  c #41433F",
"f  c #192A41",
"g  c #11334D",
"h  c #272E44",
"j  c #28344A",
"k  c #383A47",
"l  c #2B3451",
"z  c #283A56",
"x  c #333C5B",
"c  c #323955",
"v  c #252A51",
"b  c #1E3963",
"n  c #343F62",
"m  c #293E63",
"M  c #184358",
"N  c #335051",
"B  c #3B6A58",
"V  c #38604F",
"C  c #174874",
"Z  c #2B4C64",
"A  c #3A4364",
"S  c #3D4769",
"D  c #3A486B",
"F  c #3D4B73",
"G  c #325572",
"H  c #366973",
"J  c #1C776E",
"K  c #524F53",
"L  c #6C514A",
"P  c #44725C",
"I  c #6F6C50",
"U  c #434868",
"Y  c #49556A",
"T  c #555968",
"R  c #424D73",
"E  c #404A75",
"W  c #45527A",
"Q  c #4A547C",
"!  c #555C73",
"~  c #524662",
"^  c #497C65",
"/  c #46677B",
"(  c #4A7778",
")  c #516A70",
"_  c #6B6E76",
"`  c #6E7171",
"'  c #95390E",
"]  c #933F30",
"[  c #8E3C2E",
"{  c #AF4B1B",
"}  c #AC4E31",
"|  c #995330",
" . c #C55630",
".. c #F17A3C",
"X. c #CC642F",
"o. c #814E52",
"O. c #BD514A",
"+. c #AE5252",
"@. c #8F6755",
"#. c #AE6646",
"$. c #825D73",
"%. c #C74E43",
"&. c #C45249",
"*. c #D55952",
"=. c #D85950",
"-. c #CB5B53",
";. c #CD724D",
":. c #EE7B4B",
">. c #10A168",
",. c #1AA46E",
"<. c #35AF7C",
"1. c #368F6D",
"2. c #4E846C",
"3. c #558A75",
"4. c #579176",
"5. c #59967C",
"6. c #4E8A72",
"7. c #64907A",
"8. c #F68953",
"9. c #F28C61",
"0. c #FA9867",
"q. c #E98C62",
"w. c #FFAD78",
"e. c #FFA370",
"r. c #13578A",
"t. c #285981",
"y. c #1B678F",
"u. c #346A8D",
"i. c #3D7EA1",
"p. c #246DA4",
"a. c #485681",
"s. c #4B5985",
"d. c #4D5C8C",
"f. c #475682",
"g. c #515D8E",
"h. c #5A5D88",
"j. c #4E5F90",
"k. c #515F90",
"l. c #486689",
"z. c #4E6293",
"x. c #4D6A99",
"c. c #516293",
"v. c #55689A",
"b. c #47729B",
"n. c #49708A",
"m. c #6F6F8C",
"M. c #4E75A2",
"N. c #4C79A5",
"B. c #4A7EAA",
"V. c #557CAC",
"C. c #887080",
"Z. c #3DB280",
"A. c #3A84A7",
"S. c #3E91B6",
"D. c #36879D",
"F. c #5C9B88",
"G. c #559089",
"H. c #748B8E",
"J. c #5FA388",
"K. c #49B588",
"L. c #47B587",
"P. c #5ABA93",
"I. c #56B190",
"U. c #66A78B",
"Y. c #67AB95",
"T. c #6EBD9D",
"R. c #6AB699",
"E. c #70BE9F",
"W. c #75B69A",
"Q. c #7BAA99",
"!. c #4B82AD",
"~. c #4C86B1",
"^. c #488AB3",
"/. c #4493BA",
"(. c #4993BB",
"). c #5192BF",
"_. c #7097AC",
"`. c #71BFA0",
"'. c #6FA8B6",
"]. c #6CC19E",
"[. c #67C39C",
"{. c #70C09F",
"}. c #6EC6A3",
"|. c #71C0A0",
" X c #7AC3A6",
".X c #7CC4A8",
"XX c #77CAA9",
"oX c #79CDAB",
"OX c #77CAA7",
"+X c #7AD1AD",
"@X c #7BD2B0",
"#X c #3FA2CE",
"$X c #459DC5",
"%X c #499EC6",
"&X c #489BC6",
"*X c #519CC3",
"=X c #49A0C7",
"-X c #46A3CA",
";X c #48A1C9",
":X c #47A0C7",
">X c #4BA7D2",
",X c #58AED4",
"<X c #6AB9D8",
"1X c #76BCD5",
"2X c #6BACC6",
"3X c #5EBCE3",
"4X c #7DC5DD",
"5X c #76C0DB",
"6X c #79C9E5",
"7X c #8E8E8E",
"8X c #85888A",
"9X c #918D8F",
"0X c #8F8F90",
"qX c #918E90",
"wX c #8D9492",
"eX c #889A94",
"rX c #919191",
"tX c #979999",
"yX c #8F908F",
"uX c #86A699",
"iX c #8FB5B1",
"pX c #A2A1A1",
"aX c #ABB7B6",
"sX c #8B99A0",
"dX c #8ECAB5",
"fX c #97CDBA",
"gX c #9ACEBC",
"hX c #9DD1BE",
"jX c #94D0B8",
"kX c #85CBAF",
"lX c #83C8DF",
"zX c #81C7DE",
"xX c #9DD7C2",
"cX c #A2D1C2",
"vX c #A8DAC8",
"bX c #A6CBC7",
"nX c #82CAE2",
"mX c #82CFE9",
"MX c #84D3ED",
"NX c #86D7F2",
"BX c #ADE1CF",
"VX c #FAFBFB",
"CX c #C0DDD9",
/* pixels */
">.>.>.,.P. X{.{.|.|.{.|.|.|.|.{.{.{.{.{.|.{.|.|.|.|.{.T.[.{.Y.Z b n n A A z b b g H `.R.T.|.{.{.{.{.{.{.|.|.{.{.|.|.{.{.{.{.|.|.",
">.>.>.,.P.|.{.|.|.{.|.|.E.|.|.|.{.{.|.|.|.{.{.}.].OX3.= * ; Z r.S./././././././.p.r.l $ 5  X{.{.{.{.{.{.{.|.|.|.|.{.E.E.{.|.|.{.",
">.>.>.,.P.|.].{.{.|.].|.|.E.E.|.{.{.{.{.E.{.+XB 2 Z C r.A.r.Z + % % % ; % % % ; + f y.u.A.M < [.OX{.{.{.{.|.{.{.|.{.|. X|.`.{.|.",
",.,.,.,.R.|.`.].].T.].T.|.|.|.|.{.{.{.T.kXV 5 C r.p.C # ; 2 Y.7.3.4.4.4.4.4.4.3.3.I.6.# g G G Z < R.OX{.{.{.{.{.{.|.|.{.{.|.{.|.",
"R.P.P.P.T.|.].T.P.K.L.I.T.].|.|.`.`.T.+XV g r.b + Z Y.2.^ 6.{.oXXXXXXXXXoXXXXXXXXXXXU.^ 4.G.2 C Z 5 Y.}.].{.{.{.{.|.{.E.|.|.|.|.",
" X|. X|.|.|.].[.L.Z.<.L.T.].E.|.`.`.@XN g r.C H 2.5.OXoXoXOX{.{.E.E.E.T.T.E.E.E.E.E. XoX+XW.6.F.2 a a J.OX{.{.{.|.|.{.E.|.E.E.|.",
"].].|.E.|.|.`.R.L.<.Z.K.T.E.|.|.T.|.V g C u.3.Y.+XOX{.{.{.{.{.{.`.|.E.|.|.E.`.|.|.|.].T.].|.oXE.P H . G.+XT.T.T.E.{.E.E.|.|.|.|.",
"|.|.|.|.`.|. X}.P.L.K.K.[.|.|.{.R.G.g J ( R.oX|.{.{.kX{.{.{.{.{.`.|.|.|.|.|.|.{.`.|.|.|.|.|.T.|.oX2 ; N U.OXOXoX.X XkX X|.E.|.|.",
"{.{.{.{.].U.5.6.I.}.[.R.].|.|.|.].2 p.f 6.+XT. XdXgXgXdX.X{.{. X|.E.|.|.|.|.{.{.|.|.{.|.|.|.|.`.G.5 C . 6.J.H 2.Q.xXfXdX X{.{.{.",
"{.{.{.{.OXV N ^ ^ 4.U.+X|.{.{.{.G.2 M a F.}.E..XfXcXcXfX.X{.{.{.|.|.|.|.{.|.|.|.|.{.E.|.|.T.|.T.l @.h.> B Z N < ) BXcXgX XE.{.{.",
"{.{.{.T.OXP 5 B ( B N G.J.XXoXR.1 r.  5.+XT.]. XfXcXcXgXOX{.{.{.E.`.T.].|.|.|.|.|.|.|.|.|.|.T.G.o #.K s.l.u.H 5 7.vXcXfX X|.|.{.",
"kX X X X].+X^ & H 2Xu.N Z 4.F.I.= g 5 J.OXT.E. XdXgXgXjX{.{.{.{. X X X X|.{.|.|.|.E.|.|.T. XR.l : G l.2X6Xt.; 3.hXdXgXdX X{.|.|.",
"fXgXgXfX XE.+X^ * C ,X<XJ b g J o   U.OX{.{.{.{.{.OX X{.{.{.{.{.fXgXfXfX XT.|.|.E.E.E.|. X{.F.Q l.1X4X,Xy.; 6.@XE. X X X|.{.|.|.",
"hXcXcXgX X{.E.oX^ ; G $X,X<XJ M @ X U.XX{.{.OX{. X{.{.{.{.{.{. XhXcXcXhX.X].|.|.|.OX XE.Y.F./ zX4X=X-X/.2 6.+XT.|.{.{.{.{.{.|.{.",
"cXcXcXhX X{.{.E.oX^ : t.$X>X5X1XY Z F.R.{.W.R.U.W.{.{.{.{.{.{.{.hXcXcXgX X{. XE.U.Y.W.F.U l.4X5X-X-XS.< 1 F. XE.{.|.|.|.|.|.|.{.",
"hXhXhXgX X{.{.{.{.OX( # J %X=X=X5XD.D A F.I r r I {.W. XOX{.{.{.hXcXcXhX.XR.{.I r r t n.6X1X%X=X=XS.; D > 2.oXE.{.|.`.|.{.{.|.|.",
"E.`. X|.{.{.|.|.{.E.OX2.# G (.v.%X%X1X(.H t #.0.#.0 I [.[.[.[.W.{.{.].[.].I e #.e.} L <X=X*Xx.&Xz.; D.F 4.|.`.`.|.`.`.|.|.|.|.|.",
"E.`.{.E.{.|.|.{.|.E.|.|.2.# t.(.x.x.*X%X2X1X$.{ 8.q.;.9 = * & & = & & & t ;.q.0.X.` 5X).c.b.).k.: S %X2 6.XX`.`.|.|.|.|.T.|.|.|.",
" X{.{.|.|.|.{.|.|.{.{.|.}.2.: x.c.k.x.x.).,X=XT { 8...{ t D.A.A.A.A.A.t { ....{ ) -X).z.g.c.l.* j A %X; 2.XXT.`.`.`.|.`.|.|.`.|.",
"E.{.{.|.E.{.|.`.|.|.|.E.XXU.  : a.c.k.k.z./.( #.9.....X.L 6X6X6X4X4X6Xs ;...8.;.[ ( (.g.c.d.@   x a.1 ^ R.|.`.|.|.|.|.|.|.|.T.|.",
"E.|.|.E.|.|.E.|.|.|.{.].OXT.1 X iXv.U s.N.#XK { 8.8.8. .L nXzXnXlXnXmXL X.8.8.8.} K &Xg.f., c aXU j.X 1.XX`.`.|.|.E.{.|.|.|.].`.",
"|.|.|.|.|.|.|.|.{.|.E. XJ.5 Z o K B.D b.<X5X'.I X.8...X.s nXzXzX4X4X6Xs X.0... .@.2X<X_.F f N.T p p   1.}.`.|.|.|.|.|.`.|.`.`.|.",
"|.|.|.|.|.{.|.E.{.|.E.XX6.  D   , S.d.*XnXlXMX2X@.| ' | _.6XzXzXnX4XlX_.#.' ' L 2XMXnX6X_.l./.; O [ h 1.[.`.`.`.|.|.|.|.|.T.|.|.",
"|.{.|.E.|.|.|.|.{.{.{.OXF.1 s.h b.i.h.1XnXzXlXNX'._ ` _.MXzX6XnX4XlX4XNX_._ _ iXMX1XnXnX1Xd.b.b.h ;.L 6.[.`.`.`.|.T.|.|.|.|.|.`.",
"|.|.|.|.{.|.|.|.|.|.E. XU.z a.j /.D b.5XnXnXnXlXnXNXMXmXlXzXlXnXlXlX6XzXmXMXMXmXzXnXnXnX1Xb.D /.k ;.' F.OXE.|.E.|.|.|.|.E.|.|.E.",
"E.|.|.E.|.|.E.|.|.E.T.OXF.j a.o S.z b.<X<X<X<X<X5XlXlXnXnXnX6X6X6X6XnXnXlXlXlX5X<X<X<X<X<Xb.z S.o X.s U.OXT.|.|.|.|.`.|.|.|.|.|.",
"|.|.|.|.E.|.|.E.|.|.].|.Y.H l @ B.# S (.-X$X$X$X,X1X1X<X3X1XaXaXaXaX5X<X<X<X1X,X$X$X$X-X&XU # B.$ ;.~ F.|.|.{.|.|.].`.|.{.|.|.|.",
"|.|.E.|.|.|.|.|.|.|.|.|..XW.X X Q $ l.&X-X=X-X=X$X$X$X%X_.sX0.0.0.0.eX'.*X$X$X$X=X=X:X=X&Xf.% Q X o.) Y.|.T.|.`.`.|.|.`.|.|.|.E.",
"E.|.|.|.E.|.|.|.|.|.E. XjXiXc o f.@ B.-X=X=X=X=X=X-X>XtX9.0.0.0.e.0.0.9.tX>X-X$X=X=X=X$X;XA.$ f.. 3 R.|.E.|.|.|.`.|.|.`.|.|.|.|.",
"|.|.|.|.|.|.|.E.E.|.T. XgXdXc * s.: n ^.-X-X=X%X%X$XsX:.-.9.9.9.9.9.9.&.:.tX$X=X=X%X-X-X~.A : s., X U. XT.|.|.|.|.|.`.].E.|.|.E.",
"{.|.{.E.|.|.|.|.|.|.E. XcXiXS l.x d.@ S ).&X&X%X#XH.%.&.&.O.+.+.+.+.O.&.O.%.m.>X=X%X&X).R @ s.x d.S Y.|.`.|.E.|.|.E.`.|.|.|.|.|.",
"|.`.|.|.E.|.{.|.|.|.E. XhXiXS s.@ W * D d.d.~.%X-Xm.%.&.%.+.k.k.g.k.+.%.O.%.H.>X%X~.d.d.A : W X s.S Y.|.E.|.|.|.|.|.|.|.|.|.T.|.",
"|.|.E.|.E.|.|.E.{.|.|.{.OXY.D s.o k d.:   n x.z.$.&.&.%.+.k.k.k.k.c.k.+.&.O.&.$.x.c.A   > d.c o s.S Y.|.`.|.|.].`.|.|.|.|.|.E.|.",
"E.|.|.|.|.|.|.|.|.{.|.{.|.Y.D ^.+ o x W a.3 . f o.%.O. .+.z.k.k.k.k.x.+.&.O.*.L 1 o 1 a.W c . o s.S Y.|.E.|.`.|.|.`.E.|.{.|.|.|.",
"|.|.|.{.|.|.{.|.|.E.{.{.OXY.A A .   . x R R R f.a.4 O O * @ @ @ @ @ @ O O O 4 Q f.R E R x o   . x A Y.OX|.|.|.`.|.|.`.|.E.|.|.E.",
"|.|.|.|.E.|.|.|.|.|.{.{.|.U.< D.o     X o c W S d.> N tX  E F S R S E   tXk f a.S W c X X     o N.< J.|.T.`.|.|.`.|.|.{.|.|.|.|.",
"E.|.].`.|.{.|.|.|.|.|.E.XXJ.% S.+         @ $ 3 E n c ~ c Q Q W Q W Q c K k n Q 3 @ @         + S.& J.XX].|.`.|.|.`.|.|.|.T.|.|.",
"|.|.`.|.|.{.|.E.|.E.|.|.R.T l 2XX             . , # .   % # + # # # + ;   . % # .         X 1 @ '.z Y R.|.].|.|.|.|.|.|.|.|.|.|.",
"|.`.|.|.|.|.|.|.|.|.E.oXF., '.1X@ > .   9 i i u y y y i y y y w y y u y i u y y y i u 9   + c @ 1X'., 5.oXE.`.`.E.].`.E.|.`.|.|.",
"{.|.|.`.{.|.|.|.|.|.|.Y.( ( nX1X@ c p 8 +.*.*.*.*.*.*.*.*.*.*.=.*.*.*.*.*.*.=.=.*.=.=.+.y t k $ 1XmXn.( R.|.`.|. X.X.X X|.].|.`.",
"|.|.|.|.{.{.|.|.`.`.oX3.h NX6X5X@ c -.=.&.} [ ] ] ] ] ] ] ] ] ] ] ] ] ] ] ] ] ] ] [ } &.=.-.l $ 5XnXNXj 3.@XT. XdXfXgXdX X{.|.|.",
"`.|.|.|.|.|.|.E.`.`.R.H G nX6X2X@ h p ] } u 8 q 0 0 0 0 0 e 0 0 0 0 0 e 0 0 0 0 0 0 u } ] p G $ '.nXnXZ / R.`..XfXcXcXfX X{.|.{.",
"T.{.{.{.E.|.|.|.T.@X6.b 3XlX<XS.@ D ; - 8 w w w e w w e 0 - w w w w w 7 8 w w r w w w 8 - 2 S.$ S.5X4X3Xz 3.XX.XfXcXcXfX X|.|.|.",
" X X X X|.|.|.E.`.`.B j ,X<X:X!.@ S.b.> - 0 8 8 r 8 8 0 t K 9 w 9 e 7 K t 0 8 8 r 8 9 - : b.A.& _.#X<X>XZ H T..XdXfXhXdX X{.|.{.",
"gXfXgXfX X{.|.E.XX( v V.-X-X&XQ o A.>Xl.1 t * - 8 - O - 5 aX  7   7   pXK - O O q 6 + 3 n.>XA.O q.uX'./.-Xb ( oX|. X X X|.|.|.{.",
"cXcXcXgX.X{.|.T.oXB , V.-X-X(.h $ S.>X:X>Xn.F j & & & & * # * ; ; % & # % # & & j F u.>X-X>XA.* q.0.0.$.m.: B @XE.{.{.{.{.{.|.|.",
"cXcXcXcX.XE.`.E.@XP , N.&X&Xi.* x (.-X=X:X=X-X:X:X:X$X=X%X%X%X%X%X=X%X=X$X$X=X:X:X:X:X:X$X-X/.U q.0.e.0.e.9 B +XE.E.`.|.E.|.{.|.",
"hXhXhXgX XT.|.E.oXP : v.c.U ; s.D (.-X%X:X:X-X:X=X=X=X=X=X=X-X-X=X=X=X=X:X:X=X=X:X:X:X:X:X-X/.U +.q.9.0.e.9 B oXE.|.|.|.|.|.{.|.",
"|.|.|. XE.E.E.W.U.! U v.S * d.k.A /.>X=X:X=X=X=X=X=X-X%X-X%X-X$X=X%X-X=X=X$X=X=X%X-X=X=X=X-X(.A h.+.&.q.0.L Y U.OXE.{.{.{.{.{.{.",
"|.`.E.E.{.F.( H.wX_ n j : a.k.d.A /.-X=X=X:X=X%X=X=X-X$X=X=X%X=X-X-X%X=X-X%X-X%X%X:X=X=X=X=X/.S z.h.h.+.=.~ _ H.7.( F.{.{.{.{.{.",
"`.}.|.G.G.m.8X8XrX_ D s.f.c.k.j.d.(.M.&XN.(.B.!.-X%X-X-X%X=X;X;X%X=X%X$X-X=X%X>X!.B.(.M.&Xx.&Xg.k.z.x.h.h.U _ rX8X8X8XH.Q.|. X{.",
"`.T.H.8X8X7XrXrXrXwXT 1 v.j.k.k.z.W ~.x.^.M.B.-X~.B.*XM.>X=X%X%X-X$X%X>XN.(.!.~.-XB.N.~.M.^.G c.k.k.k.v.1 T rXrX9XqXyX7X7XeXkX{.",
"`.}.H.qXrXrXyXrX9XtX_ l v.g.j.j.d.A /.&XN.~.~.v.B.B.N.~.M.>X;X=X-X-X>XN.~.N.!.B.x.!.~.N.&X/.x g.z.g.c.v.l _ tX7XyXyXrXrX7XpXCX{.",
"E.Q.rX0XrXrXrX9XqXqX9XT h c.j.k.j.S /.~.k.M.z.M.~.B.~.B.^.M.M.V.V.M.M.~.B.~.B.~.M.x.M.c.~./.S g.k.^.v.3 T rXqX0XrXrXyXyX7XqXaXkX",
"`.0X0X0XrXyXrXrXqX0XtX` > W c.j.j.A M.c.g.j.k.M.M.x.M.k.M.k.g.: > d.k.N.z.M.x.v.M.g.g.g.c.M.S g.c.N.s.> ` tX0X0XyXyXyXyXyX7X8XvX",
"`.uX0X0XqXrXyXrXrX0XrX0X! n a.v.k.A F j.c.k.k.k.k.k.g.k.k.s.l s i k s.k.k.d.k.g.g.k.c.c.g.U A c.c.a.x ! 7XqXqXqXrXqXyXyXyXtXaXdX",
"]. XwXyXrXyXyX9XqXwX7XrXrXT : F Q W A R R d.k.k.c.k.k.j.v.F O w.w.O F v.j.j.c.v.k.k.k.W R A Q W F < T rXrXyXrXyXrXyXrXrX9XrXxX{.",
"|.|.uXwX9XrXyX9XrX9XrX7XtX8X4 T x W n A x R s.a.f.d.c.j.z.s.5 | | 4 s.c.j.c.s.W a.s.E x A n W x T t 8XrXyXrXyXyXrXrXrX9XrXiXkX{.",
"|.`.|.uXeXwX9X9X9XwXqXqXqXrXtXrX! T ! 5 l x h j n S f.f.f.s.W > ; f.s.f.a.s.D n k 3 x h h T T ! wXtXrXrXrXrXwXyXqXrXtXuXuXkX{.{.",
"].|.{.}.}.uXeXuXwX9X9XwXrXrXqXrXrXrXtX4 K Q 4 < l n x x x x A d.d.m z x x c n l < k ! A 4 tXrXrXwXwXrXrXrXrXyXeXeXH.Q.].{.{.{.{.",
"`.|.|.`.E.|.|.}.Q.wXeXqX9X9X9XrXrXwX9XtXtXrXpXK 5 ! Y U Y Y Y ~ U Y Y Y Y Y ! 3 K pXqXtXtX0X9X0XqXqXqXqXrXwXeXuXP.[.<.[.{.{.{.{.",
"|.`.`.|.|.{.|.|.|. XW.rXtXeXtX7XrXrX9X9X9XrXyXrXrXrXrXrXrXrXrXrXrXrXqXrXqXrXqXrXrX9XqX7X8X7X0X9XqXtXtXeXeXuX{.{.<.<.<.<.[.{.{.{.",
"|.|.|.{.|.|.|.|.|.|.E. XfXcXgXtXwXwXwXwXwXwXqX0XqXqXqXrXrX9XrXyXrXrXwXqXqXqXqXqXqX9XqXpXpXpXpXrXwXCXdX`.{.{.{.R.K.<.<.P.[.{.{.{.",
"|.E.|.|.{.|.|.|.|.|.E. XfXcXcXgX|.{.|.{.].eXqXrXrXrXrXqXyXrX9XrXqXrXqXqXwXrXrXqXqX9XaXVXVXVXVXbX`.`.`.`.{.{.{.[.[.<.<.<.R.kX{.{."
};
