/* XPM */
static char *d51oedb_6021332c_fbb9_4c71_95e9_3489d4b770cd_1__removebg_preview_resized[] = {
/* columns rows colors chars-per-pixel */
"64 64 243 2 ",
"   c #010202",
".  c #06080B",
"X  c #080B12",
"o  c #0A1215",
"O  c #0A141C",
"+  c #091619",
"@  c #111719",
"#  c #091413",
"$  c #16221A",
"%  c #0D201F",
"&  c #0C1C27",
"*  c #171C2A",
"=  c #161926",
"-  c #16172B",
";  c #192727",
":  c #1A2436",
">  c #1B343A",
",  c #162D2A",
"<  c #23283A",
"1  c #233538",
"2  c #333436",
"3  c #241C2B",
"4  c #6E2E1B",
"5  c #51362D",
"6  c #672D2D",
"7  c #5B2D19",
"8  c #274039",
"9  c #5A4A34",
"0  c #694C37",
"q  c #1B3844",
"w  c #252C43",
"e  c #2A364B",
"r  c #2A3755",
"t  c #313C5A",
"y  c #333747",
"u  c #333F62",
"i  c #2A4848",
"p  c #354346",
"a  c #345747",
"s  c #395757",
"d  c #2A5157",
"f  c #3C6956",
"g  c #37604C",
"h  c #3A4769",
"j  c #3F5468",
"k  c #3C4D75",
"l  c #3C5274",
"z  c #2B4E65",
"x  c #396768",
"c  c #376874",
"v  c #1E4C60",
"b  c #515152",
"n  c #6D524D",
"m  c #44735D",
"M  c #486E55",
"N  c #736D56",
"B  c #484D66",
"V  c #44566B",
"C  c #55596A",
"Z  c #414D74",
"A  c #434F7A",
"S  c #44527C",
"D  c #455877",
"F  c #555C76",
"G  c #534C60",
"H  c #7A5773",
"J  c #664D66",
"K  c #4A7965",
"L  c #4A6876",
"P  c #576778",
"I  c #4C7379",
"U  c #51797E",
"Y  c #4B6E6C",
"T  c #6C7578",
"R  c #6A6A6F",
"E  c #8A3D37",
"W  c #9A441C",
"Q  c #AC491A",
"!  c #B45129",
"~  c #BA633C",
"^  c #8B4F32",
"/  c #C65C2D",
"(  c #CA6A3C",
")  c #EB7434",
"_  c #8B5751",
"`  c #B55250",
"'  c #8C6651",
"]  c #B26844",
"[  c #96626F",
"{  c #C54F44",
"}  c #D3564A",
"|  c #D8654E",
" . c #D2734F",
".. c #E8774B",
"X. c #D57D63",
"o. c #159A68",
"O. c #11A168",
"+. c #1AA46D",
"@. c #1AA76F",
"#. c #25A774",
"$. c #3CB17F",
"%. c #31A675",
"&. c #189665",
"*. c #4D836B",
"=. c #558A77",
"-. c #579176",
";. c #59967B",
":. c #488F74",
">. c #57A27A",
",. c #81807E",
"<. c #F48449",
"1. c #EE8755",
"2. c #DB9A78",
"3. c #C1876A",
"4. c #FC9C6A",
"5. c #FB9764",
"6. c #EA9066",
"7. c #FFA672",
"8. c #FFA16C",
"9. c #DAA07E",
"0. c #387999",
"q. c #316E8B",
"w. c #4C5C8C",
"e. c #485883",
"r. c #525B8C",
"t. c #515F90",
"y. c #435F97",
"u. c #695E83",
"i. c #4A6685",
"p. c #54658B",
"a. c #4B7689",
"s. c #547489",
"d. c #4D6394",
"f. c #4D6D9B",
"g. c #4A6696",
"h. c #516293",
"j. c #546699",
"k. c #57699C",
"l. c #487999",
"z. c #537599",
"x. c #6F708F",
"c. c #4D79A6",
"v. c #5478A9",
"b. c #556CA4",
"n. c #3DB281",
"m. c #3C85A9",
"M. c #3E8DB5",
"N. c #29918C",
"B. c #5A8884",
"V. c #5C9885",
"C. c #518C96",
"Z. c #699791",
"A. c #4AB589",
"S. c #45B486",
"D. c #51B88E",
"F. c #5DB994",
"G. c #57A583",
"H. c #64A78A",
"J. c #67AA97",
"K. c #7CAD99",
"L. c #66BD9A",
"P. c #6DBE9D",
"I. c #69B498",
"U. c #70BE9F",
"Y. c #7AB39B",
"T. c #4984AC",
"R. c #468AB3",
"E. c #4291B5",
"W. c #4695BA",
"Q. c #4993BD",
"!. c #4A9ABA",
"~. c #589BB8",
"^. c #4C95A7",
"/. c #6B9AB2",
"(. c #56A4B8",
"). c #71BFA0",
"_. c #79BCA7",
"`. c #6FACB1",
"'. c #6DC09E",
"]. c #64C29D",
"[. c #70C09F",
"{. c #6FC3A1",
"}. c #71C0A0",
"|. c #7AC3A6",
" X c #76C9A6",
".X c #7CC4A8",
"XX c #77CAA9",
"oX c #79CDAB",
"OX c #7AD1AD",
"+X c #7CD4B1",
"@X c #78C1B8",
"#X c #3CA0CE",
"$X c #3F93C2",
"%X c #449DC6",
"&X c #4A9DC6",
"*X c #499AC4",
"=X c #4F9BC5",
"-X c #47A2CA",
";X c #48A0C8",
":X c #4AA1C8",
">X c #58A8CA",
",X c #58AED3",
"<X c #53ADD0",
"1X c #64A7C4",
"2X c #73ADC3",
"3X c #64B3D3",
"4X c #68B9D9",
"5X c #76BCD5",
"6X c #76B3C3",
"7X c #60BDE4",
"8X c #7CC5DD",
"9X c #77C4DD",
"0X c #7AC8E3",
"qX c #70C8E5",
"wX c #8E8E8F",
"eX c #87888A",
"rX c #918E8F",
"tX c #90908F",
"yX c #8F8F90",
"uX c #918F90",
"iX c #8D9492",
"pX c #8A9B94",
"aX c #919191",
"sX c #939A96",
"dX c #9A9998",
"fX c #8C928F",
"gX c #84A397",
"hX c #89B19E",
"jX c #89ACA9",
"kX c #A0A0A1",
"lX c #8ECBB4",
"zX c #97CDBA",
"xX c #9ACEBB",
"cX c #95CBB7",
"vX c #9DD0BF",
"bX c #84D4B4",
"nX c #A0CFBF",
"mX c #82C8DE",
"MX c #97CFC5",
"NX c #A2D1C2",
"BX c #A4DBC7",
"VX c #83CBE2",
"CX c #87D7F0",
/* pixels */
"O.O.O.+.F.|.'.}.}.}.).}.[.}.U.}.}.}.}.}.}.}.[.}.}.}.[.P.P.P.I.V V V V l j V j Z V Z U ).I.U.[.[.[.[.[.[.U.}.}.}.[.}.}.}.}.}.}.}.",
"O.O.O.+.F.}.'.}.}.}.}.).}.}.}.}.[.}.U.}.}.U.[.[.[. X-.o $ , I !.!.!.W.M.W.W.W.W.W.W.^.s # 1 '.'.[.[.[.[.}.}.}.}.).}.[.}.U.}.}.[.",
"O.O.O.+.F.|.P.U.[.{.P.{.[.}.{.U.[.}.U.U.U.}.+Xg 1 U I M.M.C.s.O O O O & O O + + + X i (.C.m.V $ P. X[.[.[.[.}.[.}.}.[.).}.}.}.}.",
"+.+.+.#.F.}.}.{.P.'.P.'.}.).}.).}.}.}.P.OXa p l.^.(.c & & 1 J.;.-.-.-.-.-.-.-.-.-.:.H.V.+ q ^.C.Y ; I.oXU.}.}.}.[.}.}.}.}.}.}.U.",
"F.F.F.F.'.{.}.P.D.A.S.D.P.}.}.}.}.}.P.oXa v ^.x & Y I.K *.*. X}.XXXXXXXXXXXXXXXXXXXXXXJ.K -.F.e C.B., H.oX[.}.}.[.}.}.}.U.}.}.}.",
"}.}.|.}.}.U.}.L.S.n.$.A.L.}.}.[.}.}.+Xa d C.s.I m -. XoXOXoX}.U.U.U.U.U.U.U.U.U.U.U.U.}.XX XI.*.L.i x i ;. XU.[.}.}.}.}.}.}.}.[.",
"}.}.{.U.}.}.}.L.A.n.n.S.L.}.}.[.}.}.a d C.B.V.I.OX}.'.'.U.U.[.[.U.).{.).).}.U.U.}.[.}.[.P.U.}.oXP.x `.X *.+XU.U.U.[.U.[.[.}.}.U.",
"}.}.}.}.).}.}.L.D.A.S.D.P.}.[.}.}.Z.z C.V.I. X[. X|..X|.}.[.[.}.{.).}.}.}.).).{.}.}.[.[.[.U.).P.{.oXi d s >. XU.|..X.X.X}.}.}.}.",
"}.}.}.}.}.}.}.P.L.L.L.P.'.}.U.}.{.1 >Xe -. XP.|.lXvXzXlX|.}.}.[.).}.).}.).}.}.).}.}.}.U.}.).}.}.}.L.a `.; m bXU.lXzXxXlX}.}.}.}.",
"}.}.}.}.}.}.}.}.}.}.}.}.{.U.}.).Z.d x a ;. X'..XzXNXNXzX|.[.}.}.).).}.}.}.}.}.}.}.[.}.}.}.[.'.}.[.'.OXY e s H.bXzXNXNXxX.X}.}.}.",
"P.U.'.).P.}.).).}.}.[.}.}.}.}.U.i (.. ;.+XP.'..XzXNXNXvX|.[.}.}.U.U.U.{.}.}.}.}.U.}.}.}.}.}.}.}.}.[.}.# m., a bXcXNXNXxX|.}.}.}.",
".X|..X|.}.}.).{.}.}.}.P.L.F.F.V.> V 1 G. X'.[.|.lXzXzXlX|.[.[.[.|.|.|.|.}.).}.}.}.}.[.}.}.}.U.}.[.[. X% q.v K OXlXzXxXlX}.}.}.}.",
"xXxXxXzX.X'.}.}.).{. XF.%.@.#.c *Xo H.oXU.}.}.}.}.|.|.}.}.}.}.}.zXxXxXzX|.{.}.}.}.}.}.}.}.}.}.[.}.[.}.$ q.l.V. X}.|.|.|.}.}.}.}.",
"NXNXvXvX.XU.}.}.).).}.F.#.O.o.d Q.; V.}.U.}.}.U.}.}.[. X}.[.U.|.vXNXNXxX.XP.}.}.{.}.}.U.}.[.}.).[.U. X$ q.l.Z. X).[.'.}.}.}.}.}.",
"NXNXNXvX.X'.}.).).U.|.F.+.O.&.+ I I I.}.).}.}.}.}.}.}.[.}.}.U.}.NXNXNXvX.XP.}.}.U.}.}.}.).[.}.}.[.[. X; q.a.=. X).}.[.}.}.}.}.}.",
"vXvXvXxX.XU.}.).).{.}.F.#.O.O.N.+ H.}.U.[.}.}.[.}.[.}.}.}.[.[.|.xXvXvXxX.XP.}.}.).).[.}.}.}.}.[.[.[.U.I s.: K oXP.}.}.}.).}.}.}.",
"}.}.}.}.}.}.}.}.{.).).U.{.G.; M.+ H. XP.).}.).{.}.}.}.}.}.}.}.}.|.[. X|.[.[.[.[.[.[.[.|.[.[.[.[.}.}.I ~.a.B.'.[.[.[.}.[.}.[.}.}.",
"}.}.U.}.}.}.}.}.}.).).P. XV.O E.# H. X'.).U.).).[.}.U.}.[.}.}.U.U.U.U.[.[.[.[.[.[.[.[.[.[.[.[.[.[.[.Y !.q *.OX'.}.}.}.[.}.}.}.[.",
"}.}.}.).}.).}.}.}.}.}.). XH.O E.X H.{.P.).{.).}.}.}.}.}.}.}.}.}.[.[.[.[.|.[.[.|.[.[.[.[.|.[.[.[.).).C (.: f oXU.}.}.[.}.}.U.}.}.",
"}.}.}.}.}.}.}.}.}.}.}.}.|.;.+ C.s J.{.P.P.).}.}.}.U.}.}.}.U.}.}.[.[.[.[.[.[.[.[.[.|.[.[.[.[.[.[.P.=.s.> m P.}.U.[.}.}.}.}.}.}.[.",
"}.[.}.[.}.}.[.}.}.}.}.}.}.).s 1 :.A.A.A.P.}.}.}.[.}.}.}.}.}.}.}.[.[.[.}.|.[.[.[.[.[.[.[.[.[.[.[.A.c b.O *.+XP.).}.}.}.}.}.U.}.}.",
"}.}.}.}.).}.[.}.}.).).}.H.p i.  %.n.n.n.L.}.{.).}.}.}.U.[.[.}.[.[.[.}.}.[.[.[.[.[.[.|.[.[.[.|.[.$.b 6 . *.XXU.{.U.}.[.}.}.}.}.}.",
"[.}.[.}.}.U.U.U.).}.).oX-.  e.i n.n.S.S.L.}.U.).}.[.[.}.}.}.}.}.}.}.[.}.[.[.[.[.[.[.[.[.[.[.[.[.$.9 W 5 V.XXU.U.U.).}.}.}.}.[.}.",
").}.}.}.[.[. X X}.).).}.G.e p.a.A.A.A.A.L.}.).}.).}.}.}.[.}.[.}.[.}.[.}.[.[.[.|.[.[.[.[.[.[.[.[.G.9 / n V.{.}.XX X}.U.}.}.U.}.}.",
"}.}.}.U.[.I.V.B.J.XX{.}.J.L e.y F.L.L.L.[.[.[.[.|.[.[.[.[.[.[.[.}.}.[.}.}.}.}.}.[.[.[.[.[.[.[.[.F.9 ) W ;.+XJ.-.V.J.}.{.).}.}.).",
"[.}.}.U. Xs D Z.B.B.H.OXJ.V e.  P.|.).).[.[.[.[.[.[.[.[.U.|.[.[.}.[.}.).}.U.[.}.[.[.[.[.[.[.[.[.[.9 6._ I V.=.C.V s XXU.).}.).{.",
"}.}.}.U. Xg s `.`.s.B.V.Z.U t 1 K P.).).[.[.[.[.[.[.|.[.[.[.[.[.}.}.}.}.}.}.}.}.[.[.[.[.[.'.'.[.H.X ' G i.s.`.`.a f XXU.}.U.).).",
").[.}.}.'.+Xf q (.8X(.s.s.=.= s.. H.}.).[.[.[.[.'.L.L.P.[.[.[.[.}.[.[.}.}.}.U.}.[.[.[.[.bXhX X Xj = j p.1XCX~.q K +XU.).}.}.}.}.",
"}.[.U.}.}.P.+Xm q E.,X0X`.p.i.Z X H. XP.U.U.[.P.D.S.S.A.'.[. X[.[.}.[.[.}.}.U.}.[.[.[.hXzXBXvXhXU L 5X0X<X^.> m OXP.}.[.}.).).}.",
"}.}.}.}.}.U.P.OXm > !.-X<X0X5XV o V. X XU.}. X'.A.$.$.A.'.[.[.[.}.}.[.[.[.}.}.U.[.bX[.bXzXjXjXP @X9X:X%X!.> K OXP.}.}.}.{.).}.).",
"}.}.}.}.}.}.[.U.OXm > !.-X:X8X5XD D H.J.).Y.H.H.$.$.$.S.L.[.[.[.}.}.[.[.U.U.}.}.hX>.H.hXK.h L mX8X:X-X!.> *.XXP.).).[.}.}.}.{.U.",
"U.}.}.[.).}.}.U.'. X*.> >X%X:X:X5X8XD h J.N 4 4 N $.$.A.'.[.[.[.'.U.'.'.[.|.U.}.-.4 4 5 i.0X5X&X:X:X!.: *.XX).).}.).}.).}.).}.).",
"}.}.}.[.}.}.U.}.}.U. X*.= z.Q.f.&X:X5X8Xp.5 ~ 4.~ 7 N BX|.|.}.P.#.o.O.#.D.|.N 7 ~ 5.~ n 9X&X*Xf.*Xf.@ =. X}.{.).}.}.U.}.}.}.[.}.",
").[.}.}.}.}.}.}.}.).}.}.K = f.Q.f.d.&X<X3XmXN ! 1.6. .7 @ @ @ @ # # # # o 5 ] 1.<./ N 4X=Xd.f.Q.d.= V I.}.U.).).}.).}.}.}.}.).}.",
"}.[.}.).'.}.[.}.{.U.[.}.}.=.- f.h.r.d.d.Q.,X-Xb ~ 5.) Q 5 m.m.0.m.m.m.M.5 ~ 1.<.! b *X=Xd.t.t.j.= w h J.}.}.}.}.{.}.).[.}.}.}.[.",
"}.}.}.}.).}.}.).}.).}.'. XH.  o w.h.t.t.t.*XL ] <.) <. .n qX0X0X9X9X9XqXn / ) <.| E F *Xr.t.w.O   0.* ;.XXU.}.).U.).}.}.).[.}.}.",
"[.).}.[.).}.}.}.}.}.}.P.}.H.X q.j.w.k e.c.-Xb ! 1.) ) ~ n mXmXmXmXmXVXVXn ( ) ) 5./ 9 *Xr.e.= - . R.O -.oXP.}.}.}.}.}.}.}.}.}.U.",
"}.}.}.}.}.}.[.}.}.).}.}.Y.L e %X< /.Z l.3X9X2Xn ( 5.<.( 0 VXmX8XVXVXmXCXn ~ 5.<./ ' 2X4X/.S e /.+ ~.t V I.}.).}.}.}.}.}.[.}.}.}.",
"[.}.}.U.).}.}.).}.}.U.XX>.= /.1XX ~.D m.0X3X0X6X' Q Q ' /.mX0XVX8XVXmXVX/.^ W Q n 6X0X3X0Xc.S >Xo 2X2X- =.oXP.).).P.}.P.}.).}.}.",
"}.}.}.}.}.}.}.}.}.}.}.I.a.I CX5Xo m.k ~.3X3X3X0X`.T T Z.CXmXVXVXVXVXVXVXCXgXT =.jX0X>X3X3X>Xj M.o `.CXa.I I.).).|..X.X|.}.}.}.'.",
"}.}.}.}.}.}.}.}.).P.oX=.e CX0X9Xo m.l ~.4X3X4X3X4XqXqXqX,X3X3X3X3X3X3X3X3X4XqXqX4X3X3X3X4X>Xh E.o 2XVXCXt *.OX|.lXzXxXlX}.}.}.}.",
").}.}.}.}.U.[.}.).{.).I z 0XVX1X+ m.l m.4X:X,X1X$X%X$X$X%X%X%X%X%X%X%X%X%X%X$X%X$X<X3X:X4XM.l W.o ~.CXVXc Y I..XzXNXNXzX.X}.}.}.",
"P.}.'.'.[.}.}.}.P.XX=.u 7XmX4XM.X m.l R.-X%X:X;X:X:X-X:X:X:X;X:X-X-X:X&X:X:X:X:X:X%X%X-X-XE.l E.X m.4XmX7Xr Y bXzXNXNXxX}.}.}.}.",
"|.|..X|.}.}.}.U.{.P.Y e ,X4X:XT.= M.D R.-X;X;X;X-X&X-X&X-X;X;X%X&X&X:X-X-X:X%X-X:X-X:X&X-XM.e.M.* Z.#X7X,Xv m _.lXxXxXlX|.}.}.}.",
"xXxXxXzX.X[.}.U.XX=.u v.-X%XQ.w.l T.h.Q.-X:X-X:X:X&X-X-X-X&X&X:X-X:X%X-X:X:X-X&X-X%X%X:X-X*Xd.T.e.6.jX/.!.-Xl I OX}.|.|.|.).}.}.",
"NXNXNXvX.XP.}.U.+Xf = v.-X-XQ.d *Xh w.*X-X:X:X-X:X-X-X&X:X-X-X-X%X:X-X&X-X&X-X&X:X:X-X&X&X*Xi.h %X3.5.5.[ x.: a OXP.P.}.{.U.}.}.",
"NXNXNXvX.XP.}.U.oXM O v.*X&X0.X E.l E.:X%X:X%X:X-X%X&X:X%X-X:X%X-X-X:X-X-X&X-X-X%X-X%X-X&X-XW.h W.O  .8.6.7.7 d bXP.}.}.}.}.P.}.",
"vXxXvXxX.XU.).P.oXm - k.h.k . X W.h E.-X:X-X&X-X&X-X-X-X&X:X-X&X:X&X&X-X&X-X-X&X:X:X:X:X-X-XR.o E.&  .4.5.7.5 a oXP.}.}.).}.}.}.",
"}.}.}.|.}.}.).{.hXT u j.h = Z X R.= m.:X&X:X:X:X&X-X:X%X-X&X-X:X-X-X&X-X%X-X&X-X%X:X:X&X:X-Xm.o M.O ! ` ..7.H P hXP.[.[.}.}.[.}.",
"}.}.[.U.}.K.gXpXpXT h e - w.S . w.o l *X-X&X-X-X-X&X:X-X=X=X&X:X&X&X:X&X-X&X-X&X:X-X&X&X:X&Xe.X w.o F t.[ } n P sXiXpXgX}.}.[.}.",
"}.).}.Y.gXpXaXwXsXT u w.S k.S X e.o Z *Xc.Q.c.c.-X-X:X-X#X=X2.2.2.2.2./.#X-X-X-X-XR.c.Q.c.*XZ . e.X A t.r.u.Z R dXwXrXaXiXpX}.}.",
").).K.pXiXaXrXiXuXyXG < j.h.A . e.O 0.v.R.v.T.-XR.c.%Xx.9.2.5.5.5.4.4.2.9.x.$XR.T.-XT.c.R.v.T.. e.X e.t.j.: b aXrXwXtXtXtXrXgX[.",
"}.}.gXiXuXyXwXaXrXdXR r k.t.w.h Z   i.j.f.j.f.c.v.R.x.X...8.4.4.4.4.4.4.| X.x.c.T.b.f.d.b.k.g.  u Z r.t.k.r C dXwXaXaXaXaXrXiX}.",
"}.K.iXuXiXuXaXuXuXrXuXC < j.t.t.- t < A t.w.r.r.f.x.` } ` | | | | | | | { } } x.b.r.h.h.r.S < t - r.t.j.w C yXrXwXaXwXaXaXtXiXgX",
"}.gXuXaXrXiXrXrXaXwXdXR : S j.e.  r.  Z b.h.t.r.y.[ { ` { ` H H H H H ` { ` ` [ y.p.w.h.b.S . t.  A t.S : R dXwXaXaXaXwXaXaXrXrX",
"}.Y.iXaXaXuXrXiXaXuXuXrXF t e.t.e < t w : e.b.j.u._ ` { ` H t.y.y.y.g.H ` / ` ` u.j.b.S : w r w e r.w.u F eXuXuXaXwXaXaXtXtXiXgX",
"}.}.pXaXiXrXuXaXrXiXrXaXwXC * Z j.e e w w w < r _ } } } ` b.k.k.k.k.k.b.[ } } } _ u w w w w e w k.A * B wXaXwXaXaXwXtXtXtXrXiX[.",
"}.).Y.iXrXrXiXuXaXrXiXwXaXeX2 C Z e.- Z A w < t J E 6 4 6 e e e e e e e 6 4 6 E J t : < Z e.= S A P 2 ,.sXwXaXrXaXaXtXtXrXtXgX[.",
"}.}.{.Y.gXiXuXrXrXiXtXaXyXaXkXsXC C F y . u Z Z w.: o y   : = * - - = *   y @ - r.S Z h . < F C C rXdXaXrXuXuXaXwXuXuXtXgXgX X[.",
"}.[.}.}.}.Y.gXgXiXuXrXaXaXuXrXuXaXdXdX2 B F 2 = u r b yX- t.w.w.r.w.w.t.- rXG w h = 2 F B 2 uXdXaXuXwXrXiXaXrXrXfXZ.pXK.}.[.[.[.",
"}.}.}.U.).}.}.{.Y.pXpXuXrXwXwXyXtXtXaXsXaXtXkXb < r.y 3 F B B B B B B B F 3 y F < b dXaXaXsXuXuXuXaXuXrXrXrXiXpXH.S.S.A.'.[.[.[.",
"}.[.}.}.}.[.}.[.}.{.Y.iXsXsXsXrXrXtXrXwXaXtXtXaXuXuXdXaXaXaXaXaXaXaXaXaXuXsXaXiXsXaXrXtXrXwXwXuXuXuXiXiXpXiXY.].A.n.n.A.].[.[.}.",
"}.}.}.}.).}.}.}.}.}.U..XxXNXxXsXiXiXpXaXpXaXwXaXwXaXrXrXtXaXtXtXaXaXiXrXuXwXuXyXuXaXyXsXsXsXsXsXiXpX).}.[.[.[.L.A.n.$.A.P.[.}.}.",
"}.}.U.}.}.[.}.).}.}.U..XxXNXNXxX|.U.[.U.[.gXrXaXaXwXaXaXtXaXtXtXaXaXrXrXiXrXiXuXyXuXwXsXNXNXNXxX}.).}.}.}.[.}.].A.n.$.S.'.}.}.[."
};
