/* XPM */
static char *_77d2027ec932fbad1d02ab8d68c9e3f_1__removebg_preview_resized[] = {
/* columns rows colors chars-per-pixel */
"64 64 232 2 ",
"   c #010101",
".  c #07080A",
"X  c #09161C",
"o  c #1B1112",
"O  c #14171A",
"+  c #120E10",
"@  c #271819",
"#  c #311819",
"$  c #35221F",
"%  c #2C231F",
"&  c #021827",
"*  c #0C1C2B",
"=  c #291D24",
"-  c #371C26",
";  c #172728",
":  c #1C2A38",
">  c #1C3837",
",  c #0B2932",
"<  c #2A262A",
"1  c #3A2428",
"2  c #2A2E32",
"3  c #3B2C34",
"4  c #273838",
"5  c #373331",
"6  c #3D372D",
"7  c #14211F",
"8  c #42221E",
"9  c #472927",
"0  c #56362C",
"q  c #432D36",
"w  c #482F38",
"e  c #473038",
"r  c #4B333A",
"t  c #473335",
"y  c #523433",
"u  c #523A35",
"i  c #5B3C3D",
"p  c #583738",
"a  c #532F2F",
"s  c #653B38",
"d  c #703C38",
"f  c #2C453C",
"g  c #5C433B",
"h  c #48423B",
"j  c #79463E",
"k  c #674339",
"l  c #183B55",
"z  c #163647",
"x  c #283745",
"c  c #263D52",
"v  c #393944",
"b  c #493B43",
"n  c #5C3E42",
"m  c #633E42",
"M  c #0A5444",
"N  c #2A4849",
"B  c #294756",
"V  c #35535B",
"C  c #355052",
"Z  c #09496B",
"A  c #124A6C",
"S  c #065479",
"D  c #095074",
"F  c #3B5C63",
"G  c #395861",
"H  c #204D61",
"J  c #3C6666",
"K  c #3A7568",
"L  c #2E7269",
"P  c #326656",
"I  c #574747",
"U  c #445649",
"Y  c #4F5050",
"T  c #654242",
"R  c #6B4442",
"E  c #6A4A45",
"W  c #724743",
"Q  c #754944",
"!  c #7D4D47",
"~  c #7F4E48",
"^  c #794743",
"/  c #7A5447",
"(  c #6C5A4F",
")  c #456356",
"_  c #5C6557",
"`  c #766456",
"'  c #495766",
"]  c #456667",
"[  c #467A68",
"{  c #487775",
"}  c #567672",
"|  c #657364",
" . c #656372",
".. c #777272",
"X. c #625763",
"o. c #834D46",
"O. c #804F48",
"+. c #83524A",
"@. c #89544C",
"#. c #865C4B",
"$. c #8A5E4A",
"%. c #865746",
"&. c #8E594D",
"*. c #8B634C",
"=. c #8D694E",
"-. c #83614D",
";. c #956C4C",
":. c #95754E",
">. c #8B6C56",
",. c #926D50",
"<. c #957351",
"1. c #9B7551",
"2. c #9D7B52",
"3. c #987B57",
"4. c #8D765D",
"5. c #A87A4D",
"6. c #A27D53",
"7. c #A17350",
"8. c #8E766A",
"9. c #897670",
"0. c #00A36E",
"q. c #09A573",
"w. c #06A772",
"e. c #13AC7A",
"r. c #22886D",
"t. c #448973",
"y. c #4B8D77",
"u. c #6F8F7A",
"i. c #9A835C",
"p. c #A48254",
"a. c #AC8C56",
"s. c #A98959",
"d. c #B58C54",
"f. c #B29257",
"g. c #BB9355",
"h. c #B59658",
"j. c #B79858",
"k. c #BA9B59",
"l. c #BB9A55",
"z. c #B3884F",
"x. c #85846A",
"c. c #988869",
"v. c #918A79",
"b. c #AA8C60",
"n. c #C19655",
"m. c #CA9D56",
"M. c #C49E58",
"N. c #C79A56",
"B. c #D29C53",
"V. c #C7914F",
"C. c #CBA158",
"Z. c #C8A058",
"A. c #D4A457",
"S. c #D6A658",
"D. c #D8A758",
"F. c #DBAA59",
"G. c #DAA756",
"H. c #E0AE59",
"J. c #015E86",
"K. c #01628A",
"L. c #006087",
"P. c #026791",
"I. c #617F80",
"U. c #00B283",
"Y. c #09B387",
"T. c #0DB588",
"R. c #09BF8E",
"E. c #14B58A",
"W. c #17B88C",
"Q. c #08AB83",
"!. c #499984",
"~. c #599786",
"^. c #598985",
"/. c #659586",
"(. c #49A78B",
"). c #55A58D",
"_. c #4EAC90",
"`. c #59AB93",
"'. c #4EBE9C",
"]. c #51BD9B",
"[. c #5ABD9F",
"{. c #59B398",
"}. c #61AC95",
"|. c #63AB99",
" X c #62B59A",
".X c #69A48C",
"XX c #5CBFA0",
"oX c #73B7A5",
"OX c #00C390",
"+X c #4FC09D",
"@X c #52C09F",
"#X c #5DC2A2",
"$X c #5DC8A6",
"%X c #5DCAA9",
"&X c #55C4A3",
"*X c #63C3A5",
"=X c #60C8A7",
"-X c #62CCAA",
";X c #6ACBAC",
":X c #65D0AE",
">X c #68D5B2",
",X c #8A8788",
"<X c #8C8D96",
"1X c #95949A",
"2X c #978987",
"3X c #A4948E",
"4X c #A5A19D",
"5X c #9D9DA7",
"6X c #A7A6AA",
"7X c #ABABB4",
"8X c #BBBBBD",
"9X c #B5B5B9",
"0X c #B1AEB6",
"qX c #8CCEBC",
"wX c #87CDB9",
"eX c #91CFBE",
"rX c #92D0BF",
"tX c #BABAC4",
"yX c #99D2C3",
"uX c #97D1C2",
"iX c #BEC1CE",
"pX c #C3C4CA",
"aX c #C5C5CA",
"sX c #CECED5",
"dX c #CACCD9",
"fX c #CED0D7",
"gX c #D2D2DA",
"hX c #D0D0D7",
"jX c #D0CFD6",
"kX c #DADAE2",
"lX c #D5D6E1",
"zX c #CFD2E0",
/* pixels */
"0.0.0.q.].#X#X#X#X#X#X#X#X#X#X#X#X#X#X#X#X#X#X#X#X#X#X#X#X#X#X#X#X#X#X#X#X#X#X#X#X#X#X#X#X#X#X#X#X#X#X#X#X#X#X#X#X#X#X#X#X#X#X#X",
"0.0.0.q.].#X#X#X#X#X#X#X#X#X#X#X#X#X#X#X#X#X#X#X#X#X#X#X#X#X#X#X#X#X#X#X#X#X#X#X#X#X#X#X#X#X#X#X#X#X#X#X#X#X#X#X#X#XXX*X#X#X#X#X",
"0.0.0.w.].*X#X#X#X*X#X*X#X#X#X#X#X#X#X#X#X#X#X#X#X#X#X#X#X#X#X#X#X#X#X#X#X#X#X#X#X#X#X#X#X#X#X#X#X#X#X#X#X#X#X#X#X#X#X#X#X#X#X#X",
"q.q.w.e.].#X#X#X@X@X@X@X#X#X#X#X#X#X#X#X#X#X%X#X#X#X#X#X#X#X#X#X#X#X#X#X#X#X#X#X#X#X#X#X#X#X#X#X#X#X#X#X#X#X#X#X#X#X#X#X#X#X#X#X",
"].].].].#X#X#X@XW.Y.Y.E.@X#X#X#X#X#X#X#X$X X.. X%X#X#X#X#X#X#X#X*XXX*XXX#X#X#X#X*XXX*X#X#X#X#X#X#X#X#X#X#X#X#X#X#X#X#X#X#X#X#X#X",
"*X#X#X#X#X#X#X@XY.U.U.Y.+X#X#X#X#X$X#X#X}.<.B.3.u.#X#X#X#X#X#X#X@X*X@X*X#X#X#X#X@X*X@X*X=X*X@X$X#X#X#XXX#X#X#X#X#X#X#X#X#X#X#X#X",
"#X#X#X#X#X#X#X@XY.U.U.Y.].*X#X#X@X X$X}.3.A.F.A.V.>..XXX%X#X#X*X*X#X*X@X@X*X#X#X@X*X:X_.)._.%X%XXXXX#XXX#X#X#X#X#X#X#X#X#X#X#X#X",
"#X#X#X#X#X#X#X@XE.Y.T.E.@X*X@X%X-X:X[.c.G.D.S.S.D.A.5.x.|.#X$X[.#X#XXXXX*X*X@X[.:X@Xy.5 @ % t.y.-X:X@X*X#X#X#X#X*X*X*X*X#X#X#X#X",
"#X#X#X#X#X#X#X#X@X@X].@XXX$X-X~.[ t.8.B.D.D.D.D.D.D.H.N.5.u.|.%XXXXX#X#X@X#X-X:Xy.P # s W R $ 1 P t.;X*X@X#X@X*XwXrXrXeX*X#X#X#X",
"#X#X#X#X#X#X#X#X#X*X*X#X:X`.} i o 9 n.F.D.D.D.D.D.S.S.F.H.5.c./.=X$X*X@X-X>Xt.P 6 9 W r q q R R 8 6 U r.>X*X#X*XrXrXrXrX*XXX#X#X",
"#X#XXX#X#X#X#X#X#X#X@X;X[ t s p m d.H.S.D.D.D.D.D.D.D.D.S.H.B.d.u..X=X:X[ > y 8 s n q q r e q q k k g g f y.:X*XrXrXyXrX*XXX#X#X",
"*X*X*X*X#X#X#X#X#X#X*X) a q p 3 ;.D.S.S.D.D.D.D.D.D.D.D.D.D.F.D.;.i.` > a a i I r q w t t r q r t t g g k g (.>XwXrXrXrX*X#X#X#X",
"uXuXwXwX*X#X$X*XXX$X/.p r r q R S.F.S.G.D.D.D.D.D.D.D.D.D.D.F.g.B.B.;.j g i e q e r e e e q r q 1 < X O 6 *.h y.;X*X*X*X*X#X#X#X",
"uXuXuXuX*X#XXXXXXXXX( r q q R g.F.S.G.S.D.D.D.D.D.D.D.D.D.F.m.g.H.z.a.M.2./ p t e e e r r r - < ; t.@X[.`.Y j h @X#X#X#X#X#X#X#X",
"uXuXuXuX*X#X#XXX%X~.p w w r z.F.S.D.D.D.D.D.D.D.D.D.D.D.D.S.d.S.m.n.F.k.j.h.<.R r q w r q @ 4 t.:X*X*X*X*X:X} 0 y.*X#X#X#X#X#X#X",
"uXwXuXwX*X#X#XXX-Xt.9 e p 5.D.D.D.D.D.D.D.D.D.D.D.D.D.D.D.g.N.S.z.D.G.C.h.j.k.s.*.i r - < P #X=X@X#X#X@X@X*X[.g _ -XXX#X#X#X#X#X",
"$XXX*X*X*XXXXXXX$X} 9 r Q l.F.D.D.D.D.D.D.D.D.D.D.D.S.F.N.n.F.g.m.D.F.M.j.j.j.k.k.p.Q Y (.>XXXXX*X#X#X#X*XXX$Xu.g _.=X#X#X#X#X#X",
"XXXX#XXXXX$X#X*X$Xg a #.m.1.s.D.G.D.D.D.D.D.D.D.D.D.D.S.d.F.n.N.H.D.G.C.j.j.j.j.j.k.f.s..X#X#X#X#X#X#X#X@X*X=X}.h y.-X#X#X#X#X#X",
"$X$XXXXX#X#X#X#X=Xf p m.H.A.1.,.C.G.D.D.D.D.D.D.D.D.F.g.m.S.d.F.D.D.D.S.j.j.j.j.h.j.k.l.5.u.%X#X#X#X#X*X@X*X=X).j ) %X#X#X#X#X#X",
"XXXXXX$X#X#X#XXX@X2 ;.H.S.D.S.d.<.g.D.D.D.D.D.D.D.D.S.f.H.g.m.F.D.D.G.C.j.j.j.j.j.j.h.h.M.6.`.&X@X@X@X@X*X*X@X).j U %X@X#X#X#X#X",
"#X#X#X#X#X#X#X#X#XY B.G.D.D.F.D.k.,.1.A.F.D.D.D.S.F.d.A.m.g.F.S.D.D.D.m.h.h.h.j.j.j.j.j.k.a.u.&XW.e.Y.E.@X@X%X`.%._ @X#X#X#X#X#X",
"#X#X#X#X#X#XXX$X[.4.G.F.S.D.D.F.S.c.9.<.n.F.D.S.F.n.n.S.g.A.F.D.D.D.D.A.l.j.k.j.j.j.j.j.k.d._ '.T.U.U.Y.@X*X%Xu.$.k y.;X#X#X#X#X",
"#X#X#X#X#X#X#XXXv.z.d.n.H.S.D.F.b.7XsX2X` 5.m.H.N.g.H.d.m.F.D.D.D.D.D.C.M.j.j.j.j.j.j.j.j.6.y (.W.U.U.Y.@X*X$X_ %.s y.:X#X#X#X#X",
"#X#X#X#X#X#X&Xv.n.H.m.g.s.B.H.C.4XlXjX1X0X2X>.z.M.F.N.n.F.D.D.D.D.D.D.A.M.j.j.j.j.j.j.k.a.#.u (.W.Y.Y.E.@X@X$X..%.j t.=XXX#X#X#X",
"#X#X#X#X#X$X}.p.Z.D.F.D.N.h.n.3XgXgX6XtXgXjX0X8.p.A.Z.D.D.D.D.D.D.D.D.Z.Z.h.h.j.j.j.j.k.;.o.u _.@X@X@X@X@X=X`.` %.j C =XXX@X*X#X",
"#X#X#X#X#X$Xx.g.j.C.D.D.F.B.6.0XkXtX7XlX9XsXgXsX3X*.d.A.F.D.S.D.D.D.D.Z.M.j.j.j.j.j.k.s.~ @.u _.-XXX#X*XXX$X.X%.o.j U %XXX*X#X#X",
"#X#X#X#X$X}.6.k.h.M.D.D.S.H.s.pXgXaX7XgXaX8XgXgXfX7X8.<.n.F.F.D.D.A.Z.Z.Z.j.j.j.j.j.j.=.~ @.u _.=X@X#X#X*X#X| o.o.j U -XXX#X#X#X",
"#X#X#X#X%X/.;.f.j.k.C.D.S.F.h.4XgXjX<XiXgX8XsXjXjXgXaX3X>.5.m.F.D.D.Z.Z.k.j.j.j.j.k.6.~ ~ +.u _.*X*X#X@X:X~./ +.+.j U -X#X#X#X#X",
"#X#X#X#X$X| ;.,.a.k.h.Z.D.S.H.f.tXkX0X1XgXsX8XjXfXjXgXgX8X2X=.n.H.A.Z.C.k.h.j.j.j.h.*.O.o.@.a oX;XXXXX=X`.` +.~ o.j y.=XXX#X#X#X",
"#X#X#XXX$X| *.-.=.a.k.h.M.D.D.D.v.iXgX1X8XgX8XaXgXjXjXfXgXsX0X4.5.k.Z.C.M.j.j.j.k.2.~ O.! @.0 oX;X@X-X/./ $.#.! %.s ).-X#X#X#X#X",
"#X#X#X#X$X| #.*.*.-.2.h.j.k.C.F.B.3XfXtX<XgXsX8XgXjXgXjXfXgXgX8Xv.<.k.l.h.j.j.j.f.#.O.O.! o.u wX-X$Xu.` $.*.$.o.@.9 y.>XXX#X#X#X",
"#X#X#X#X$X~./ *.#.#.+.,.h.h.j.l.F.n.6XkX1X0XkXtX7XgXfXjXjXjXgXgXsX4X>.p.k.j.j.k.<.~ +.+.o.@.p oX X_ / #.+.$.$.o.j C @X#X#X#X#X#X",
"#X#X#X#X%X`./ $.+.O.~ +.,.f.k.j.j.C.c.0XgX5XpXgX8XpXgXsXgXsXgXfXgXgX..R p.k.k.a.R ! W Q Q W n I ( *.$.! +.-.$.~ ^ ) %XXX*XXX*X@X",
"#X#X#X#X[.%XN s @.~ ~ O.! *.a.k.l.j.l.c.dXpX1XfXjX9XsXgXsXgXfXfXgX0X4.,.E 2.k.,.i k I p g g *.*.$.+.~ ! +.-.$.+.k ~.=X*X@X*XXX*X",
"#X#X#X#X@X;Xf x I o.~ ~ ~ ~ *.p.f.j.k.a.1XlX9X5XkXaX8XgXgXsXfXlXtX..a.l.:.Q 6.+.n ( <.Q / =.O.O.~ ~ ~ +.~ *.$.+.u _.*X@X*X@X*X@X",
"#X#X#X#X#X=Xf = : y ~ +.~ ~ ~ @.,.f.j.l.i.6XsX<XpXgX9XsXgXsXgXaX9.2.k.j.M.:.*.! W =.+.R Q O.O.O.+.! +.! ~ $.#.d [ :X@X*X#X*XXX*X",
"#X#X#X#X*X$XU d 2 : r ^ o.O.O.O.+.,.f.j.l.i.iX9X1XgXaX8XgXfXfXv.>.f.j.j.j.j.-./ R ~ +.R Q +.~ O.! +.! O.O.+.o.u [.*X#X#X#X#X#X#X",
"#X#X#X#X[.%XC o.s : x < R o.O.O.~ ~ =.a.j.h.v.pX1XtXlX8XaXkX6X( p.j.j.j.k.:.W +.T ~ +.R W +.O.O.O.! +.O.! @.s t.=XXX#X#X#X#X#X#X",
"#X#X#X#X#X=Xy.j o.Q r x x y +.~ ! +.! *.2.h.a.1X0X<XgXsX8XgXX.j k.k.j.j.f./ R +.s ~ +.R Q +.O.O.O.+.! +.@.d C #X@X*XXX#X#X#X#X#X",
"#X#X#X#X#X-X(.p @.O.O.y x ; t +.+.! +.~ %.,.g.s.,X..0XgXgX1X:.6.:.j.j.j.2.W R +.T O.+.R Q O.~ O.! ! @.Q p 5 }.#X*X*X*X*X#X#X#X#X",
"#X#X*X@X*XXX-X) s %.O.p $ 3 : q ! +.~ ~ O.~ ,.f.8.:.v.zX6Xx.j.k.6.6.j.a.#.W R ~ T +.! T O.O.! +.#.+.s 3 ; /.=X*XwXrXrXwX*X*X#X#X",
"#X#XXX*XXXXX*X[.U s @.. o 9 1 * 1 Q +.~ +.~ ~ =.f.M.b.<Xc.l.j.j.k.a.p.,.~ Q Q W R +.^ R O.@.@.^ 9 9 2 x ~.*X@X*XrXrXyXrX*X@X#X#X",
"#X@X*X@X#X#X@X*X[.) d q   o p I O @ T ~ O.O.+.~ *.p.h.i.h.j.j.j.j.k.p.! +.y R Q R +.+.R $.y @ 5 > : G ^.XX#XXX*XrXyXrXrX;X#X#X#X",
"*X*X*X*X*X#X*X@X#X$X] a O   9 2Xr   o i W +.~ ~ ~ +.<.k.l.j.j.j.k.h.=.! ~ @ R Q W ! @ o @ x > B J G ^.*X#XXX#X*XwXrXrXrX*X@X*X#X",
"rXrXrXqX*X@X*X#XXX$X$X[ X . 8 8.E @   = x R +.O.~ ~ ~ ,.f.k.j.h.k.p.~ +.k o ~ Q T o X C N G F F F ~.*X#X#X#X#X#X*X*X*X*X*X#X#X#X",
"rXyXrXrX*X#X#X#X$XXXXXXX* = o...E ! @ < Z l m %.+.O.O.O.=.a.j.k.h.$.~ +.@ + @.Q - X G F G G J ] {.*X#X#X#X#X#X#X#X#X#X#XXXXX#X#X",
"rXyXrXrX*X*X*X#X*XXXXXXX; & = n I @.O.b D Z l n ! O.~ O.~ -.2.f.1.Q @.s   9 @.R . B G F L K q.w.'.#X#X#X#X#X#X#X*XXX#X#X#X#X#X#X",
"rXrXrXeX*X@X#X#XXXXX$XXXX , , + m @.O.I J.D D l v W +.~ +.O.+.*.+.~ +.o + i @.9 ; J V !.E.0.q.q.].#X#X#X#X#X#X#X#X#X#X#X#X#X#X#X",
";X*X;X*X#X#X#X#X#X#X@X;XC , z & 7 d @.I J.J.S A Z c R @.O.O.O.O.o.%.y   p R ~ O B G '  X'.].'.].#X#X#X#X#X#X#X#X#X#X#X#X#X#X#X#X",
"XXXXXXXX#X#X#X#X#X#X#X*X`.7 & . & X s I J.K.J.S A Z l T o.O.O.~ o.W . O ~ R s 4 J C { *X@X#X*X#X#X#X#X#X#X#X#X#X#X#X#X#X#X#X#X#X",
"#X#XXX*X#X#X#X#X#X#X#XXX@X).;   . & O O S J.J.J.J.Z A l b o.O.@.Q +   s @.T 3 V V V `.=X*X@X#X#X#X#X#X#X#X#X#X#X#X#X#X#X#X#X#X#X",
"#X#X#X#X#X#X#X#X#X#X#X#X#X%X`.;     & & Z P.K.P.K.D Z A z b W ^ #   1 +.O.i N F V t.=XXXXX*X*X#XXX&X+XXX#X#X#X#X#X#X#X#X#X#X#X#X",
"#X#X#X#X#X#X#X#X#X#X#X#X#X#X=X[.>     . D K.J.J.A c l '  .b       o R +.+.9 N G F  X#X#X#X#X#X@XE.Y.Y.W.XX#X#X#X#X#X#X#X#X#X#X#X",
"#X#X#X#X#X#X#X#X#X#X#X#X#X#X@X@XE.M .   Z Z c v V  . . .I.b     @ R +.+.^ 5 G V { -XXX#X#X#X#X@XT.U.U.Y.'.#X#X#X#X#X#X#X#X#X#X#X",
"#X#X#X#X#X#X#X#X#X#X#X#XXX*X*X@XQ.OXL M l '  . . . . .' c x - q Q +.~ ^ @ B F V ~.$X#X#X#X#X*X@XT.U.U.Y.+X#X#X#X#X#X#X#X#X#X#X#X",
"#X#X#X#X#X#X#X#X#X#X#X#X#X@X*X@XT.U.R.Q.' ,XI. .' c c b n m @.@.+.! +.T z G G ] XX#X#X#X#X#X#X].E.Y.Y.T.+X#X#X#X#X#X#X#X#X#X#X#X",
"#X#X#X#X#X#X#X#X#X#X#X#X#X#X*X@X'.'.@X(.V I.V l l B & p &.%.! ! ! @.p 4 ] V V ).$X[.#X#X#X#X#X#X+X'.'.].#X#X#X#X#X#X#X#X#X#X#X#X",
"#X#X#X#X#X#X#X#X#X#X#X#X#X#X#X*X*X#X*X{.H c !.).] ' C x y ! +.o.#.p + B G G } *X#X#X#X#X#X#X#X#X#X*X#X#X#X#X#X#X#X#X#X#X#X#X#X#X",
"#X#X#X#X#X#X#X#X#X#X#X#X#XXX#X#X#X#X#X#XoXXX#X*X*X|.} { x # p s 9 < J { ] |.=X$X#X#X#X#X#X#X#X#X#X#X#X#X#X#X#X#X#X#X#X#X#X#X#X#X",
"#X#X#X#X#X#X#X#X#X#X#X#X*X*X*X*X#X#X#X#X#X$XXXXX#X*X*X*X/.I.N f 4 y.>X$X*X$X#XXX#X#X#X#X*X*X*X*X#X#X#X#X#X#X#X#X&XXX&X].#X#X#X#X",
"#X#X#X#X#X#X#X#X#X#XXX*XwXrXrXwX*XXX*X#X#X#X#X#X#X#X#XXX$X=X:X-X:X=XXXXX$X#X#X#X#X#X#X*XqXeXeXqX*X#X#X#X#X#X#X&XW.Y.T.E.XX#X#X#X",
"#X#X#X#X#X#X#X#X#X#X#X*XrXrXrXrX*X#X#X#X#X#X#X#X#X#X#X#X#XXXXXXXXXXX$X#XXXXX#X#X#X#X#X*XqXuXuXeX*X#X#X#X#X#X*X].T.U.U.Y.'.#X&X#X",
"#X#X#X#X#X#X#X#X#X#X#X*XrXyXyXrX*X#X#X#X#X#X#X#X#X#X#X#X#X#X#X#XXXXX#X#X#X#X#X#X#X#X#X*XqXuXuXeX*X#X#X#X#X#X*X@XE.U.U.Y.&X#X#X#X",
"#X#X#X#X#X#X#X#X#X#X#X*XrXyXrXrX*X#X#X#X#X#X#X#X#X#X#X#X#X#X#XXXXX$X#X#X#X#X#X#X#X#X#X*XeXuXuXuX*X#X#X#X#X#X#X@XT.U.U.Y.'.#X#X#X"
};
