/* XPM */
static char *dd7fb5198f2b3ef_1__resized[] = {
/* columns rows colors chars-per-pixel */
"40 40 170 2 ",
"   c None",
".  c #010101",
"X  c #0A0304",
"o  c #06010A",
"O  c #08020E",
"+  c #0A0B0A",
"@  c #090B06",
"#  c #100307",
"$  c #130308",
"%  c #0F100D",
"&  c #0A0213",
"*  c #0F0319",
"=  c #11051D",
"-  c #131313",
";  c #1B1B1B",
":  c #2A0914",
">  c #1E201D",
",  c #1C082F",
"<  c #1F102D",
"1  c #1D0533",
"2  c #1D0932",
"3  c #20053C",
"4  c #240938",
"5  c #260837",
"6  c #28153A",
"7  c #232323",
"8  c #2B2B2B",
"9  c #333333",
"0  c #3F3F3F",
"q  c #5C1E33",
"w  c #561B38",
"e  c #580B25",
"r  c #630D2A",
"t  c #740F31",
"y  c #652137",
"u  c #2A094A",
"i  c #2F0758",
"p  c #340A5D",
"a  c #360B53",
"s  c #341552",
"d  c #360964",
"f  c #3B1163",
"g  c #631F42",
"h  c #732545",
"j  c #40136D",
"k  c #400A76",
"l  c #440B7C",
"z  c #451475",
"x  c #48236D",
"c  c #434343",
"v  c #47424B",
"b  c #4C4C4C",
"n  c #474847",
"m  c #505050",
"M  c #5C5C5C",
"N  c #6C6C6C",
"B  c #646265",
"V  c #716A77",
"C  c #757575",
"Z  c #7C7C7C",
"A  c #821137",
"S  c #881139",
"D  c #97133F",
"F  c #9D1442",
"G  c #B6174C",
"H  c #B5184C",
"J  c #B8184D",
"K  c #B9174D",
"L  c #AD1749",
"P  c #842B48",
"I  c #9E254D",
"U  c #A0234C",
"Y  c #A02C52",
"T  c #AB2954",
"R  c #BA2C5B",
"E  c #A3355A",
"W  c #AC385E",
"Q  c #B4315C",
"!  c #BC3361",
"~  c #BF3F69",
"^  c #B53B63",
"/  c #C03F6A",
"(  c #C4406C",
")  c #470B82",
"_  c #480C84",
"`  c #510D96",
"'  c #530D99",
"]  c #561695",
"[  c #572787",
"{  c #5A2490",
"}  c #5E0FAD",
"|  c #5A0EA5",
" . c #5C14A4",
".. c #5F1BA2",
"X. c #5F10AD",
"o. c #601BA3",
"O. c #600FB0",
"+. c #6212B2",
"@. c #6716B8",
"#. c #6815BC",
"$. c #691CB5",
"%. c #6E20BB",
"&. c #6F19C4",
"*. c #6C17C2",
"=. c #721ACA",
"-. c #7C1DDA",
";. c #7B1ED7",
":. c #7723CA",
">. c #7A24CF",
",. c #7322C3",
"<. c #7B24D1",
"1. c #7E22D9",
"2. c #8226DC",
"3. c #8624E6",
"4. c #8724E9",
"5. c #8925EC",
"6. c #8B29ED",
"7. c #8728E6",
"8. c #973EEF",
"9. c #8E27F3",
"0. c #8D29F0",
"q. c #9426FF",
"w. c #962BFF",
"e. c #992DFF",
"r. c #912BF7",
"t. c #9A34FF",
"y. c #9E3CFF",
"u. c #9532F8",
"i. c #994BE6",
"p. c #9F46F8",
"a. c #A64BFF",
"s. c #A141FF",
"d. c #AA54FF",
"f. c #AF5DFF",
"g. c #A65AF1",
"h. c #A964EE",
"j. c #B66DFF",
"k. c #B86FFF",
"l. c #B973FF",
"z. c #BD7AFF",
"x. c #858485",
"c. c #8A8A8A",
"v. c #959595",
"b. c #999999",
"n. c #A4A4A4",
"m. c #ADADAD",
"M. c #B4B4B4",
"N. c #BCBCBC",
"B. c #C285FF",
"V. c #C58AFF",
"C. c #CE9CFF",
"Z. c #D2A4FF",
"A. c #D7AEFF",
"S. c #D9B3FF",
"D. c #DEBEFE",
"F. c #C2C2C2",
"G. c #CACACA",
"H. c #D7D7D7",
"J. c #D9D9D9",
"K. c #E6CEFF",
"L. c #E0C0FF",
"P. c #E8D0FF",
"I. c #EDDBFF",
"U. c #E5E5E5",
"Y. c #EBEBEB",
"T. c #F2E5FF",
"R. c #F6EDFF",
"E. c #F4F4F4",
"W. c #FAF4FF",
"Q. c #FFFFFF",
/* pixels */
"        . . . . . . .     . . . . . . . . . . . . . .     . . . . . . .         ",
"        $ $ $ $ $ $ $     & & & & & & & & & & & & & &     $ $ $ $ $ $ $         ",
"    . . t F F F F F S $ o f | ` ` ` ` ` ` ` ` ` ` ' p . : D F F F F F e . .     ",
"    . X A G H H G G F X o l O.} } X.} } O.} } O.} } d . : L H H G G G r . .     ",
". $ t A T ! ! ! ! ! Y $ o ) O.=.4.4.3.3.3.3.3.3.*.} d . : Q ! ! R ! ! I A r . . ",
". $ F G ! ( ~ ~ ~ / E $ . ) } -.w.w.e.e.e.q.w.w.=.| d . : ^ / / / / ( R K A X . ",
". $ F H ! ~ ~ ~ E q w a p @.;.h.C.l.e.e.w.t.B.C.i.;. .p a q y ^ / / ~ R K A . . ",
". $ F H ! / / ( P . & ' O.4.w.Z.Q.S.w.q.q.t.I.Q.z.q.-.} _ . X E / / ~ R H A . . ",
". $ F H ! ( E P g 1 u @.&.g.k.C.L.C.j.j.j.l.A.D.V.j.i.&. .3 5 h P W ( R G A . . ",
". $ F G ! ( q . 1  .+.9.t.K.Q.V.q.z.Q.Q.Q.W.d.w.S.Q.Z.w.5.} ' * . P ( R J A . . ",
". $ S F Y E w & u @.&.p.a.D.T.z.q.z.Q.Q.Q.W.d.w.C.T.Z.a.8.@.X.1 * h E I D t . . ",
"    $ X $ X p ' @.9.p.I.T.j.y.t.q.z.Q.Q.Q.W.d.w.t.s.B.R.D.u.9. .' 5 # X $ $     ",
"    o o o . p O.=.q.a.R.W.f.q.w.q.l.W.Q.W.R.d.q.e.q.B.Q.K.t.r.#.O.3 o o o .     ",
". & k _ $.,.1.4.9.q.a.R.Q.f.w.w.w.y.f.f.f.f.y.q.e.q.B.Q.K.t.w.6.4. .l ) ) d o . ",
". & ` +.3.e.e.w.e.w.a.R.W.f.q.w.e.w.q.w.e.q.w.w.q.q.B.Q.P.t.w.w.w.&.} } } l o . ",
". & ` } 3.w.w.e.q.e.y.z.B.p.e.w.e.:.z f f z 7.e.e.w.d.V.l.e.w.e.e.3.-.&.} l . . ",
". & ` X.3.w.w.w.w.w.e.q.w.w.w.w.e.] . . . o >.e.e.w.w.q.w.w.w.w.w.w.e.1.| l o . ",
". * +.&.0.e.w.e.w.w.w.w.w.w.e.>...[ c c c v { ..2.e.w.e.w.w.w.w.w.e.w.3.=.` . . ",
". = 7.w.e.w.e.e.w.w.e.q.w.w.e.f . c N.N.N.m.7 . ..e.w.q.w.w.w.w.e.e.t.w.t.%.o . ",
". * %.<.>.>.>.>.2.w.w.e.w.2.<.x > M F.G.G.N.c > { <.7.e.w.w.w.<.>.>.<.<.<.] o . ",
". . O O & O & O s w.w.w.9.u O N M.G.Q.Q.E.E.N.M.v o z e.t.w.6.2 O & & & O O . . ",
". . @ @ @ @ @ @ s 0.0.0.7.4 . N F.H.Q.Q.Q.Q.G.N.c . f 0.0.0.2.< + + @ + @ X . . ",
". - c.b.v.b.v.b.V 2 2 2 , o . c.E.E.Q.Q.Q.Q.E.E.M . & 2 2 , 6 x.b.b.b.b.b.N @ . ",
". - n.N.F.N.N.F.x.. . . . . . v.Q.Q.Q.Q.Q.Q.Q.Q.M . . . . . % n.N.N.N.N.F.c.. . ",
". ; G.U.U.U.U.Y.F.C C C C C C N M b.Q.Q.Q.E.Z M N C C C C C x.H.U.U.U.U.Y.n.o . ",
". ; U.Q.Q.Q.Q.Q.Y.N.N.F.N.N.F.n . M Q.Q.Q.E.8 . C F.N.N.N.N.F.E.Q.Q.Q.Q.Q.N.X . ",
". ; c.b.U.Q.Q.Q.E.H.H.J.J.J.J.c.n N v.v.v.v.M b n.J.J.J.H.H.J.Q.Q.Q.Q.G.v.C @ . ",
"    . . M.Q.Q.Q.Q.Q.Q.Q.Q.Q.Q.J.N.C . . . X v.N.U.Q.Q.Q.Q.Q.Q.Q.Q.Q.Q.x.. .     ",
"    . o M.Q.Q.Q.Q.Q.Q.Q.Q.Q.Q.U.G.c.8 8 8 9 m.G.Y.Q.Q.Q.Q.Q.Q.Q.Q.Q.Q.c.. .     ",
"    . @ N.Q.Q.Q.Q.Q.Q.Q.Q.Q.Q.Q.Q.U.M.M.M.N.Y.Q.Q.Q.Q.Q.Q.Q.Q.Q.Q.Q.Q.x.. .     ",
"    . X m.Y.E.Q.Q.Q.Q.Q.Q.Q.Q.Q.Q.U.F.F.F.F.E.Q.Q.Q.Q.Q.Q.Q.Q.Q.Q.E.Y.Z . .     ",
"        7 7 v.Q.Q.Q.Q.Q.Q.Q.Q.Q.Q.Q.E.E.E.E.Q.Q.Q.Q.Q.Q.Q.Q.Q.Q.Q.N 7 7         ",
"        . . x.Q.Q.Q.Q.Q.Q.Q.Q.Q.Q.Q.Q.Q.Q.Q.Q.Q.Q.Q.Q.Q.Q.Q.Q.Q.Q.m . .         ",
"            0 b x.Q.Q.Q.Q.Q.Q.Q.Q.Q.Q.Q.Q.Q.Q.Q.Q.Q.Q.Q.Q.Q.E.N b 8             ",
"            . . b Q.Q.Q.Q.Q.Q.Q.Q.Q.Q.Q.Q.Q.Q.Q.Q.Q.Q.Q.Q.Q.Y.7 .               ",
"              . 0 x.x.c.c.U.Q.Q.Q.Q.Q.Q.Q.Q.Q.Q.Q.Q.G.x.x.x.x.7 .               ",
"                  . . . @ F.Q.Q.Q.Q.Q.Q.Q.Q.Q.Q.Q.Q.v.. . . .                   ",
"                  . . . @ b.N.N.N.M.N.N.N.M.N.N.N.N.Z . . . .                   ",
"                          X X o X @ X @ X o X o X X o                           ",
"                          . . . . . . . . . . . . . .                           "
};
