/* XPM */
static char *Adicionar_um_t__tulo_1__resized[] = {
/* columns rows colors chars-per-pixel */
"40 40 207 2 ",
"   c #080806",
".  c #13100E",
"X  c #151918",
"o  c #1B1C1B",
"O  c #251E1A",
"+  c #1D221F",
"@  c #27221D",
"#  c #3B271B",
"$  c #1D2121",
"%  c #1B2A24",
"&  c #1E3029",
"*  c #222523",
"=  c #2A2825",
"-  c #2B2D2B",
";  c #362D27",
":  c #26352D",
">  c #2D322E",
",  c #38322B",
"<  c #2B3732",
"1  c #2C3C35",
"2  c #343533",
"3  c #333A35",
"4  c #3B3A33",
"5  c #363D38",
"6  c #3B3C3B",
"7  c #482916",
"8  c #51311D",
"9  c #6B3A1E",
"0  c #753F1F",
"q  c #483425",
"w  c #5B3A29",
"e  c #4E3F36",
"r  c #623920",
"t  c #1C4634",
"y  c #2C4339",
"u  c #334137",
"i  c #33453D",
"p  c #3D423D",
"a  c #5A432F",
"s  c #4A483B",
"d  c #594637",
"f  c #475138",
"g  c #7A4525",
"h  c #6A4534",
"j  c #794C39",
"k  c #7E5137",
"l  c #2D4D40",
"z  c #3C4B44",
"x  c #2E5343",
"c  c #39564A",
"v  c #3D5F51",
"b  c #336149",
"n  c #3D6856",
"m  c #434543",
"M  c #454A44",
"N  c #484846",
"B  c #4C4E4C",
"V  c #564E45",
"C  c #43544D",
"Z  c #4C524C",
"A  c #5E5247",
"S  c #445A51",
"D  c #4A5A52",
"F  c #535453",
"G  c #545A54",
"H  c #5B5B56",
"J  c #565C5A",
"K  c #5B5C5B",
"L  c #755445",
"P  c #655E57",
"I  c #4E6C4C",
"U  c #486859",
"Y  c #5C625C",
"T  c #516A5E",
"R  c #776148",
"E  c #60665F",
"W  c #6A625E",
"Q  c #776656",
"!  c #697A55",
"~  c #605F60",
"^  c #566960",
"/  c #4C7464",
"(  c #4B7E69",
")  c #547966",
"_  c #537D6C",
"`  c #636462",
"'  c #646A63",
"]  c #6E6965",
"[  c #6B6B6B",
"{  c #716A65",
"}  c #7A6C63",
"|  c #6E746D",
" . c #77736E",
".. c #727372",
"X. c #777E76",
"o. c #7B7B7B",
"O. c #8E4C27",
"+. c #81533B",
"@. c #9A5D39",
"#. c #A0582C",
"$. c #A55C33",
"%. c #AD623B",
"&. c #855946",
"*. c #8A6B4F",
"=. c #996547",
"-. c #A96A47",
";. c #AB6C44",
":. c #B56F4D",
">. c #A87350",
",. c #BC7B56",
"<. c #857569",
"1. c #8F7B70",
"2. c #AE7A60",
"3. c #C07D54",
"4. c #C37C60",
"5. c #39966E",
"6. c #18A068",
"7. c #3EB07F",
"8. c #47856B",
"9. c #4D816C",
"0. c #578B76",
"q. c #528C75",
"w. c #57947B",
"e. c #688D75",
"r. c #7D827C",
"t. c #6E967B",
"y. c #86847D",
"u. c #B88665",
"i. c #B88C71",
"p. c #BD9276",
"a. c #CB835B",
"s. c #C98761",
"d. c #D68B69",
"f. c #D3936C",
"g. c #C89576",
"h. c #DB9876",
"j. c #E1936F",
"k. c #E59C79",
"l. c #5C9A81",
"z. c #679A87",
"x. c #5EA287",
"c. c #58A887",
"v. c #44B183",
"b. c #49B287",
"n. c #4EB589",
"m. c #53B68C",
"M. c #5CB993",
"N. c #63A68B",
"B. c #64AA8E",
"V. c #66AE91",
"C. c #63B795",
"Z. c #6BB395",
"A. c #6CB799",
"S. c #65BC98",
"D. c #6DBD9D",
"F. c #71B899",
"G. c #70BFA0",
"H. c #7CBBA3",
"J. c #6FC09F",
"K. c #6FC0A0",
"L. c #70C0A0",
"P. c #79C3A6",
"I. c #7DC4A9",
"U. c #838383",
"Y. c #848A83",
"T. c #8A8C8A",
"R. c #90928E",
"E. c #949694",
"W. c #9B9C9B",
"Q. c #A49D96",
"!. c #9FA09C",
"~. c #B5AD9C",
"^. c #A5A9A5",
"/. c #B6B3AB",
"(. c #D5A489",
"). c #D4AE96",
"_. c #EAA785",
"`. c #F1AD8B",
"'. c #F0B58F",
"]. c #E6AD91",
"[. c #E9B599",
"{. c #F5B997",
"}. c #D7B9A6",
"|. c #F0BEA2",
" X c #82C6AC",
".X c #87C8AF",
"XX c #87C8B0",
"oX c #8BC9B2",
"OX c #93CCB7",
"+X c #97CDBA",
"@X c #9BCEBD",
"#X c #9FD0BF",
"$X c #F9C19D",
"%X c #CDC1B5",
"&X c #E6C3AC",
"*X c #F9C4A1",
"=X c #F8C8AC",
"-X c #E9C7B3",
";X c #F9CDB4",
":X c #F8D0B8",
">X c #FAD4BC",
",X c #A1D0C1",
"<X c #D2CEC5",
"1X c #ECD7CB",
"2X c #F8D7C2",
"3X c #F9DAC6",
"4X c #FBDCC8",
/* pixels */
"6.6.v.G.G.G.L.L.L.L.L.L.N.t.0.Z M p p 5 * o y 9.q.9.q.A.L.L.L.L.L.L.K.L.K.L.L.K.",
"6.6.b.L.G.L.G.L.L.L.B.w.T C G Y Y G z s M M p 3 3 3 1 U 9.9.9.x.K.L.L.L.L.L.L.L.",
"b.b.M.L.G.m.m.S.J.N.T D Y | | ' E Y B G E Y Y Y Y Y Z 5 : + & q.K.L.L.L.K.L.L.K.",
"L.L.L.L.D.v.7.M.N.T Y | r.X.| ' E Y Z G E E ' ' Y Z Z M 2 1 9.D.L.L.L.L.K.K.L.L.",
"L.L.L.K.D.b.b.c.T Y | r.T.Y.r.' ' E Z f B Y E E Y G s - : ( D.D.K.L.L.P.P.P.L.L.",
"K.K.L.K.J.D.S.w.D | X.y.^./.R.r.| E Z p z Z E E Y Y Y M 3 n V.L.L.L.L.oX@XoXL.L.",
"L.K.K.K.K.K.N.z G Y r.^.^.E.y.| [ Y M Z G Y E G M G Y Y G 3 S B.L.K.L.OX,XOXL.L.",
"oXoXI.K.K.K.x.< Z Y R.W.t.| Y G Y Z p p F G Y Y Y D Z G Z M 2 n V.L.L. XXX XL.L.",
"#X,XoXK.L.D.( : M | Y.| H m > > - - - - - - 3 B F H Y Z 2 > > 2 v 9.V.K.K.K.K.L.",
"+X+X XK.L.V.y 2 M [ ' G  .<.} } } } } } } } } <.P 3 M Y G > o + X l N.K.K.K.L.L.",
"P.P.L.L.L.V.y 4 G G s Q &X3X3X3X2X3X3X3X3X3X3X3X).<.s m Y Z + : U c.L.L.L.L.L.L.",
"J.L.L.L.L.B.1 p Y s A (.>X4X4X4X4X4X4X4X4X4X4X4X3X-Xi.e s M - n D.L.L.L.L.K.L.K.",
"K.K.K.L.L.V.u 4 z 2 *.`.[.&X-X2X4X4X4X4X4X4X:X-X|.'._.>., 5 ; c M.L.L.L.L.L.L.L.",
"K.K.L.L.L.V.f k q a d.d.3.3.s.'.:X3X4X4X2X=Xh.4.,.a.j.4.; a r b n.J.L.L.L.L.J.L.",
"L.L.L.L.L.F.=.f.&.h d.j.d.f.d.d.`.;X>X>X*Xk.d.f.f.f.d.;.q -.;.! m.J.L.L.D.L.L.L.",
"L.K.L.K.L.Z.Q [.2.w :.%.0 9 0 $.h.$X$X$X{.a.O.9 9 O.:.@.w (.p.! D.L.L.L.L.L.L.L.",
"L.L.L.L.K.B.s (.i.g -.>.#   . 9 a.$X$X$X'.;.7     a >.@.+.].2.n L.L.L.L.L.J.L.L.",
"K.K.L.K.L.A.) R >.#.u./.B   o Q h.$X$X$X{.u.V . . 1.~.;.$.>.A w.L.L.L.L.L.L.L.L.",
"L.L.L.L.K.L.A.) q 9 i.<XK   N }.{.=X$X*X=X[.Q.@ X W.}.=.7 s w.K.L.L.L.L.L.L.L.L.",
"K.L.L.K.L.L.L.H.^ q 2.|.y.F U.1X;X3X>X>X>X:X%XP F /.}.@.e z.P.K.D.L.L.L.L.D.L.L.",
"L.K.L.L.L.L.L.P.F.U +._.].].}.4X3X4X2X2X3X4X3X}.).].f.a q.P.L.J.L.L.L.L.J.L.L.L.",
"L.L.K.L.L.L.L.L.L.9.a ,.`.{.|.3X>X>X*X=X>X>X>X*X{.k.=.p N.K.L.L.L.L.L.J.L.L.L.L.",
"K.L.L.L.L.L.L.D.D.D.( d =.(.{.|.$X*X$X$X*X$X$Xk.u.+.f w.D.L.L.L.L.L.L.L.L.L.L.J.",
"L.L.K.L.L.L.L.P.D.N._ u O w =.4.g.g.'._.p.g.u.j # O x 8.A.L.L.L.L.L.L.L.D.L.L.L.",
"L.L.L.L.L.L.L.D.N.^ J ~ B - $ q q e &.L q 8 # o 4 F ~ F _ A.G.G.L.L.L.P.L.L.D.L.",
"L.K.K.L.J.L.L.V.^ ~ o.o.[ F 6 2 F T.K [ U.m 2 m P o.U...J _ D.L.L.L.L.oX+XoXP.L.",
"J.L.L.L.L.L.L.z.B ..U.[ ~ F F B ..T.~ ..W.F F F J ~ ..U.^ D A.G.L.L.L.OX,XOXL.L.",
" X XP.L.L.D.D.w.F ..U.[ m m o.[ F ~ o...K F o.[ 6 B o.U.~ D B.G.L.L.L..XOX XL.L.",
"#X,XXXG.L.L.V.D ~ [ [ F = 6 ..o.U.W.U.U.^...U.~ - 2 ~ [ [ F / G.L.L.L.L.L.L.J.L.",
"@X@XXXG.L.D.w.F ..o.F i 2 6 F W T.!.~ ~ /...W m 6 3 z ` U.` T z.L.L.L.L.L.L.L.L.",
"I.I.P.G.G.Z.C F ..` - i N B F B { Q.P P T.F F B m S > m [ [ N / D.L.L.L.D.L.L.L.",
"G.G.G.G.G.V.C F ..[ - $ 2 F ~ 2 = P Q V 2 * m ` m 2 X m ..[ m / L.L.L.L.L.L.L.L.",
"G.G.K.K.L.V.u , N 4 X + z ` [ 2 6 2 , 2 e 2 m [ F 2 X * e m = U C.J.L.L.L.L.L.J.",
"G.G.K.K.L.Z.R +.w   t t o > - 6 [ B 6 6 K ` - 2 - * v $ . L +.I n.J.L.K.L.J.L.L.",
"L.L.K.K.L.L.t.Z , x 5.5.x 6 ~ ..[ N N N F ....F 1 / V.l.< 4 S v.m.J.L.L.L.L.L.L.",
"L.K.L.L.L.L.J.x.x.V.J.J.z.C ..!.U.6 % * F E.R.J / A.G.A.c.x.B.S.S.K.K.L.L.K.L.L.",
"K.L.G.L.L.K.K.L.P.L.L.L.Z.D [ W.T.N / C ~ E.T.B / G.P.G.G.L.L.L.L.L.L.L.L.L.L.L.",
"L.L.L.L.L.L.G.P.I.I.L.L.V.l B ] P 5 / c N { ` e U G.G.H.I.I.L.G.L.L.L.S.S.S.J.K.",
"K.L.K.K.L.K.K.XX,X+XL.L.V.- q V s @ U 1 ; A V @ n D.G.I.,X@XI.G.L.L.D.n.7.n.J.K.",
"L.L.L.L.G.L.L.XX,X@XP.G.Z._ _ t.e./ l.0.) e.e.( l.D.G.H.,X#XI.G.L.L.J.n.7.n.J.J."
};
