/* XPM */
static char *Adicionar_um_t__tulo_2__resized[] = {
/* columns rows colors chars-per-pixel */
"40 40 198 2 ",
"   c #060606",
".  c #0B0C0C",
"X  c #150D08",
"o  c #0D100F",
"O  c #131413",
"+  c #1A1A18",
"@  c #1B1C1B",
"#  c #281B17",
"$  c #16251F",
"%  c #2D231C",
"&  c #3A271E",
"*  c #182721",
"=  c #222422",
"-  c #292824",
";  c #2A2B2A",
":  c #372C26",
">  c #23332C",
",  c #2F322E",
"<  c #36332E",
"1  c #2A3631",
"2  c #293A33",
"3  c #343533",
"4  c #353A35",
"5  c #3B3A37",
"6  c #373C38",
"7  c #3B3D3A",
"8  c #4D2D1A",
"9  c #493825",
"0  c #583929",
"q  c #4B3E34",
"w  c #663F26",
"e  c #2C4438",
"r  c #3C413C",
"t  c #484137",
"y  c #41413A",
"u  c #554730",
"i  c #76482C",
"p  c #694532",
"a  c #3A4942",
"s  c #35584A",
"d  c #39584C",
"f  c #38735B",
"g  c #434442",
"h  c #444944",
"j  c #4F4942",
"k  c #4A4B4A",
"l  c #574D46",
"z  c #42554D",
"x  c #4D534D",
"c  c #545949",
"v  c #465952",
"b  c #525551",
"n  c #545A53",
"m  c #585B57",
"M  c #5B5D5A",
"N  c #60564F",
"B  c #615750",
"V  c #496658",
"C  c #4C6A5C",
"Z  c #536158",
"A  c #5D645D",
"S  c #597251",
"D  c #6C6C53",
"F  c #60665F",
"G  c #6F675E",
"H  c #497865",
"J  c #537868",
"K  c #626562",
"L  c #626861",
"P  c #6A6A66",
"I  c #6A6A69",
"U  c #6C726B",
"Y  c #657B6C",
"T  c #72756D",
"R  c #7A7369",
"E  c #737372",
"W  c #747A73",
"Q  c #7A7A74",
"!  c #7A7A7A",
"~  c #884D2B",
"^  c #97542E",
"/  c #9E643E",
"(  c #AE643B",
")  c #8C5C45",
"_  c #8C5C49",
"`  c #8D6A4F",
"'  c #B67148",
"]  c #A76D55",
"[  c #9B7A64",
"{  c #3B8868",
"}  c #1AA169",
"|  c #20A36D",
" . c #3EB07F",
".. c #4C816B",
"X. c #44896C",
"o. c #538470",
"O. c #558773",
"+. c #59957D",
"@. c #6B866F",
"#. c #7E837D",
"$. c #4BA17D",
"%. c #A6885F",
"&. c #BE825C",
"*. c #9C8B66",
"=. c #80867F",
"-. c #A58B64",
";. c #AA846E",
":. c #B48267",
">. c #B18A62",
",. c #B78C65",
"<. c #B38E77",
"1. c #C3835F",
"2. c #D28661",
"3. c #D78B6A",
"4. c #CF906C",
"5. c #C5977A",
"6. c #D99A76",
"7. c #EA9A79",
"8. c #E5A17E",
"9. c #3FB180",
"0. c #5D9B82",
"q. c #7B8A84",
"w. c #639783",
"e. c #5EA689",
"r. c #44B183",
"t. c #49B386",
"y. c #4EB589",
"u. c #54B489",
"i. c #52B58C",
"p. c #58B791",
"a. c #5BB992",
"s. c #61A58A",
"d. c #63A98D",
"f. c #75AB8A",
"g. c #64B48E",
"h. c #69AC91",
"j. c #75AC96",
"k. c #67B093",
"l. c #6AB295",
"z. c #62BB97",
"x. c #6CB798",
"c. c #65BC99",
"v. c #6DBE9D",
"b. c #77B798",
"n. c #72BC9C",
"m. c #76BCA1",
"M. c #6FC09F",
"N. c #71C09F",
"B. c #6FC0A0",
"V. c #70C0A0",
"C. c #7CC3A6",
"Z. c #7DC4A9",
"A. c #858584",
"S. c #848A83",
"D. c #8B8C8B",
"F. c #899088",
"G. c #969A95",
"H. c #A19386",
"J. c #9EA39D",
"K. c #87BA9D",
"L. c #B1A58A",
"P. c #A0A59F",
"I. c #AAAFA9",
"U. c #B3B2AD",
"Y. c #B6BAB5",
"T. c #D7A381",
"R. c #E7A986",
"E. c #EDAD8B",
"W. c #F1AA88",
"Q. c #EEB38E",
"!. c #ECB594",
"~. c #F3B591",
"^. c #F4B996",
"/. c #F6BE9C",
"(. c #F8BE9A",
"). c #CBB9A7",
"_. c #F6BEA0",
"`. c #83C6AD",
"'. c #87C8AF",
"]. c #8AC9B1",
"[. c #91CBB6",
"{. c #94CCB8",
"}. c #9CCFBD",
"|. c #9FD0BF",
" X c #FAC29D",
".X c #DDC1B0",
"XX c #EAC3AB",
"oX c #F5C3A6",
"OX c #FAC4A2",
"+X c #E7C9B5",
"@X c #FACEB4",
"#X c #EFD2BF",
"$X c #F7D3BC",
"%X c #A1D0C1",
"&X c #F3D4C0",
"*X c #FBD7C0",
"=X c #FBD9C4",
"-X c #FCDDC9",
/* pixels */
"} } t.B.B.B.B.B.N.N.s...2 @ , h h n F U #.#.@.b J +.l.N.N.V.V.N.V.V.V.V.V.V.V.V.",
"} } t.B.B.B.B.B.N.s.d 1 y k m A A A L Q J.U.Y.G.T Z o.l.V.V.V.V.V.V.V.V.V.V.V.V.",
"r.t.a.B.M.a.p.c.s.d r Z L A A n b Z L L P #.P.Y.Y.S.A o.x.n.V.N.V.V.V.V.B.V.V.V.",
"v.V.m.B.c.r.9.$.d 6 n A A n x x b Z L T Q =.J.I.P.S.W A O.v.V.V.V.V.v.V.v.V.V.V.",
"V.V.V.V.v.t.r.{ 1 n F n h h n F F F F U W F.P.I.G.T A m Z l.B.B.V.V.V.V.Z.V.V.V.",
"V.B.V.V.B.M.e.a r A b y y n A L F F A b x A W S.G.#.F x x J v.B.V.V.V.[.}.{.V.V.",
"B.B.B.V.v.V.e.> h b y r Z A F A A x h Z F W #.=.@.U A k g C v.n.V.V.V.{.%X{.V.V.",
"'.].Z.V.V.v.o.2 x r r h Z L A n y h A W #.P A Z n k r 7 3 d x.B.V.V.V.Z.].Z.V.V.",
"%X|.'.v.V.k.2 7 k r r b F F b y y n U U Z A R R G B n N l b x.N.V.B.V.B.B.V.V.B.",
"}.}.`.B.V.d.2 4 r r r n F b r r h M Z k R H.+X#X#X#X#X&X!.-.n.M.V.V.V.V.V.V.V.V.",
"C.C.V.V.V.d.2 4 r r r b b r r r r h r D .X=X-X-X-X-X-X-XoX-.b.M.B.B.B.B.B.B.V.B.",
"B.V.V.V.B.s.2 3 r r r h r r r r r 6 ; <.@X$X$X@X$X*X=X=X!.-.n.M.B.B.B.B.V.V.V.V.",
"B.B.V.V.V.d.> , 6 r r 6 r y t y , - < <. XR.4.1.&.6. X XR.%.g.a.z.B.B.B.V.V.V.V.",
"B.B.B.V.V.d.* $ 4 r r r u i ~ i : O ` !.^.8.6.3.2.2.R. X6.*.t. .y.B.B.B.V.B.V.V.",
"B.B.B.V.V.d.* O 4 4 r r i ' 4.' 8 o [ OX X2.( ^ ~ ^ 6. X,.f.u.$.p.v.V.V.B.V.V.V.",
"B.B.B.B.V.l.e @ - = r r p 6.oX3.) : [  XQ.( / w X w 8.Q.>.x.M.M.v.V.v.V.B.V.V.V.",
"V.V.V.V.V.v.0.* @ = 7 3 & [ _.W.^.;.5. XQ.&.L.Q O _ Q.~.>.b.v.v.V.V.V.V.V.V.V.V.",
"V.V.v.V.V.v.k.d o = 7 7 # 0 1.W. X X X XQ.&.).P.O _ /.oX,.K.V.m.V.V.V.V.V.B.V.V.",
"V.V.V.V.V.V.V.w.@ @ 7 5 + o & _ !. X X X^.R.+XU.k ;.@X$XT.L.Z.V.V.V.V.V.V.V.V.V.",
"V.V.V.V.V.V.V.m.C O ; = O . = ] E. X X X X XoXXX).+X=X=XQ.,.m.B.V.V.v.V.V.B.V.v.",
"V.V.V.V.V.V.V.Z.J o * @ . . : 3.8. X(. X X X/.oX@X=X=XoX4.*.n.M.V.B.V.B.V.V.V.V.",
"V.V.V.V.V.V.V.V.J o o o . . 9 3.7.W.^.(. X X/._.OXOX!.,.m f.N.M.V.B.V.V.V.V.V.V.",
"V.V.V.v.V.V.V.V.H       . . = ] 3.7.7.W.~.~.R.T.6.:.` u 0.M.N.M.V.V.V.V.v.V.V.V.",
"V.V.V.V.V.V.V.V.0.s *   O ; = ; i i ) ) _ _ p 8 9 e e X.M.N.M.N.V.V.V.V.V.V.V.V.",
"V.V.V.V.V.V.V.V.v.v.f . e C g g 5 k 3 ; < < P M a { f r.v.B.B.B.V.B.V.V.V.V.V.V.",
"V.V.V.V.V.V.V.V.V.V.0.H 0.z M ! ! ! K k k k D.A.Y h.c.v.v.m.B.B.V.B.V.].{.[.V.V.",
"V.V.V.v.v.V.V.V.v.V.B.B.k.v K D.! M 5 3 M K I ! b q.j.v.V.V.V.B.B.V.B.{.%X{.V.V.",
"Z.Z.Z.V.V.V.V.V.v.B.B.M.k.v v I I 7 ; 5 k I E A.b D.j.c.p.i.v.V.B.B.B.].{.].V.v.",
"%X%X].V.V.V.V.V.V.v.Z.Z.m.w.k I I g k M g k K E j q.m.i.} | p.B.V.B.V.V.V.V.V.V.",
"|.%XZ.V.V.V.V.V.V.V.v.v.m.O.g M E b g I K 3 B *.u O.v.i.| | p.B.V.B.V.B.V.V.B.B.",
"Z.Z.V.V.V.V.V.V.v.V.v.m.h.z 3 b E M 5 M L k c ` D v.V.v.p.p.v.B.V.V.V.B.V.V.B.V.",
"V.V.V.v.V.V.V.V.m.v.v.m.k.a = 7 N g ; k P U 4 9 S N.V.V.V.B.B.B.V.V.B.V.V.V.V.V.",
"V.V.V.V.V.V.v.V.V.B.z.z.p.2   # N 8   ; g q @ 3 0.v.v.m.V.B.c.z.c.B.B.B.V.V.B.B.",
"V.B.V.B.V.B.V.V.B.v.y.9.i.O.f 3 0 % 5 k 7 3 ; C x.v.m.v.V.B.y.9.i.B.B.B.B.V.V.V.",
"V.v.V.V.V.V.V.B.V.v.9.9.p.m.x.J 5 m D.G.b k 7 C v.V.v.v.B.v.i.9.i.B.B.B.V.B.V.B.",
"V.V.V.B.B.V.V.V.B.B.c.z.c.v.v.w.g E G.D.k g g J v.v.Z.v.B.B.c.z.c.B.V.V.V.B.V.V.",
"V.V.V.B.V.V.V.V.B.B.V.V.m.B.V.0.q P E b 3 q a 0.v.V.V.B.B.B.V.V.B.B.B.V.V.V.B.B.",
"V.V.V.V.v.V.V.Z.Z.Z.V.V.B.B.B...- t l q O - - s v.V.v.Z.Z.Z.V.V.B.B.B.c.c.c.B.B.",
"V.V.V.B.V.V.V.Z.|.}.V.V.B.B.B.e.V @.@.@.v C C ..v.V.V.Z.}.}.Z.B.B.V.B.i.9.i.v.B.",
"V.V.V.V.V.V.V.].|.}.Z.B.B.m.v.v.v.v.m.v.v.m.v.v.m.V.V.`.|.|.Z.v.B.B.B.y.9.y.v.B."
};
