/* XPM */
static char *Adicionar_um_t__tulo_2__resized[] = {
/* columns rows colors chars-per-pixel */
"40 40 205 2 ",
"   c #0A0A0A",
".  c #15100C",
"X  c #151513",
"o  c #181A18",
"O  c #1C1C1A",
"+  c #201108",
"@  c #241B18",
"#  c #16251F",
"$  c #1C211E",
"%  c #28211E",
"&  c #34261E",
"*  c #192522",
"=  c #1F312A",
"-  c #242624",
";  c #2A2624",
":  c #262825",
">  c #272B27",
",  c #2D2C2B",
"<  c #372E27",
"1  c #23332C",
"2  c #2D312D",
"3  c #243B2F",
"4  c #34322B",
"5  c #283432",
"6  c #293A32",
"7  c #333633",
"8  c #393534",
"9  c #363B37",
"0  c #353D3A",
"q  c #3B3D3B",
"w  c #442D19",
"e  c #4F301E",
"r  c #402E25",
"t  c #463629",
"y  c #543A2F",
"u  c #403C39",
"i  c #663D26",
"p  c #30453C",
"a  c #3C413C",
"s  c #48453A",
"d  c #544637",
"f  c #544239",
"g  c #47533E",
"h  c #784728",
"j  c #775327",
"k  c #6A4837",
"l  c #7A4E3A",
"z  c #2F5445",
"x  c #345145",
"c  c #375B4C",
"v  c #3D6857",
"b  c #434442",
"n  c #444A45",
"m  c #4B4944",
"M  c #4B4C4A",
"N  c #584E48",
"B  c #4E534D",
"V  c #52544E",
"C  c #5C5A49",
"Z  c #535453",
"A  c #545B54",
"S  c #5A5853",
"D  c #5A5C59",
"F  c #6C4D40",
"G  c #6A5748",
"H  c #735848",
"J  c #496759",
"K  c #566559",
"L  c #5D635C",
"P  c #44715F",
"I  c #5A7558",
"U  c #6A6053",
"Y  c #61655F",
"T  c #76675B",
"R  c #7E7056",
"E  c #4B7463",
"W  c #4B7B68",
"Q  c #557165",
"!  c #527667",
"~  c #557C6B",
"^  c #626562",
"/  c #646A63",
"(  c #6B6E66",
")  c #6B6B6B",
"_  c #746E68",
"`  c #637A64",
"'  c #6C726B",
"]  c #7A736B",
"[  c #727372",
"{  c #747B73",
"}  c #797C76",
"|  c #7A7B7A",
" . c #844D2D",
".. c #8A512F",
"X. c #87553B",
"o. c #965C39",
"O. c #A55D35",
"+. c #95663C",
"@. c #A86338",
"#. c #8D5D4A",
"$. c #8F6F50",
"%. c #A66848",
"&. c #A76B50",
"*. c #A67355",
"=. c #B6795B",
"-. c #8D796B",
";. c #C1734A",
":. c #C87E57",
">. c #C17E60",
",. c #348B65",
"<. c #3C946E",
"1. c #1AA169",
"2. c #2FA976",
"3. c #3EB07F",
"4. c #4E836D",
"5. c #4D8F72",
"6. c #538B75",
"7. c #56937B",
"8. c #5B937C",
"9. c #59987F",
"0. c #6B856F",
"q. c #7D837C",
"w. c #64917B",
"e. c #7A9C79",
"r. c #46A47C",
"t. c #93865C",
"y. c #A2835A",
"u. c #BE825F",
"i. c #878179",
"p. c #95897A",
"a. c #BD866C",
"s. c #B88F74",
"d. c #CA8158",
"f. c #C88C6E",
"g. c #D4936C",
"h. c #DE906C",
"j. c #DC9C77",
"k. c #E49C79",
"l. c #E9A27E",
"z. c #5D9C83",
"x. c #639A85",
"c. c #44B183",
"v. c #48B285",
"b. c #4EB589",
"n. c #51B084",
"m. c #52B68C",
"M. c #58B791",
"N. c #5BB992",
"B. c #62A48A",
"V. c #63A98D",
"C. c #6CAF8D",
"Z. c #64B091",
"A. c #6AB295",
"S. c #61BB96",
"D. c #6DB799",
"F. c #65BC99",
"G. c #6DBD9D",
"H. c #73B391",
"J. c #7BB39A",
"K. c #71BE9E",
"L. c #6FC09F",
"P. c #6FC0A0",
"I. c #70C0A0",
"U. c #7BC4A7",
"Y. c #7DC5A9",
"T. c #868785",
"R. c #838982",
"E. c #8D938C",
"W. c #959695",
"Q. c #989B96",
"!. c #9CA19B",
"~. c #BFA191",
"^. c #89B7A7",
"/. c #A8A8A4",
"(. c #AEB3AD",
"). c #B8BCB7",
"_. c #C89A83",
"`. c #DAA685",
"'. c #C1A998",
"]. c #EAA887",
"[. c #F1B18C",
"{. c #E2B696",
"}. c #F4B492",
"|. c #F5BB98",
" X c #F4BC9A",
".X c #CDB6A6",
"XX c #F2BFA1",
"oX c #83C6AD",
"OX c #87C8AF",
"+X c #8AC9B1",
"@X c #93CCB7",
"#X c #9CCFBD",
"$X c #9FD0BF",
"%X c #FAC19D",
"&X c #D0C8B9",
"*X c #F5C4A7",
"=X c #F9C5A3",
"-X c #E6CAB6",
";X c #F8CDB4",
":X c #F9D3BB",
">X c #FAD4BB",
",X c #A1D0C1",
"<X c #F7D8C5",
"1X c #F8D9C5",
"2X c #FBD9C4",
/* pixels */
"1.1.v.I.I.I.I.I.I.I.I.I.z.4.P * O - q n m m A 8.Z.I.I.I.I.I.I.I.I.P.I.P.I.I.I.P.",
"1.1.v.I.I.I.I.I.I.I.z.W p > 0 n n V L ' x.R.| D Q 8.A.I.I.K.I.I.I.P.I.I.P.I.I.P.",
"c.v.N.I.G.M.m.F.I.B.x 2 n B K Y Y L Y { W.(.).!.| K ~ A.I.I.I.I.I.I.I.I.I.I.P.I.",
"G.P.I.I.G.v.3.m.z.x a L Y Y D B B D L / ) q.Q.).).E.L ~ A.I.I.I.I.P.I.G.L.I.I.I.",
"I.P.P.P.F.c.<.c p a A L B n B A A L / { q.i./.(.!.q.{ L ~ D.P.P.I.I.I.U.I.U.I.I.",
"I.I.I.P.D.v 1 1 2 s n n x g A L / L Y / ' R.Q./.Q.{ L A K V.P.I.I.P.I.+X#X@XI.I.",
"P.P.P.P.I.7.1 o 2 7 9 a b S L / L L D B B L ' -.E.q./ n B ~ D.I.P.I.P.@X,X@XI.I.",
"OX+XU.P.P.G.7.# o $ , a Z Y / L K B n L ` { q.x.0.( L M a J D.I.I.P.I.oX+XoXI.P.",
",X$XOXP.I.G.W 2 7 0 q n K Y Y V b b L } q./ D K Z b 9 a 4 c D.I.P.I.I.I.P.I.P.I.",
"#X#XoXP.I.Z.6 9 a q a Z Y L V a b A ' ` K T i.i.] T _ H k C D.I.I.I.I.P.P.I.I.I.",
"U.U.I.I.I.V.3 7 a p a Z L B a a b A C M i.'.<X1X1X<X<X*Xh.y.J.P.I.P.P.I.I.I.I.I.",
"I.P.I.I.I.V.6 7 a a s V V a a a a a 8 _ -X2X2X2X2X<X*X}.h.y.K.I.I.I.I.I.I.P.I.P.",
"I.I.I.I.I.V.3 7 q d  . .d a a a a 9 : #.[.;X2X2X;Xj.u.d.;.y.Z.M.N.P.I.I.P.K.I.L.",
"P.G.P.I.I.V.= 2 d O.:.=.o.G U C 2 > t *.h.l.=X=X}.h.g.d.@.t.n.r.b.L.I.I.I.I.I.I.",
"P.P.P.I.I.V.* o t *.*X].l.{.`.s.t . w h @.k.|.%Xl.%.j @.+.e.b.r.m.L.I.I.P.I.I.I.",
"P.P.P.P.I.V.* o % l *X].}.%X%X`.k .   + ..l.%X%Xj.d X j +.L.L.L.G.P.I.P.I.I.P.I.",
"P.I.I.I.P.A.z o - r =.k.}.XXXX{.p.a   o &.}.%X X].F $ -.-.C.K.I.I.I.I.G.I.I.I.I.",
"I.I.P.I.P.P.z.* o X r k f.|.XX{.&Xi.  - a.=X=X%X].H 5 /._ ^.U.I.P.I.I.I.I.I.P.I.",
"I.P.I.P.P.I.D.J   - 2 : i _.XX X:X/.s N _.<X>X;XXX-.N /.V ^.U.L.P.I.P.I.I.I.I.I.",
"I.I.I.P.I.P.I.x.$ $ q : @ f `.XX*X.X.X.X;X2X2X<X2X{.`._.m ^.oXL.I.I.I.I.I.I.I.I.",
"P.P.I.I.P.I.I.G.v $ 0 $   % >.XX=X=X>X2X2X>X;XXX;X%Xl.@.a H.I.L.I.P.I.I.I.I.I.I.",
"I.I.I.P.I.P.I.I.6.5 7 O   % >.].}.|.=X=X=X=X=X X%Xl.%.d 9.L.I.L.I.I.I.P.I.I.I.I.",
"I.I.I.P.P.P.P.P.D.v $ 5 o o F =.h.k.}.}.}.|.[.k.u.X.g 5.L.I.I.L.I.P.I.I.I.I.I.I.",
"I.P.I.I.P.P.P.L.P.E = J Z 8 8 < i X.#.#.#.#.X.h e 3 ,.b.L.I.I.I.I.P.I.I.I.K.I.I.",
"P.I.P.I.I.I.P.I.I.z.P ^ ^ [ [ b 8 , N [ M ) D , q J r.m.P.P.P.P.L.I.I.I.I.I.I.I.",
"P.I.P.P.P.I.P.I.L.L.~ ^ | | | Z M b [ W.[ (./.M Z 0.Z.D.P.P.I.P.I.I.I.+X#X+XI.I.",
"P.P.P.P.I.P.I.I.L.L.~ ) T.) M , b ) S T.Z [ | D ^ x.G.I.I.I.I.I.L.I.I.@X,X@XI.I.",
"Y.oXU.P.I.I.I.P.L.L.~ D ) D , 0 b ^ ^ W.M | [ ^ ) x.K.F.M.m.F.I.I.I.I.OX@XOXI.I.",
"$X$XOXL.P.P.I.I.I.L.W Z ) Z q D M b M T.m ) | ^ ^ ! D.m.1.2.M.L.I.P.I.I.I.I.I.L.",
"$X$XOXL.I.I.I.P.I.L.W M ) ) b D ) M , -.j G i.Z M 0 7.M.1.1.M.L.P.K.I.I.I.I.I.I.",
"Y.Y.U.L.I.P.I.I.I.L.Q M ) ) M b ) D q f j R u 2 7 7 6.G.M.N.G.L.I.I.L.I.I.I.I.I.",
"L.L.P.P.I.I.I.P.I.L.' #.~.~.H 8 D [ M < w t 7 , y F w.P.P.P.P.P.I.I.I.I.I.I.I.L.",
"L.L.L.L.I.I.I.I.I.L.I &.k.u.e O u b ; O ; ; , - i %.e.I.I.I.F.N.F.I.I.I.I.L.I.I.",
"L.L.L.L.I.L.L.I.L.G.<.M y r X : M D M u 8 m ; < l $.H.I.I.I.b.c.m.G.I.I.I.I.I.I.",
"I.I.I.I.I.I.I.L.L.G.v.,.z W W n [ W.W.Z ; b q Z e.H.I.I.I.G.b.c.m.P.I.I.L.I.I.L.",
"I.I.L.I.I.I.L.L.L.L.F.N.V.G.B.b ^ W.W.Z 8 b b J I.I.I.I.I.G.F.S.F.G.I.I.I.I.I.I.",
"L.I.I.L.I.I.L.L.L.L.I.I.I.I.B.a Y ] S 8 s s 7 J G.I.I.I.I.I.I.I.P.P.I.I.I.I.I.I.",
"I.I.I.I.I.I.L.U.Y.Y.I.I.I.I.7.: f F f O r y & x G.I.I.I.Y.Y.I.I.I.I.I.F.F.F.L.I.",
"I.I.I.I.L.I.L.OX$X#XI.I.L.L.B.J Q 0.0.J K ` J 4.G.I.I.Y.#X#XY.I.I.I.G.m.c.b.L.I.",
"L.I.I.L.I.I.I.OX$X#XU.L.L.L.L.L.z.P z.4.E Z.G.L.I.I.I.oX#X,XY.G.P.I.P.b.3.v.L.L."
};
