/* XPM */
static char *Adicionar_um_t__tulo_2__resized[] = {
/* columns rows colors chars-per-pixel */
"40 40 198 2 ",
"   c #050505",
".  c #0B0C0B",
"X  c #120D0C",
"o  c #121312",
"O  c #181715",
"+  c #141916",
"@  c #1B1C1B",
"#  c #22150E",
"$  c #261B13",
"%  c #311C11",
"&  c #18211C",
"*  c #36251E",
"=  c #1B2A24",
"-  c #232523",
";  c #262A26",
":  c #2B2D2B",
">  c #362B25",
",  c #24312B",
"<  c #2C322E",
"1  c #3F332C",
"2  c #253C33",
"3  c #2A3832",
"4  c #333532",
"5  c #353B36",
"6  c #383A37",
"7  c #3B3E3B",
"8  c #442C1D",
"9  c #46352A",
"0  c #4F352C",
"q  c #5A3A2C",
"w  c #643C26",
"e  c #2D493D",
"r  c #3B413C",
"t  c #32493E",
"y  c #79401F",
"u  c #434025",
"i  c #5C402E",
"p  c #454137",
"a  c #534335",
"s  c #584B3D",
"d  c #6B4A3A",
"f  c #754C3C",
"g  c #7A503F",
"h  c #3A4942",
"j  c #385549",
"k  c #1D7A53",
"l  c #3A6755",
"z  c #444444",
"x  c #454A44",
"c  c #474C46",
"v  c #4A4C4A",
"b  c #584C44",
"n  c #44564F",
"m  c #4D524C",
"M  c #5E5043",
"N  c #475C53",
"B  c #525452",
"V  c #545A54",
"C  c #585D57",
"Z  c #5C5D5C",
"A  c #6A5B4C",
"S  c #456456",
"D  c #446E5C",
"F  c #4C6D58",
"G  c #52655B",
"H  c #5D635D",
"J  c #74604D",
"K  c #62655F",
"L  c #72645B",
"P  c #4A7564",
"I  c #487765",
"U  c #4A7A66",
"Y  c #577561",
"T  c #626761",
"R  c #646A63",
"E  c #686C67",
"W  c #666F68",
"Q  c #6A6B6A",
"!  c #766D64",
"~  c #6E746D",
"^  c #71746C",
"/  c #6E7170",
"(  c #737473",
")  c #757B74",
"_  c #7A7B75",
"`  c #7B7B7B",
"'  c #95532D",
"]  c #8A5332",
"[  c #AB643C",
"{  c #8E614A",
"}  c #94644A",
"|  c #AB714B",
" . c #BB7956",
".. c #887D73",
"X. c #C87E5A",
"o. c #1AA169",
"O. c #20A36D",
"+. c #3FB07F",
"@. c #4A866D",
"#. c #4F8771",
"$. c #558471",
"%. c #528B74",
"&. c #5B8872",
"*. c #57957C",
"=. c #59947D",
"-. c #708C74",
";. c #7C827B",
":. c #749374",
">. c #88837B",
",. c #8B9B76",
"<. c #949C78",
"1. c #B48666",
"2. c #B68B71",
"3. c #B79474",
"4. c #86A27D",
"5. c #C7835E",
"6. c #CD8D64",
"7. c #D88762",
"8. c #D28E69",
"9. c #CD936C",
"0. c #D5946D",
"q. c #C99675",
"w. c #DD9673",
"e. c #D89775",
"r. c #E69574",
"t. c #ED9C7B",
"y. c #D8A17D",
"u. c #E8A07E",
"i. c #5C9D83",
"p. c #619D84",
"a. c #78988B",
"s. c #5EA186",
"d. c #44B183",
"f. c #49B386",
"g. c #4DB489",
"h. c #52B68D",
"j. c #57B88F",
"k. c #58B791",
"l. c #57B890",
"z. c #5BB992",
"x. c #65A387",
"c. c #64A98E",
"v. c #66AE91",
"b. c #69B496",
"n. c #62BB97",
"m. c #6BB698",
"M. c #66BD99",
"N. c #6CBD9D",
"B. c #71BC9D",
"V. c #6FC09F",
"C. c #6FC0A0",
"Z. c #70C0A0",
"A. c #7BC3A7",
"S. c #7DC4A9",
"D. c #848983",
"F. c #8D8D8C",
"G. c #8C928B",
"H. c #969288",
"J. c #979896",
"K. c #84A784",
"L. c #9DA29C",
"P. c #B3A48E",
"I. c #A5AAA4",
"U. c #A6ABA5",
"Y. c #A9B3A7",
"T. c #B8B9AF",
"R. c #CFA183",
"E. c #E7AB8A",
"W. c #F1AE8D",
"Q. c #E8B28F",
"!. c #F2B18F",
"~. c #EDAE92",
"^. c #E8B696",
"/. c #F5B996",
"(. c #F5BA96",
"). c #D2BBAA",
"_. c #EDBFA1",
"`. c #83C6AD",
"'. c #86C8AF",
"]. c #8AC9B1",
"[. c #94CCB8",
"{. c #9CCFBD",
"}. c #9FD0BF",
"|. c #AFC8BE",
" X c #F9C19D",
".X c #DEC1AE",
"XX c #EEC6AC",
"oX c #F8C7A9",
"OX c #F1CDB6",
"+X c #FACEB3",
"@X c #F8D3BC",
"#X c #A1D0C1",
"$X c #D2D0CA",
"%X c #E5D6C9",
"&X c #F6D6C1",
"*X c #F6D8C4",
"=X c #FAD9C4",
"-X c #FCDDC9",
/* pixels */
"o.o.f.C.C.C.Z.Z.Z.Z.C.Z.Z.N.p.U m c c z < & @ t %.%.v.Z.B.Z.Z.Z.C.C.C.Z.C.Z.Z.Z.",
"o.o.f.Z.C.Z.C.Z.Z.C.Z.N.x.&.V E D.D.) R V m p r < , l %.m.Z.Z.Z.C.C.Z.Z.Z.Z.Z.C.",
"d.f.z.Z.N.k.j.n.C.Z.N.p.G R G.T.T.I.D.W K H H H V m 7 3 I m.Z.Z.C.C.V.V.C.Z.C.Z.",
"N.Z.Z.Z.M.f.+.j.B.B.p.G ( I.|.Y.G.~ R T K N B V K H H m 5 I m.B.C.C.C.V.C.Z.Z.Z.",
"Z.Z.Z.Z.M.g.f.k.B.x.G W ) G.U.Y.J.;.;.W H V V B m m G H m 3 j @.v.m.V.A.Z.A.Z.Z.",
"Z.Z.Z.Z.Z.C.M.N.N.&.m H R D.U.L.G.) W R R H H H v r p x x 5 : , h i.C.].{.[.Z.Z.",
"C.Z.Z.Z.Z.Z.Z.Z.s.S m V ) G.H.) W B v V H H H R H m r r 4 4 - + l b.Z.[.#X[.Z.Z.",
"].'.S.Z.Z.Z.Z.z.@.h p V K W -.>.;.~ R B x V H H K H x 5 - @ o j b.Z.Z.S.].`.Z.Z.",
"#X}.'.C.C.Z.Z.d.k , 5 5 r c V V H ( ;.~ m r x V H K m r 6 5 < h c.V.C.C.C.C.Z.C.",
"{.{.`.C.C.C.Z.f.@.a L L L ! >.>.^ V H ~ R m r x G R H x r r r , I Z.C.C.C.C.Z.Z.",
"A.A.Z.Z.C.C.C.C.:.q.@X*X*X*X*X*X).H.H v G m p r x C H x 6 r r ; D Z.C.C.C.C.Z.C.",
"N.Z.Z.Z.C.C.C.C.K.q.*X-X-X-X-X-X-X&XR.z r p r r 7 x V x r r r ; D C.C.C.C.C.Z.Z.",
"C.C.Z.Z.C.Z.C.C.4.9.+X=X@XOXoXOX@X+XXXs < 6 r r r r h r r r r ; l V.C.C.V.Z.Z.Z.",
"C.C.Z.C.B.Z.Z.C.4.6. X XE.5. .5.w.!.!.A : = 6 p p p r r r r 6 & l N.C.C.Z.Z.Z.Z.",
"Z.Z.Z.Z.C.Z.C.C.K.1.u. Xw.5.7.6.w.W. XR.1 O i ' ' d p r r r < . l N.Z.V.Z.Z.Z.V.",
"C.Z.C.Z.C.Z.Z.Z.Z.,.w. X| y ] ' [ u. XQ.1 # ' 5.6.[ i r 6 4 ; . l Z.Z.Z.Z.Z.Z.Z.",
"Z.Z.Z.V.Z.Z.Z.Z.Z.,.0./. .% # { | 6. XQ.a d X.~.oX} 9 r 4 - - = #.V.Z.Z.Z.Z.Z.Z.",
"V.Z.Z.Z.Z.Z.Z.A.'.<.0.oXe.* 6 T.2.0. X^.2.E.~.~.Q.i ; r 4 + + j B.Z.Z.V.Z.Z.Z.V.",
"Z.Z.Z.Z.Z.Z.Z.'.}.P.e.+Xe.> v $X3.0. X X(.oXW.8.] $ : r 3 . = *.V.Z.Z.Z.Z.Z.Z.Z.",
"Z.Z.Z.Z.Z.Z.Z.'.Y.3._.*X^.L _ %X^.Q. X XoX(.q.0 O . : r 4 . j V.Z.Z.Z.Z.V.Z.Z.Z.",
"Z.Z.Z.Z.Z.Z.Z.Z.4.6.oX=X&X.X_.oX X X X X X(.w.f . . + 4 < , *.V.Z.Z.Z.Z.Z.Z.Z.Z.",
"Z.V.Z.Z.Z.Z.Z.V.4.1.y.+X@X@XoXoX X X X X X!.t.} o X X ; < e b.Z.Z.Z.Z.V.V.Z.Z.Z.",
"Z.Z.Z.V.Z.Z.Z.Z.V.&.J q.!.oXoX(. X X X(.!.t.t.{ X .   X @ 2 b.Z.Z.V.Z.Z.Z.Z.Z.Z.",
"Z.Z.Z.Z.Z.Z.Z.Z.Z.V.%.d { 1.9.2.!.!.!.u.r.7.X.q .   .     2 b.Z.Z.Z.Z.V.Z.Z.Z.Z.",
"V.Z.Z.Z.V.Z.Z.Z.Z.Z.m.N h 3 8 > f g g g f w 0 - 2 =   . j U M.C.Z.V.Z.Z.A.V.Z.Z.",
"Z.Z.Z.Z.Z.Z.Z.V.Z.Z.C.i.s.I v D.Z : 6 : z v z v n l = & i.C.C.C.Z.Z.Z.].[.].Z.Z.",
"V.Z.Z.Z.Z.V.Z.Z.Z.C.C.C.B.a.R F.Q z v B ..` ` ( v $.*.%.m.Z.C.C.Z.Z.Z.[.#X[.Z.Z.",
"`.A.A.V.Z.Z.Z.V.Z.Z.C.B.a.( v F.Z Q z - z Q D.` v $.Z.M.h.h.M.C.V.Z.Z.'.[.'.Z.Z.",
"}.}.'.V.V.Z.V.Z.Z.Z.Z.B.F.` v J.Z Z z 7 : B Q Z x i.Z.h.o.O.k.Z.Z.Z.Z.Z.Z.Z.Z.Z.",
"}.}.`.V.Z.Z.V.Z.Z.Z.C.B.a.K b ` z z B Z 7 Z Q B P N.Z.h.O.O.z.Z.Z.Z.V.Z.Z.Z.C.Z.",
"`.A.A.V.V.Z.Z.Z.Z.Z.Z.Z.v.N ] ( 6 B ( B z Q Q z N c.Z.N.k.z.M.Z.Z.Z.Z.Z.Z.Z.Z.C.",
"V.V.V.Z.Z.Z.Z.V.Z.Z.Z.Z.A.x.w q 7 Z Z z z ( / z 6 U Z.Z.Z.Z.Z.Z.Z.V.Z.Z.Z.Z.Z.Z.",
"V.Z.Z.Z.Z.Z.Z.Z.Z.V.M.n.V.=.u 1 v ( Z : : v z : - / C.C.C.C.M.z.M.C.C.C.Z.C.Z.C.",
"V.V.Z.V.Z.Z.V.Z.V.N.g.+.j.b.F = - 7 6 O X f q . o U C.C.C.N.g.d.h.C.C.C.Z.Z.Z.Z.",
"Z.V.Z.Z.V.Z.Z.Z.Z.N.+.+.l.V.x.r 4 z v Z : 1 9 j i.v.C.C.C.C.g.d.h.C.C.C.C.C.C.C.",
"Z.Z.Z.Z.Z.Z.Z.Z.Z.V.M.n.V.V.s.r z z ( L.` z z v.N.Z.C.C.C.C.M.n.M.C.C.C.C.C.C.C.",
"Z.Z.Z.Z.Z.Z.V.V.Z.Z.Z.Z.V.V.c.S z r Q J.F.V S m.C.C.C.C.C.C.Z.Z.C.C.V.C.C.C.C.C.",
"Z.Z.Z.Z.Z.V.V.A.S.S.Z.Z.V.V.v.S 6 4 6 L ! b n m.C.C.C.A.S.S.Z.C.C.C.V.M.M.m.C.C.",
"V.Z.Z.V.Z.Z.V.'.}.[.Z.Z.V.Z.*.; > $ > b M 1 e b.C.C.C.S.{.{.S.C.C.B.C.h.d.g.N.C.",
"Z.Z.Z.Z.Z.Z.Z.'.}.}.A.V.Z.V.c.D Y S Y -.-.Y U N.C.C.C.S.}.}.S.C.C.C.C.h.+.g.V.V."
};
