/* XPM */
static char *Adicionar_um_t__tulo_2__resized[] = {
/* columns rows colors chars-per-pixel */
"40 40 205 2 ",
"   c #060606",
".  c #0B0C0C",
"X  c #0F1412",
"o  c #131514",
"O  c #191714",
"+  c #1D1E1C",
"@  c #24160D",
"#  c #2C1B12",
"$  c #231D19",
"%  c #19221E",
"&  c #29251E",
"*  c #392717",
"=  c #242523",
"-  c #232A26",
";  c #282A27",
":  c #2C2E2C",
">  c #342B25",
",  c #24352D",
"<  c #2C312D",
"1  c #36302E",
"2  c #253D34",
"3  c #343533",
"4  c #3A3634",
"5  c #353A35",
"6  c #383A36",
"7  c #3B3D3A",
"8  c #442D1F",
"9  c #58321C",
"0  c #463429",
"q  c #593E27",
"w  c #483B33",
"e  c #423E3C",
"r  c #583E32",
"t  c #623A23",
"y  c #2B453B",
"u  c #3C413C",
"i  c #484339",
"p  c #584239",
"a  c #67462B",
"s  c #7A4727",
"d  c #664733",
"f  c #754D35",
"g  c #3C4742",
"h  c #355347",
"j  c #3A5349",
"k  c #3C5E50",
"l  c #3D6756",
"z  c #267553",
"x  c #434443",
"c  c #454A45",
"v  c #474A48",
"b  c #4B4C4B",
"n  c #544A43",
"m  c #4C534D",
"M  c #56554C",
"N  c #4A5A52",
"B  c #535452",
"V  c #555B55",
"C  c #585E57",
"Z  c #575F5C",
"A  c #5B5D5A",
"S  c #675C47",
"D  c #7C5241",
"F  c #7A5747",
"G  c #695E55",
"H  c #466856",
"J  c #446B5B",
"K  c #4A6C5D",
"L  c #54625A",
"P  c #5D635D",
"I  c #60655E",
"U  c #746553",
"Y  c #566863",
"T  c #477864",
"R  c #4B7E69",
"E  c #5E7662",
"W  c #547A69",
"Q  c #636662",
"!  c #636A64",
"~  c #666966",
"^  c #6D6B66",
"/  c #6A6B6A",
"(  c #627C66",
")  c #6C726B",
"_  c #74756C",
"`  c #727471",
"'  c #797775",
"]  c #747A73",
"[  c #7B7D7A",
"{  c #915837",
"}  c #A2582C",
"|  c #866339",
" . c #9C673A",
".. c #B66C3F",
"X. c #846553",
"o. c #916A50",
"O. c #BA7149",
"+. c #BA7956",
"@. c #887568",
"#. c #857D72",
"$. c #C27A51",
"%. c #219666",
"&. c #16A067",
"*. c #18A068",
"=. c #22A46F",
"-. c #3FB07F",
";. c #4A836C",
":. c #4F8670",
">. c #538A73",
",. c #578B75",
"<. c #5D947D",
"1. c #59987F",
"2. c #65866C",
"3. c #7B817A",
"4. c #71967B",
"5. c #858159",
"6. c #858864",
"7. c #86827C",
"8. c #8B9B75",
"9. c #BB8665",
"0. c #AF8A75",
"q. c #CC8159",
"w. c #C88562",
"e. c #D38965",
"r. c #D6926B",
"t. c #D08E72",
"y. c #D59675",
"u. c #E39876",
"i. c #E5A37D",
"p. c #5E9981",
"a. c #689A86",
"s. c #4FA783",
"d. c #5BA685",
"f. c #44B183",
"g. c #49B386",
"h. c #4DB489",
"j. c #53B68C",
"k. c #57B890",
"l. c #5AB892",
"z. c #60A489",
"x. c #65AC8E",
"c. c #76B08D",
"v. c #68AE92",
"b. c #67B093",
"n. c #69B294",
"m. c #62BB97",
"M. c #6CB798",
"N. c #65BC99",
"B. c #6DBD9D",
"V. c #70BD9D",
"C. c #6FC09F",
"Z. c #6FC0A0",
"A. c #70C0A0",
"S. c #7AC3A7",
"D. c #7DC4A9",
"F. c #858584",
"G. c #868B85",
"H. c #888B88",
"J. c #9B8D81",
"K. c #8C918A",
"L. c #95908E",
"P. c #979B96",
"I. c #AE9C90",
"U. c #B7A496",
"Y. c #A4A7A3",
"T. c #ACB1AB",
"R. c #B8BBB7",
"E. c #D7A588",
"W. c #D9AF96",
"Q. c #CFB499",
"!. c #E9A584",
"~. c #F1AE8B",
"^. c #EFB18E",
"/. c #EBB897",
"(. c #F4B492",
"). c #F5BA97",
"_. c #F0B59A",
"`. c #F7BD99",
"'. c #F9BF9B",
"]. c #D7BEAE",
"[. c #F5BFA2",
"{. c #83C6AD",
"}. c #87C8AF",
"|. c #8AC9B1",
" X c #91CCB6",
".X c #95CCB8",
"XX c #9CCEBD",
"oX c #9FD0BF",
"OX c #BDC0BC",
"+X c #F7C09C",
"@X c #F9C19D",
"#X c #DEC0AC",
"$X c #EEC0A3",
"%X c #F9C3A2",
"&X c #F8C8AA",
"*X c #E2C7B4",
"=X c #F3CCB3",
"-X c #FBD1B7",
";X c #FAD5BD",
":X c #A1D0C1",
">X c #CCC9C0",
",X c #E3D3C6",
"<X c #FAD7C1",
"1X c #FAD9C4",
"2X c #FBDCC8",
/* pixels */
"*.*.g.Z.Z.A.Z.A.A.A.A.A.A.A.A.S.n.<.<.z.<.>.:.:.z.A.A.A.A.A.A.A.A.A.A.A.A.A.Z.A.",
"*.*.g.A.A.A.A.A.A.A.A.A.A.A.M.<.W m N m m 5 ; , j ;.:.v.A.A.A.A.A.A.A.A.A.A.A.A.",
"g.g.l.A.B.k.k.m.A.A.A.A.M.<.W L ] K.K.3.I P m v u < , k ;.M.A.A.A.A.B.A.A.A.Z.Z.",
"A.A.A.A.N.g.-.k.A.A.A.M.,.L ] P.R.R.P.3.! I I I I C m u 5 T M.A.A.A.A.A.Z.Z.A.A.",
"Z.A.Z.A.B.h.g.k.A.A.V.,.L 3.T.OXY.7.) ! I P m m C I P I m 5 T n.B.A.A.S.S.S.A.A.",
"A.A.A.Z.Z.B.B.B.A.A.<.C ) ] H.T.T.L.3.3.) P C L m v v V L v 5 y R x.B.|.XX XA.A.",
"Z.A.Z.Z.Z.Z.Z.Z.S.M.W M C ! K.Y.P.H._ I I I I I P m u g g i 6 < - y d. XoX XA.A.",
"|.|.D.Z.A.Z.Z.l.s.%.m c C 3.G.K.2.~ m b V L I ! I P m u u 1 < % % T V.{.}.{.A.Z.",
"oXoX}.Z.Z.A.A.f.&.z g x V Y / 3.3.[ ] ! B c M L I I P c 3 = % o l B.A.A.A.A.A.A.",
"XXXX{.Z.A.A.A.h.=.z : 6 6 e v B M L ] 3.) m u c L ! P M u 6 6 < h z.A.A.A.A.Z.A.",
"S.S.A.A.Z.Z.Z.B.l.2.f X.@.@.#.8.J.7.P P ) I b u c C I L i u u u ; ;.A.A.A.A.A.A.",
"Z.Z.Z.A.Z.Z.Z.A.A.8.q.^.-X2X2X2X1X*XU.G v L c u u c C P g 6 u u ; ;.A.A.A.Z.Z.A.",
"Z.Z.A.A.A.Z.A.A.A.8.q.i.+X=X;X2X2X2X;XI.e 6 u u u u c V i u u 6 - R A.A.A.A.A.A.",
"Z.Z.Z.A.A.A.A.Z.A.8...q.q.9.+X-X;X;X(.9.0 < 5 u u u i s { f i u - R A.Z.Z.A.Z.A.",
"Z.Z.A.A.A.A.A.A.A.K. .O.e.r.i.@X%X^.u.q.a ; = m U U o.O.w.O.s 5 % R A.A.A.A.A.Z.",
"Z.Z.Z.A.Z.A.Z.A.A.A.5.} s s r.+X@X~.O.s 9 O & o.^./.^.!.$Xy.a - . R A.A.A.Z.A.A.",
"A.A.A.B.A.A.A.A.A.A.6.{ * # $.).@X`.+.*   . > 9.@X@X`.~.[.0.& & . R Z.Z.Z.Z.A.Z.",
"A.A.A.A.A.A.V.D.}.}.6.J.v : t.'.@X@Xt.q   ; 7.Q.@X@X`.!.q.r + + 2 p.Z.Z.A.Z.A.A.",
"A.A.A.A.A.A.A.}.:XXX( I.Z 1 t.[.%X&X!.p . x >XQ.'.`.y.D 8 + o o J A.Z.A.Z.A.Z.Z.",
"A.A.A.A.A.A.A.}.XX.XY L.7.G W.-X;X<X[.@.n ' ,X+X+XE.F < < : . 2 d.A.A.A.A.A.A.A.",
"A.A.A.Z.A.A.A.A.D.S.l o.!.W.=X2X<X2X<X*X].#X&X@X(.U + + 5 < X l V.A.A.A.A.A.A.A.",
"A.A.A.A.A.A.A.A.V.Z.T d e.(.&X&X[.;X<X<X;X&X'.`.!.d . o 3 : 2 x.A.A.A.A.A.A.A.A.",
"A.A.A.Z.A.A.A.A.A.A.v.H f e._.[.'.%X%X%X%X@X).~.t.r   X : , l Z.A.A.A.A.A.A.A.A.",
"A.Z.A.A.A.V.A.A.A.A.A.M.Y t o.$.i.^.~.^.~.!.e.+.D * o 2 = 2 b.Z.A.A.A.A.A.A.A.A.",
"B.A.A.A.A.A.A.Z.A.A.A.A.n.l : 9 t D D D D D t 1 1 e b Y h y l.A.A.A.A.A.A.A.A.A.",
"A.A.A.A.Z.A.A.A.A.A.A.A.M.a.b 3 B F.A / / 4 4 e Q [ / Q Y :.B.A.A.A.A.}.XX|.A.A.",
"A.A.A.A.A.A.Z.A.A.A.A.A.V.a.A b ' OX' F.F.b b b / [ [ ' Z n.A.A.A.A.A. X:X.XA.A.",
"{.D.S.B.A.Z.A.A.A.A.A.A.A.v.~ Q / F.b F./ / A 1 4 A [ [ k s.B.A.A.A.A.}. X}.A.A.",
":XXX}.Z.Z.A.Z.A.A.A.A.A.V.v.Y ` Q F.b F./ ~ x x : e / Q j %.l.A.Z.A.A.A.A.A.A.A.",
"XXXX}.Z.A.A.A.A.A.A.A.A.M.p.B / / F.p ' A b x A v v / Q h %.l.A.A.A.A.Z.A.A.Z.A.",
"D.D.S.B.A.A.Z.A.A.A.A.A.v.j e b / ` t @.x 3 / ~ x A ` B j s.B.Z.A.A.A.A.A.A.A.Z.",
"A.A.Z.A.Z.A.Z.A.A.A.A.A.v.g 1 1 = G { t e b ~ b e ~ ' A j n.A.A.A.Z.A.A.A.A.A.Z.",
"A.A.A.A.A.Z.A.Z.A.B.m.m.x.S f 6 3 1 * > 4 / / x w J.W.+.U v.B.m.N.A.A.A.A.A.Z.A.",
"A.A.A.A.A.A.A.A.A.B.g.f.d.o.{ * = : > = + 4 e = @ { E.+.M b.j.-.h.B.A.A.A.Z.A.A.",
"A.Z.A.A.A.Z.A.A.A.B.g.f.k.4.| a ; e 7 4 B / A e + = 0 p >.M.h.f.j.B.A.A.A.A.A.Z.",
"A.A.A.Z.A.A.Z.A.Z.Z.m.l.C.C.c.2.e x : 3 F.Y.F.b J p.J ,.B.Z.N.m.N.A.A.A.A.Z.A.A.",
"A.Z.A.A.Z.A.A.A.A.A.A.A.C.C.A.1.x x i x [ P.[ v W A.M.B.A.A.A.A.A.Z.A.A.A.A.Z.A.",
"A.A.A.Z.A.A.B.S.D.D.A.A.C.C.A.<.3 w n 1 e ^ ^ x K B.A.S.D.D.A.A.A.A.A.N.m.B.Z.Z.",
"A.A.A.A.B.A.A.}.oX.XA.A.A.A.A.:.& w w $ 0 M d > k B.B.D.XXXXD.A.A.A.B.j.f.h.C.Z.",
"Z.A.Z.A.A.A.A.}.oXXXS.A.A.A.A.d.H E E H ( 3.2.K p.M.B.D.oXoXD.A.Z.A.Z.h.-.g.C.Z."
};
