/* XPM */
static char *Adicionar_um_t__tulo_2__resized[] = {
/* columns rows colors chars-per-pixel */
"40 40 164 2 ",
"   c #040505",
".  c #0B0C0B",
"X  c #0B100E",
"o  c #1E130D",
"O  c #0D1311",
"+  c #131513",
"@  c #1E1713",
"#  c #161817",
"$  c #161C19",
"%  c #1A1C1A",
"&  c #221B17",
"*  c #2D1F19",
"=  c #15201B",
"-  c #1D211F",
";  c #2B211B",
":  c #36241B",
">  c #1B2823",
",  c #1D3229",
"<  c #212522",
"1  c #2A2625",
"2  c #262926",
"3  c #262C28",
"4  c #2A2D2A",
"5  c #3C2B24",
"6  c #20332B",
"7  c #2D322E",
"8  c #27382E",
"9  c #37392D",
"0  c #2A3B33",
"q  c #2E3B35",
"w  c #323532",
"e  c #3D3733",
"r  c #353A35",
"t  c #373D3A",
"y  c #3A3D3A",
"u  c #4C2F1F",
"i  c #4A3427",
"p  c #483E38",
"a  c #124E35",
"s  c #2C493D",
"d  c #3F4030",
"f  c #33443D",
"g  c #3C413C",
"h  c #43423E",
"j  c #5A473A",
"k  c #6C442B",
"l  c #694532",
"z  c #394D45",
"x  c #355649",
"c  c #395448",
"v  c #365C4D",
"b  c #385C4E",
"n  c #1B744F",
"m  c #3C6253",
"M  c #3D6957",
"N  c #3E6B59",
"B  c #424542",
"V  c #4A4745",
"C  c #444A44",
"Z  c #474E4B",
"A  c #4C4D4C",
"S  c #5D4C40",
"D  c #4C524C",
"F  c #50554F",
"G  c #55574D",
"H  c #4D5350",
"J  c #535553",
"K  c #545A54",
"L  c #585E57",
"P  c #5C5D5B",
"I  c #486A57",
"U  c #426B5A",
"Y  c #53655E",
"T  c #5D635C",
"R  c #796149",
"E  c #60665F",
"W  c #497463",
"Q  c #487865",
"!  c #517F6C",
"~  c #616760",
"^  c #646A63",
"/  c #686E67",
"(  c #6A6B6A",
")  c #6D736C",
"_  c #70766F",
"`  c #737473",
"'  c #737A72",
"]  c #787F77",
"[  c #7B7C7A",
"{  c #9A5631",
"}  c #815844",
"|  c #986641",
" . c #A16346",
".. c #B6795B",
"X. c #15905D",
"o. c #3F8D6D",
"O. c #1AA16A",
"+. c #20A36D",
"@. c #3FB07F",
"#. c #43876B",
"$. c #4D826D",
"%. c #4E8670",
"&. c #548471",
"*. c #528B75",
"=. c #5B8D77",
"-. c #549279",
";. c #5B957D",
":. c #7C827B",
">. c #45A27C",
",. c #80867F",
"<. c #B38D7D",
"1. c #D6946F",
"2. c #DC9778",
"3. c #5C9780",
"4. c #5E9C83",
"5. c #629F86",
"6. c #44B183",
"7. c #49B386",
"8. c #4DB489",
"9. c #52B68C",
"0. c #58B791",
"q. c #57B890",
"w. c #5BB992",
"e. c #61A78B",
"r. c #68A589",
"t. c #64A98D",
"y. c #73AB8A",
"u. c #67AD91",
"i. c #73AA96",
"p. c #67B093",
"a. c #68B395",
"s. c #62BB97",
"d. c #6BB799",
"f. c #66BC99",
"g. c #6DBD9D",
"h. c #6FC09F",
"j. c #6FC0A0",
"k. c #70C0A0",
"l. c #7AC4A7",
"z. c #7DC4A9",
"x. c #848383",
"c. c #858B84",
"v. c #888F87",
"b. c #8D8D8D",
"n. c #8C928B",
"m. c #919191",
"M. c #949A93",
"N. c #989E97",
"B. c #9F9F9F",
"V. c #B99380",
"C. c #83AE9F",
"Z. c #9FA49E",
"A. c #AAAFA9",
"S. c #AEB2AD",
"D. c #CEB5A6",
"F. c #83C7AD",
"G. c #87C8AF",
"H. c #8AC9B1",
"J. c #91CBB6",
"K. c #95CCB9",
"L. c #9CCFBD",
"P. c #9FD0BF",
"I. c #F7C09F",
"U. c #A1D0C1",
/* pixels */
"O.O.7.k.k.k.k.k.k.k.k.k.k.k.k.a.*.c 4 D T 7 7 7 < # m a.k.h.h.h.k.k.k.k.k.k.k.k.",
"O.O.7.k.k.k.k.k.k.k.h.k.k.a.*.U q h T E T T K F F 7 - W ;.g.k.j.k.g.k.k.k.k.k.k.",
"6.6.w.k.g.0.0.s.k.k.k.k.d.Q 8 r K L ~ E E ^ E E E G w w q $.g.k.k.k.k.k.k.k.k.k.",
"g.j.k.k.g.6.@.0.k.k.k.d.Q r C K T E ~ ~ E ^ E E E E T C r q ! g.k.k.k.k.k.g.k.k.",
"k.j.k.k.g.8.6.w.k.k.g.Q q g T E E ~ E ^ E E E ^ ~ ( ..( B r q $.k.k.k.l.l.k.k.k.",
"k.k.k.k.h.f.g.h.h.k.a.c r K T E ~ E ~ ~ ^ E E E ~ ! [ 3.T g 4 x e.d.k.J.L.J.k.k.",
"j.j.k.k.j.k.j.j.k.k.=.D K E E T T E E E E ^ E ^ ~ ~ / c.) G 7 - > Q g.J.U.J.k.k.",
"G.H.l.j.k.j.j.w.6.>.m g G E K C K E ~ ~ E E E E ~ ~ ) A.c.L g 2 X = 3.F.H.z.k.k.",
"U.P.G.j.j.k.k.6.X.a > g C D B D E E ^ E ~ ~ ~ E ~ ^ b.A...P Z t % X 3.k.k.k.k.k.",
"L.L.F.j.k.k.k.8.n = g K g g B T E E E E ~ E ~ E ~ ^ m.N.&.Y H y % X *.k.k.k.k.k.",
"l.l.k.k.j.j.j.h.#.7 D C D D B F E E ^ E E ~ E ^ ` ] [ 5.^ Z Z y - O 3.k.k.k.k.k.",
"h.j.j.k.j.j.j.k.=.C D D T ^ E D T ^ E ~ E ~ / :.M.N.' ] P B y y 6 $ 3.k.k.k.k.k.",
"h.h.k.k.j.k.k.k.;.D D K ^ :.:.K T T ^ ^ ^ ) :.:.M.,./ / ~ H g g t 3 ! g.k.k.k.k.",
"j.j.k.j.j.k.k.k.;.C B K ^ :.' :.:.) :.c.n.N.Z.] ' _ E E ~ K z g t w f 3.g.k.k.h.",
"j.k.k.k.k.k.k.k.;.t g D T ^ ) :.n.Z.c.v.A.S.c./ ^ ^ E T T J y y t r 3 , 3.d.k.k.",
"j.j.j.k.k.j.k.k.&.3 y g L E E ^ _ ,._ / ,.,./ E ~ E T J F B y y 3 - + , M a.k.k.",
"k.k.k.k.k.k.k.k.$.> w y D T ~ ~ E ^ E E ^ E E ^ T ^ E T h g g f < X s 4.d.k.h.k.",
"k.k.k.k.k.k.k.l.i.z % w g D T ~ E E E E K T ^ T E E T T C g g d 7 $ 3.g.k.k.k.k.",
"k.k.k.k.k.k.k.H.U.C.f $ w z D T E E ^ T C D T T T T E T B g w 7 > v u.k.k.k.k.k.",
"k.k.k.k.k.g.g.F.L.K.W + @ w g C G E E D g g T K g Z K F D g r < = ! k.k.k.k.k.k.",
"g.k.k.k.k.k.k.l.z.l.e.0 . % w y g G T C g g h g g g g h g g g 2 x p.k.k.k.k.k.k.",
"k.k.k.k.k.k.k.k.k.k.g.s o o $ w g g h g g g g g g t 2 7 g g r - N k.k.k.k.k.k.k.",
"k.k.k.k.g.k.k.k.k.k.g.U u u 5 @ 3 r w t g g g g g g r % 7 g 4 . b k.k.k.k.k.k.k.",
"k.k.k.k.k.k.k.k.k.k.g.a.I l  .i . # $ - w g g w 9 t t $ # < $ = 3.k.k.k.k.k.k.k.",
"h.k.j.k.k.k.k.j.k.k.k.k.p.U p l * : 1   # 4 y 1 # 7 3 $ b m v %.k.k.k.k.k.k.k.k.",
"k.k.j.j.j.k.k.k.k.k.k.k.k.a.! H * : *     . < -   + O v a.j.j.j.k.k.k.G.K.J.k.k.",
"g.h.h.h.k.k.j.k.k.k.k.k.k.k.i.Y J P P y y w 1 +     % 3.k.j.k.j.k.k.k.J.U.J.k.k.",
"F.F.l.g.j.j.k.k.k.k.k.k.k.k.5.Z [ B.b.J P ( ( A h % < -.q.0.f.k.k.k.k.G.J.G.k.k.",
"P.P.G.j.k.j.k.k.k.k.k.g.k.k.5.A [ B.[ V J ( ` ( P Z r o.O.+.q.j.k.k.k.k.k.k.j.k.",
"P.P.G.h.k.k.k.j.k.k.k.k.k.k.5.A ` b.` V V ( P J ( H t #.+.+.w.k.j.k.k.k.k.k.k.k.",
"l.z.l.g.k.j.k.j.k.k.k.k.k.d.! P [ b.` h V P P J ~ A y -.q.w.g.j.j.k.j.k.k.k.k.j.",
"h.h.k.j.k.k.k.k.k.k.k.k.k.u.H ( m.x.P e A P J A P ~ z 4.k.k.j.j.k.k.k.k.j.k.k.j.",
"h.k.k.j.k.h.k.h.k.h.s.s.h.u.R <.D.V.} p P P P J P ` J 3.k.h.f.s.f.h.h.h.j.k.k.k.",
"j.j.k.k.k.k.k.k.h.g.7.6.9.y.| 2.I.1.{ j P ( P ( ( P y 3.k.h.8.6.8.h.k.k.k.k.j.k.",
"k.k.k.j.k.h.k.k.j.g.7.6.q.r.h k ..l * e J P P J P A y 5.k.h.8.6.8.h.j.k.k.j.j.j.",
"k.j.k.k.k.k.j.k.j.h.s.w.g.g.#.8 e & 1 y y h h h y y &.d.k.h.f.s.f.h.j.k.j.j.j.j.",
"j.k.k.h.k.k.k.k.k.k.k.k.h.k.g.t.5.M P ` ~ A w e w W g.k.k.k.k.k.k.k.k.k.k.k.h.j.",
"j.k.k.k.k.k.g.l.z.z.k.k.k.k.k.k.k.W P ` ( P y L V ! k.l.z.z.k.k.k.k.j.f.f.f.h.h.",
"k.h.k.h.h.k.h.F.P.P.k.k.k.k.k.k.j.U 1 p J p 2 h w Q k.z.L.L.z.k.k.j.h.9.6.8.h.h.",
"k.k.k.k.k.k.h.H.P.K.l.h.h.k.h.k.j.b ; j S i @ 5 % Y k.z.P.L.z.k.k.k.h.8.@.8.h.h."
};
