/* XPM */
static char *Adicionar_um_t__tulo_2__resized[] = {
/* columns rows colors chars-per-pixel */
"40 40 161 2 ",
"   c #080807",
".  c #0C0C0C",
"X  c #18120F",
"o  c #0F1010",
"O  c #141514",
"+  c #171917",
"@  c #171918",
"#  c #1A1C1A",
"$  c #2D180B",
"%  c #321C0F",
"&  c #2C1C16",
"*  c #241D18",
"=  c #12201B",
"-  c #1B221E",
";  c #21201C",
":  c #2B251F",
">  c #1D2421",
",  c #1E2A24",
"<  c #193429",
"1  c #222422",
"2  c #252925",
"3  c #252D2A",
"4  c #2A2D2B",
"5  c #342C28",
"6  c #24362D",
"7  c #2D312D",
"8  c #273731",
"9  c #2D3531",
"0  c #253B31",
"q  c #323532",
"w  c #353A35",
"e  c #313F38",
"r  c #3A3D3A",
"t  c #52352A",
"y  c #533D30",
"u  c #2C4339",
"i  c #2D483D",
"p  c #37423E",
"a  c #3C413C",
"s  c #45403F",
"d  c #5E4F37",
"f  c #55453A",
"g  c #58473C",
"h  c #65462F",
"j  c #674C38",
"k  c #754938",
"l  c #304B40",
"z  c #3C4B45",
"x  c #355146",
"c  c #3B544A",
"v  c #375D4B",
"b  c #3A5B4C",
"n  c #3A5F50",
"m  c #3F6B59",
"M  c #434543",
"N  c #4A4543",
"B  c #454A45",
"V  c #484D47",
"C  c #464C4A",
"Z  c #4B4D4B",
"A  c #504F4F",
"S  c #4D524C",
"D  c #40594F",
"F  c #5D5F44",
"G  c #50554F",
"H  c #465750",
"J  c #4F5351",
"K  c #425D52",
"L  c #495E56",
"P  c #535553",
"I  c #555A54",
"U  c #575956",
"Y  c #5A5C56",
"T  c #5A5D5A",
"R  c #605E5C",
"E  c #5A7048",
"W  c #4A6357",
"Q  c #4B6957",
"!  c #47675A",
"~  c #4D645B",
"^  c #436B5B",
"/  c #566F57",
"(  c #5D635C",
")  c #43715E",
"_  c #60665F",
"`  c #4B6F61",
"'  c #487463",
"]  c #487663",
"[  c #4C7D69",
"{  c #567363",
"}  c #527B6A",
"|  c #616760",
" . c #646A63",
".. c #686E67",
"X. c #6B6B6B",
"o. c #6D736C",
"O. c #70766F",
"+. c #737373",
"@. c #747A73",
"#. c #7B7B7B",
"$. c #348965",
"%. c #18A068",
"&. c #3FB07F",
"*. c #4E816C",
"=. c #518470",
"-. c #528C75",
";. c #588B77",
":. c #4A9475",
">. c #55937B",
",. c #6B856E",
"<. c #758F6F",
"1. c #6A8776",
"2. c #7D837C",
"3. c #3FB180",
"4. c #5C9F84",
"5. c #679785",
"6. c #40AF80",
"7. c #5CA085",
"8. c #45B184",
"9. c #48B386",
"0. c #4EB489",
"q. c #52B68B",
"w. c #5BB992",
"e. c #61A58A",
"r. c #64AB8E",
"t. c #6CAE8F",
"y. c #71B08F",
"u. c #67AE91",
"i. c #68AE92",
"p. c #67B194",
"a. c #69B294",
"s. c #62BB96",
"d. c #6BB799",
"f. c #66BC99",
"g. c #6EBE9E",
"h. c #74B398",
"j. c #70BE9E",
"k. c #6EC09F",
"l. c #6FC0A0",
"z. c #70C0A0",
"x. c #7BC2A6",
"c. c #7DC4A9",
"v. c #838383",
"b. c #848B83",
"n. c #8C8C8C",
"m. c #8C928B",
"M. c #939992",
"N. c #9DA29C",
"B. c #A0A59F",
"V. c #8CBBAB",
"C. c #A4AAA3",
"Z. c #AAB0A9",
"A. c #83C6AD",
"S. c #87C8AF",
"D. c #8AC9B1",
"F. c #91CBB6",
"G. c #94CCB8",
"H. c #9CCFBD",
"J. c #9FD0BF",
"K. c #BCC0BB",
"L. c #A1D0C1",
/* pixels */
"%.%.0.z.z.z.z.z.z.z.e.;.W V S ( | _ I V I ( a 4 1 v -.a.z.z.z.z.l.z.z.z.z.l.z.l.",
"%.%.6.z.z.z.z.z.z.e.K V ( ( _ _ | _ ( I B S G G S a 9 ) d.z.z.z.z.z.l.z.z.z.z.z.",
"9.9.w.z.f.w.q.f.e.n I O. .| | | | _ ( I V B V S G I S u ] d.z.z.l.z.z.z.l.z.l.l.",
"z.z.z.z.f.3.&.7.v S 2.2...( _ | | _ _ _ ( G G ( G G Y s 9 ] g.z.z.z.l.l.l.z.z.z.",
"z.l.l.z.g.9.8.$.7 ..2..._ _ _ _ _ | _  ._ ( S ( ( ( G a q u p.l.z.z.z.x.x.x.z.z.",
"z.z.z.l.l.l.r.l a ..2.@. ._ _ _ | | _ _ _ ( ( _ _ ( ( B r 9 ) g.z.z.z.D.G.F.z.z.",
"z.z.l.l.z.l.4.3 s ,.B.N.O._ _ _ | _ _ _ _ _  ._ @.@.( V a 7 x d.z.z.z.F.L.G.z.z.",
"S.S.x.z.z.g.=.9 s o.B.K.m._ _ _ _  ._  ._ _ _ ..2.b...( s 7 u e.z.z.z.c.D.A.z.g.",
"L.J.S.z.z.t.u q B _ 2.C.m.O.O.o..._ _ _ _ _  .<.@.@.o.( s 9 O m z.z.z.z.g.z.z.z.",
"H.H.A.z.z.r.6 w V _ O.b.@.b.N.m.2.@.@.@.@.@.v.N.2.( _ ( a 9 o v g.z.z.z.z.z.z.z.",
"x.x.z.z.z.r.6 w V _ _ O.o.2.N.b.@.N.Z.Z.m.2.M.M.o._ _ ( s 7 o n g.z.z.z.z.l.z.z.",
"g.z.z.z.z.r.8 w V _ _ _ _ _ O.o...b.B.N.2...O.o.( _ _ ( B 7 o n g.z.z.z.z.z.z.l.",
"l.l.z.z.z.u.w 7 B ( _ _ _ _ _ _ _ ..o.o. ._ _ _ _ _ ( H a 7 X v w.z.z.z.z.z.z.z.",
"l.l.z.l.l.y.j : a G _ ( ( _ _ _ _  ._ _ _ _  ._ _ _ ( s a 3 % E 0.g.z.z.z.z.z.z.",
"l.l.l.z.l.y.d & w S _ ( S ( ( _ _  ._ _  ._ _ _ I I ( s a ; $ E q.g.z.z.z.g.z.z.",
"l.l.l.z.z.u.7 5 q B ( V a ( _ _ _ _ _ _ _ _ _ ( G V B a 7 * : v g.l.l.z.l.l.z.z.",
"j.z.z.z.z.i.~ A ; r C M p T X.R ( _ _ _ ( I ( ( S a a a ; * d *.z.z.z.z.z.z.z.l.",
"z.z.z.z.z.j.u.n @ 4 p r p J T P S _ _ _ ( S ( ( B a a q o - *.g.z.z.z.g.z.z.z.l.",
"l.z.z.z.z.z.l.h.L # r r p M P Z s I _ _ S a G G a a a q > 1.x.g.z.z.z.z.z.z.z.l.",
"l.z.z.z.z.z.k.S.5.# 4 p r p M r a S _ ( B a a s p a w - e V.c.g.g.z.z.z.z.z.z.g.",
"z.z.z.z.z.z.l.x.h.b > r 1 q p r p a G S a w a r 4 4 w > =.x.l.l.g.z.z.z.z.z.z.z.",
"z.z.z.z.l.z.z.l.x.) > 9 @ q p q 2 a S B w 1 w a 1 1 9 , 4.l.l.l.z.z.z.z.z.z.z.z.",
"l.z.g.z.l.z.z.z.z.' @ 1 @ q p 3 # w a a 7 + 7 a 1 # 1 > 4.l.l.l.z.z.z.j.z.z.z.z.",
"z.z.l.z.z.z.l.z.u.L q P 1 4 1 o . 2 a w +   X 4 - s Z w =.z.z.l.z.z.z.z.z.z.z.z.",
"z.z.l.l.z.z.z.p.` R #.#.4 # 4 q 1 @ q 4 O 4 q 4 O A #.+.T 5.p.k.z.z.z.z.z.z.z.z.",
"z.l.l.l.z.l.l.5.C +.v.X.C P +.X.A 1 O @ q R X.X.N P #.v.R L d.k.z.z.z.S.H.D.z.z.",
"z.z.z.l.z.z.l.4.C +.v.X.A #.n.v.v.X.A P #.v.v.n. .A #.v.| L p.z.z.z.z.F.L.G.z.z.",
"c.A.x.g.z.z.u.W P X.+.T 4 R v.n.n.n.+.v.n.n.n.v.M r X.X.| P } g.z.z.z.S.F.S.z.z.",
"J.L.S.z.z.g.4.J X.X.R p q P +.n.n.n.#.v.n.n.v.X.C 9 C R X.R ~ i.z.z.z.z.z.z.z.z.",
"H.H.A.z.z.i.H P +.X.q z C R +.n.n.n.+.v.n.n.v.X.A H 9 C +.X.Z } z.z.z.z.z.z.l.z.",
"c.c.x.z.z.u.z A +.R 4 1 M X.v.n.n.n.+.v.n.n.n.#.P r @ r X.X.M ` g.z.z.l.z.z.z.l.",
"z.z.z.z.z.u.e r P Z # # C +.n.n.n.v.R +.n.n.n.v.X.r @ 4 P A 4 ! g.z.z.z.z.z.z.l.",
"z.z.z.z.z.t.d k t   < 0 3 r M M M M a s M M M s q 1 i = X k h / a.z.z.z.z.z.z.z.",
"z.z.z.z.z.j.<.j 5 0 $.$.0 4 M U U N A M A U A r 4 n e.[ 2 s F -.q.g.z.z.l.z.l.z.",
"z.z.z.z.z.z.d.>.-.7.9.8.:.J R +.+.N 2 4 R +.+.P ` i.z.g.4.[ 6.3.q.g.z.z.l.z.z.z.",
"z.g.z.z.z.z.z.z.x.l.s.w.r.H R #.O.M ^ c P #.+.A } z.z.z.z.g.p.s.f.g.z.z.z.z.l.z.",
"z.z.z.z.z.z.z.z.l.l.l.z.p.z M T P r } D y R U w ` g.z.z.z.z.z.z.l.z.z.z.z.z.z.l.",
"z.z.z.z.z.g.z.z.c.c.z.l.u.8 t N f : m u 5 g g 5 n g.z.x.x.x.z.z.z.l.l.f.f.f.l.l.",
"z.g.z.z.z.z.z.S.J.G.x.l.a.^ { <.o.^ -.' { ,.,.Q =.z.z.c.J.H.x.z.z.z.z.q.8.0.l.l.",
"z.z.z.z.z.z.z.S.L.H.x.z.z.g.j.j.z.z.z.j.j.z.g.z.z.z.z.c.J.J.c.z.z.l.g.0.&.9.k.l."
};
