/* XPM */
static char *Adicionar_um_t__tulo_2__resized[] = {
/* columns rows colors chars-per-pixel */
"40 40 160 2 ",
"   c #050505",
".  c #070808",
"X  c #0B0C0B",
"o  c #10100F",
"O  c #1F150F",
"+  c #0E1412",
"@  c #121312",
"#  c #1B1310",
"$  c #151816",
"%  c #141E19",
"&  c #1B1D1B",
"*  c #27170D",
"=  c #261A14",
"-  c #16251F",
";  c #1E211E",
":  c #20211F",
">  c #302017",
",  c #312019",
"<  c #1A2420",
"1  c #1C2B25",
"2  c #212422",
"3  c #252A26",
"4  c #262D29",
"5  c #2B2C2A",
"6  c #312824",
"7  c #3B2B24",
"8  c #23352E",
"9  c #2D312D",
"0  c #32342E",
"q  c #2E3530",
"w  c #243B32",
"e  c #2F3F38",
"r  c #323532",
"t  c #353A36",
"y  c #383738",
"u  c #3A3D3A",
"i  c #402921",
"p  c #492E21",
"a  c #553520",
"s  c #603C29",
"d  c #2B453A",
"f  c #32453D",
"g  c #3C413C",
"h  c #3D553D",
"j  c #42473C",
"k  c #48423E",
"l  c #5A4A3E",
"z  c #65432E",
"x  c #6E4A37",
"c  c #7F5034",
"v  c #364A42",
"b  c #3D4B46",
"n  c #3A4C44",
"m  c #3E524A",
"M  c #3B5748",
"N  c #3D5F51",
"B  c #3B6252",
"V  c #3B6D58",
"C  c #3D745A",
"Z  c #424441",
"A  c #454A44",
"S  c #4B4944",
"D  c #4A4E4A",
"F  c #564C46",
"G  c #44564F",
"H  c #4D524D",
"J  c #50554F",
"K  c #5B534E",
"L  c #465F55",
"P  c #535653",
"I  c #555B54",
"U  c #585E57",
"Y  c #5B5D5B",
"T  c #5D635C",
"R  c #42715E",
"E  c #60665F",
"W  c #467663",
"Q  c #4A7764",
"!  c #527365",
"~  c #616761",
"^  c #636962",
"/  c #686E67",
"(  c #6B6C6A",
")  c #706F6F",
"_  c #6C726B",
"`  c #70776F",
"'  c #717171",
"]  c #747B73",
"[  c #787F77",
"{  c #7C7E7C",
"}  c #884D2B",
"|  c #855946",
" . c #955D43",
".. c #87614B",
"X. c #AB6845",
"o. c #B27555",
"O. c #1AA169",
"+. c #20A36D",
"@. c #3FB07F",
"#. c #4D826D",
"$. c #568471",
"%. c #548F77",
"&. c #499D7A",
"*. c #559279",
"=. c #5A947D",
"-. c #7C837B",
";. c #6D9477",
":. c #AE8572",
">. c #C8835D",
",. c #5D9C83",
"<. c #4FA782",
"1. c #5DA186",
"2. c #5BA788",
"3. c #44B183",
"4. c #49B386",
"5. c #4EB489",
"6. c #52B68C",
"7. c #58B791",
"8. c #57B890",
"9. c #5CBA93",
"0. c #61A58A",
"q. c #63AA8E",
"w. c #66AE91",
"e. c #68AF92",
"r. c #67B294",
"t. c #69B496",
"y. c #62BB96",
"u. c #6BB799",
"i. c #66BC99",
"p. c #6DBE9D",
"a. c #71BE9F",
"s. c #71BFA0",
"d. c #6FC09F",
"f. c #6FC0A0",
"g. c #70C0A0",
"h. c #7BC4A7",
"j. c #7DC4A9",
"k. c #818580",
"l. c #848B83",
"z. c #8A8A8A",
"x. c #8E948D",
"c. c #959794",
"v. c #939992",
"b. c #9A9D9A",
"n. c #9CA29B",
"m. c #A0A0A0",
"M. c #A5AAA4",
"N. c #B1B6B0",
"B. c #C1A092",
"V. c #E9A98B",
"C. c #F5BD9B",
"Z. c #CCB2A1",
"A. c #83C6AD",
"S. c #87C8AF",
"D. c #8AC9B1",
"F. c #91CBB6",
"G. c #94CCB8",
"H. c #9CCFBD",
"J. c #9FD0BF",
"K. c #A1D0C1",
/* pixels */
"O.O.4.a.a.f.f.f.a.a.a.g.p.Q < & 9 9 4 P T 9 f #.0.g.g.g.g.g.g.g.f.f.f.g.f.g.g.g.",
"O.O.4.g.f.f.g.f.a.a.p.,.#.w < D P P Y T E T G 9 N #.q.g.g.g.g.g.f.f.f.g.f.g.f.g.",
"3.4.9.g.d.7.7.y.a.a.,.v e 9 D T ~ ~ ~ ~ E ^ T I Z 4 N q.g.g.g.g.f.f.f.f.g.g.g.g.",
"p.g.a.f.i.4.@.7.u.,.d r Z Y ~ ~ ~ ~ ~ ~ E E T E U H t N w.g.g.g.f.f.f.p.f.f.g.f.",
"g.f.g.g.p.4.3.9.,.f r Z ( ..] ^ ~ ~ ^ E E E E E ^ T A q B t.a.a.f.f.f.h.g.h.f.f.",
"g.g.g.f.f.d.i.w.W 3 g P { ,._ ~ E ~ E E E ^ E T ^ ^ U g f 0.g.g.f.f.f.F.G.F.f.f.",
"f.f.f.f.f.f.*.w < 3 L ' z.] ~ ~ E E E E E E E T U T T T H ! p.a.f.f.h.G.K.G.h.f.",
"S.D.j.f.g.2.8 X < y P ..M.,.~ ~ E E E ^ E ^ ^ T A H T T j n ,.g.f.f.f.j.D.A.f.f.",
"K.J.A.f.g.q.- @ r j I ] M.b.( E ^ T ^ T ^ ^ ^ T P A H A g 3 d ,.f.f.f.f.f.f.f.f.",
"J.H.A.f.s.q.- @ t D U / z.c._ ~ T ^ E ^ T T ^ T E G g g J H ; B s.f.f.f.f.f.f.f.",
"h.h.g.g.g.q.< $ t A A T :.,.-.` / T T ^ ^ T ^ ^ I A S H Z H t B s.f.f.f.f.f.f.f.",
"f.g.g.g.s.q.1 3 u g g J [ _ x.n.-.` ^ T ^ ^ T T J U / T J G S ! s.f.f.f.h.a.f.f.",
"f.f.g.g.g.,.8 t g g G T / ^ [ v.l.-.` ^ ^ ^ ^ T J ` -._ U D H Q 9.s.f.f.g.g.g.f.",
"f.f.g.g.2.M q u u g H E E E / -.] n.n.x.x.-.` ] -.] -._ U j j C 5.a.f.f.f.f.g.g.",
"f.f.f.2.v 1 t t u g A T T E E ^ ^ -.M.N.x.l.x.n.-.` ^ ^ P g u V 6.a.g.f.g.g.f.g.",
"f.f.f.#.w + < : u g g H J T E E T ^ -.l._ / -.-.^ ^ T T A g 4 B p.f.g.g.g.f.g.g.",
"g.f.a.p.w.N $ $ t u u b P ~ ~ ~ E ^ ^ ^ T ^ ^ ^ T ^ T P g t ; B s.f.f.g.f.g.g.f.",
"g.f.a.g.f.q.1 2 u u u u I ~ ~ ~ T ^ T I T ^ T ^ ^ T P j t 2 8 %.f.g.f.f.f.g.g.f.",
"f.g.g.g.f.i.R 4 9 9 u b I ~ ~ Y T T I g T T ~ ~ T J b t ; 4 =.a.g.g.f.g.g.g.g.g.",
"g.g.g.g.g.g.1.1 : r g D G I H Z A T D g A T T I A A t : @ b a.a.f.g.g.g.g.f.f.g.",
"f.g.f.g.g.g.p.Q 2 g g g Z u u f g A g g g I I Z g f ; + 1 =.g.g.g.g.f.f.f.f.f.f.",
"g.g.f.g.g.g.g.*.; r g g r 3 y u f g g g g j j g r ; o O 3 q.g.g.f.g.g.g.f.f.f.f.",
"g.g.g.g.g.g.g.*.+ ; g 9 < 9 u u g g g g g r t 9 & > p a M t.g.g.f.g.g.g.g.g.f.f.",
"a.g.f.g.g.g.g.2.w + 2 & $ r u y 0 g u t 3 $ $ . >  .c j q.g.g.g.g.g.f.f.g.f.f.f.",
"f.f.f.g.g.g.g.f.2.B B B 1 < r < : y 9 & X # i * s z h &.f.f.f.f.g.g.g.g.h.f.a.f.",
"g.g.f.f.g.f.g.g.g.g.d.i.W % @ . $ 5 o     # i = j R 2.i.f.f.f.f.f.g.g.D.G.D.h.g.",
"f.f.f.f.g.f.g.f.g.g.s.s.r.w X X o 3 y y y P Y P G ;.f.f.f.f.f.f.g.g.g.F.K.G.g.g.",
"A.j.h.f.g.g.g.g.g.s.s.s.r.d @ y D ~ ) Y D k.m.z.J $.f.i.8.8.i.f.g.g.g.S.F.S.g.g.",
"J.J.S.d.g.g.f.g.s.s.s.s.e.Z y Y ~ ) ) Y Z ) m.z.P $.s.6.O.+.7.f.g.g.g.g.g.g.g.f.",
"H.H.S.d.f.g.g.g.s.s.s.s.e.Z D Y Y Y ( D y ~ z.{ D $.s.6.O.+.9.g.f.g.f.g.g.f.g.g.",
"j.j.h.d.f.g.a.f.s.s.s.s.e.b S ( Y P Y P u ( z.z.Y ! e.i.7.7.p.a.f.g.f.g.g.g.f.g.",
"f.f.f.g.g.g.f.g.s.s.s.s.e.b Y Y D P Y P y D { z.{ P ,.g.g.f.f.f.g.g.g.g.g.g.g.g.",
"g.f.g.g.f.g.g.g.g.p.y.y.2.L ' ^ Y Y Y Y k x :.Z.B...,.s.f.f.i.9.p.f.f.f.g.g.f.f.",
"g.g.g.f.g.g.g.f.g.p.4.3.<.n P ^ Y ( ( Y K } >.C.V.X.:.s.f.a.5.@.5.f.g.g.f.g.g.g.",
"f.g.g.g.s.f.g.g.g.p.4.@.<.m k Y P P Y Y k , p o.| 0 %.p.f.f.6.3.5.f.g.g.f.g.f.f.",
"g.g.g.f.g.g.g.g.f.d.y.y.u.,.m y Z Z Z y y y & 7 9 V i.s.f.f.i.9.i.f.g.f.f.f.f.f.",
"g.g.g.f.g.g.g.g.f.f.f.f.s.f.,.r y r S Y ) ) N ,.0.u.f.f.f.f.g.g.g.g.f.g.g.g.f.f.",
"g.f.g.f.f.g.g.g.j.j.f.a.s.g.,.b Y u D ( ) ~ L u.s.a.f.h.j.j.g.f.g.g.f.i.i.i.f.f.",
"g.g.s.g.g.f.f.S.J.G.s.s.a.a.,.9 k 6 y K S 6 v u.s.g.s.j.H.H.j.f.g.g.f.6.3.5.f.f.",
"f.g.f.f.g.g.g.D.K.H.h.s.s.p.,.; 7 = 6 l F 7 d u.s.s.f.j.J.J.j.f.f.g.f.5.@.5.f.f."
};
