/* XPM */
static char *Victory_screen_or_something_idk_I_play_Yasuo_meme_5214_resized[] = {
/* columns rows colors chars-per-pixel */
"64 64 241 2 ",
"   c #000101",
".  c #0C0B05",
"X  c #0B0A06",
"o  c #110F08",
"O  c #15130A",
"+  c #19160C",
"@  c #1D190E",
"#  c #161206",
"$  c #1D1B11",
"%  c #171919",
"&  c #0F1213",
"*  c #211C0E",
"=  c #221D12",
"-  c #251C14",
";  c #1E2219",
":  c #262114",
">  c #2A2415",
",  c #2D2A1A",
"<  c #282619",
"1  c #322D1B",
"2  c #332915",
"3  c #35311D",
"4  c #3B341D",
"5  c #3F381D",
"6  c #2F311E",
"7  c #191E23",
"8  c #161D25",
"9  c #1D2125",
"0  c #1D242B",
"q  c #19242E",
"w  c #1C2631",
"e  c #1D2934",
"r  c #1C2C3B",
"t  c #152739",
"y  c #1F313E",
"u  c #0E2238",
"i  c #232426",
"p  c #22262B",
"a  c #24292D",
"s  c #292A28",
"d  c #2C312C",
"f  c #3B3622",
"g  c #3E3922",
"h  c #33352B",
"j  c #353527",
"k  c #242C33",
"l  c #292E32",
"z  c #222E3A",
"x  c #2C3235",
"c  c #24323C",
"v  c #2C343A",
"b  c #28363A",
"n  c #313435",
"m  c #353A34",
"M  c #3B3D33",
"N  c #313639",
"B  c #343A3C",
"V  c #3B3C3B",
"C  c #362D20",
"Z  c #453619",
"A  c #493518",
"S  c #433C24",
"D  c #443B2A",
"F  c #3C4139",
"G  c #464026",
"H  c #4A4226",
"J  c #4B442A",
"K  c #4C462B",
"L  c #524A2D",
"P  c #574729",
"I  c #454539",
"U  c #544C32",
"Y  c #594A30",
"T  c #5A5338",
"R  c #67593A",
"E  c #785C39",
"W  c #6F5329",
"Q  c #74613A",
"!  c #172D43",
"~  c #1D3344",
"^  c #1B344B",
"/  c #193956",
"(  c #0E3350",
")  c #233442",
"_  c #2B3B44",
"`  c #243B4B",
"'  c #2A3D4A",
"]  c #273843",
"[  c #353D42",
"{  c #223D54",
"}  c #113C68",
"|  c #1D425A",
" . c #2C444C",
".. c #384547",
"X. c #244155",
"o. c #2B4453",
"O. c #2C4B5B",
"+. c #274659",
"@. c #344954",
"#. c #395355",
"$. c #1C466A",
"%. c #184878",
"&. c #1D5279",
"*. c #0A4474",
"=. c #244967",
"-. c #2A5467",
";. c #245676",
":. c #345768",
">. c #28637A",
",. c #336372",
"<. c #4D4D4D",
"1. c #454644",
"2. c #4C5144",
"3. c #585547",
"4. c #465656",
"5. c #535353",
"6. c #5C5C5B",
"7. c #675D47",
"8. c #6B5D4C",
"9. c #55675A",
"0. c #696449",
"q. c #796847",
"w. c #7D754C",
"e. c #7A7955",
"r. c #6F6A57",
"t. c #516D6F",
"y. c #626363",
"u. c #6B6B6B",
"i. c #797979",
"p. c #6D796B",
"a. c #5A5F64",
"s. c #8B6C3A",
"d. c #865E30",
"f. c #856D46",
"g. c #887449",
"h. c #97784A",
"j. c #887656",
"k. c #8F7652",
"l. c #A37B53",
"z. c #8A7C64",
"x. c #78876A",
"c. c #978458",
"v. c #918756",
"b. c #A78755",
"n. c #B09257",
"m. c #968867",
"M. c #8D8C6E",
"N. c #AC956A",
"B. c #B4986C",
"V. c #AE9570",
"C. c #B9A477",
"Z. c #B2A46A",
"A. c #B4A25C",
"S. c #CAAF74",
"D. c #E4B96C",
"F. c #CBA66A",
"G. c #E6C779",
"H. c #0F558B",
"J. c #245D86",
"K. c #1C679A",
"L. c #1D6586",
"P. c #276988",
"I. c #226896",
"U. c #2F7591",
"Y. c #1B72A9",
"T. c #1979B7",
"R. c #176BB0",
"E. c #2578A9",
"W. c #2577AD",
"Q. c #0F77D2",
"!. c #1D86B5",
"~. c #2F88B1",
"^. c #4A93B3",
"/. c #6D8E90",
"(. c #178CCF",
"). c #2697D7",
"_. c #2F98CB",
"`. c #37A8DA",
"'. c #1394F0",
"]. c #1CA6EA",
"[. c #13ADF8",
"{. c #28AAEA",
"}. c #34B2EF",
"|. c #51ACD3",
" X c #6FB5CA",
".X c #4BB8E9",
"XX c #53AFD9",
"oX c #17C6FD",
"OX c #25C6FB",
"+X c #38C8FB",
"@X c #3ED6FD",
"#X c #46D6FB",
"$X c #4DCCF7",
"%X c #6AD3F3",
"&X c #52E3FC",
"*X c #68E7FB",
"=X c #76EBFC",
"-X c #69F0FF",
";X c #78C2C8",
":X c #838383",
">X c #8A8A8A",
",X c #8C8B85",
"<X c #939393",
"1X c #9C9C9C",
"2X c #9E9E87",
"3X c #8EAB88",
"4X c #B2B493",
"5X c #90B1B3",
"6X c #A4A4A4",
"7X c #ABACAD",
"8X c #A6A8AA",
"9X c #B3B5A9",
"0X c #A9AEB3",
"qX c #B4B4B4",
"wX c #BCBCBC",
"eX c #A6B2BC",
"rX c #D6BD87",
"tX c #C6B589",
"yX c #A1CDAB",
"uX c #D3C78C",
"iX c #EED494",
"pX c #CFCEAB",
"aX c #E8D5AB",
"sX c #F8EBAF",
"dX c #A3BBD1",
"fX c #88CFD1",
"gX c #AED4D4",
"hX c #A9E5D2",
"jX c #9AEFF9",
"kX c #90EBFA",
"lX c #AAF3FB",
"zX c #B5F0F8",
"xX c #91D5E3",
"cX c #C8C8C8",
"vX c #D8D8D8",
"bX c #F7F1CC",
"nX c #CCF7FB",
"mX c #E9E9E9",
"MX c #FEFEFE",
"NX c #F4F4F3",
"BX c #F4FAEF",
/* pixels */
"MXMXMXMXMXMXMXMXMXMXMXMXMXMXMXMXMXMXMXMXMXMXMXMXMXMXMXMXMXMXMXMXMXMXMXMXMXMXMXMXMXMXMXMXMXMXMXMXMXMXMXMXMXMXMXMXMXMXMXMXMXMXMXMX",
"MXMXMXMXMXMXMXMXMXMXMXMXMXMXMXMXMXMXMXMXMXMXMXMXMXMXMXMXMXMXMXMXMXMXMXMXMXMXMXMXMXMXMXMXMXMXMXMXMXMXMXMXMXMXMXMXMXMXMXMXMXMXMXMX",
"MXMXMXMXMXMXMXMXMXMXMXMXMXMXMXMXMXMXMXMXMXMXMXMXMXMXMXMXMXMXMXMXMXMXMXMXMXMXMXMXMXMXMXMXMXMXMXMXMXMXMXMXMXMXMXMXMXMXMXMXMXMXMXMX",
"MXMXMXMXMXMXMXMXMXMXMXMXMXMXMXMXmXcXMXMXMXvXMXMXMXMXMXMXMXMXMXMXMXMXMXMXMXMXMXMXMXMXMXMXMXMXMXMXMXMXMXMXMXMXMXMXMXMXMXMXMXMXMXMX",
"MXMXMXMXMXMXMXMXMXMXMXMXMXMX<XqX:X:X6Xi.7Xs wXi.6X1Xi.<X7XqXMX>X:XvXi.6X1Xi.6Xu.cX:X:XqXu.<XMXvXu.7X1Xi.MXMXMXMXMXMXMXMXMXMXMXMX",
"MXMXMXMXMXMXMXMXMXMXMXMXMXMXi.& >X1.1.:X<X<.u.5.<.s wX1XO cXMX1.i <.6.1Xd 1XV n <.i 1.<.5.1.MXi.<.5.d 6XMXMXMXMXMXMXMXMXMXMXMXMX",
"MXMXMXMXMXMXMXMXMXMXMXMXMXMXmX<XmXwXwX:XmX<XcX:XqXqXMX8X1.MXMXwX<XvX:XqXwXmXwX:XvX6X6XcXwXqXMXmX:XwXqXmXMXMXMXMXMXMXMXMXMXMXMXMX",
"MXMXMXMXMXMXMXMXMXMXMXMXMXMXMXMXMXmXMXMXvXMXMXMXMXMXMXwXwXMXMXmXmXMXMXMXMXMXMXMXMXMXmXMXMXMXMXMXMXMXMXMXMXMXMXMXMXMXMXMXMXMXMXMX",
"MXMXMXmX1XvXvX<XmX8X6X6XvXwXqX8X6.y.y.vXi.wX1XcXcXi.6XMX:XcX:X5.6.6XcXMX6.qXMX7X1XqX6.cX1XcXcXwXmXcXcXcXqX6XmX6XcXcXcXvXwX1XMXMX",
"MXMXMXwXX 6.<.6.1.1.V 1.5.n D 6.6.u.V <.y.<.V 6.6.d cXMX5.<.1.5.<.  cXMX1.6XMX1.<.<.y.u.& i.5.<.MXcXn y.y.% i.i 5.<.6.<.6.1.8XMX",
"MXMXMXmXy.>X1Xu.1X<X1X6X1X:Xi.dXi.<X8X>X<X>X6X:X1.B 1XMX:X1Xy.>X>Xi.8XMX:XcXMXB 6.6X>Xi.6.6X<.i.MXMXi 6Xi.y.>Xi.i.<X5.1X>Xu.vXMX",
"MXMXMXMXMXMXMXMXMXMXMXMXMXMXMXMXMXMXMXMXMXMXMXMX>X:XwXMXMXMXMXMXMXMXMXMXMXMXMX6XMXMXMXMXMXmX>XNXMXvX<XMXMXMXMXMXMXMXMXMXMXMXMXMX",
"MXMXMXMXMXMXNXMXNXMXMXMXMXMXMXNXMXMXNXMXMXMXNXMXMXMXMXMXMXMXNXMXMXMXMXMXNXMXMXMXMXNXMXNXMXMXMXMXMXMXMXMXMXMXNXMXMXMXNXMXMXMXMXMX",
"MXMXMXMXMXMXMXMXMXMXMXMXMXMXMXMXMXMXMXMXMXMXMXMXMXMXMXMXMXMXMXMXMXMXMXMXMXMXMXMXMXMXMXMXMXMXMXMXMXMXMXMXMXMXMXMXMXMXMXMXMXMXMXMX",
"0X7X8X8X8X8X7X7X7X7X7X7X7X8X7X7X7X8X8X6X6X1X8X8X8X7X0X0XeXxXgX7X0X0X0XdXdXdXdXdXdXdX5X0X7X7X7X0X7X0X7X0X7X7X0X7X7X7X7X9XqX7XqX7X",
"9 7 7 % 7 % % % 9 9 9 7 9 7 7 7 7 8 7 7 & & % 8 8 8 ( t ( *.Q.*.! t q ( *.*.} *.H.} u 8 8 8 8 9 9 9 i 9 0 9 9 9 9 ; ; < < < < 9 ",
"D [ N B n x x l l l l x x x l l l l l B [ B v x b b $.$. .b K.!.&.K.&.-.K.&.=.| =.K.J.] b b b b N x x x n n x l a s M j M h s m ",
"m M M N x N N N n x l a a s l l a l l x V N B l k d $.&. .` | L.!.+X%X~.(.K.-.X.v ) $.] c c x b v x l a p p p l i - d j i < j 4 ",
"l x V I V B N N N N N N x l l l p l x N [ B B l y y  .>.P.~.^.!.{.@X*X(.$X_.=. .' _ c c b c y d x N B l a a a p s < ; ; 6 F 6 < ",
"N x l x F I D m N N n B N x l a k l x B B B N [ F y F  .>.-.|.`.[.#XkX%X@X!.&.+. .'  .] c b y F N N N N N n l a p i j j 6 < 0 k ",
"I D m v x n n M j h l l i i p a l l N x V N x [  .F  . .P.>.^.*XOXOX$XXX!.L.>.-.o. . .` b b F b x x x x N B N x h M x d d d h F ",
"=.@.F D M m l p i s s , 9 7 7 l l l B l [ [ _ ` #. .X.-.>.E.{.lX*XoX(.!.~.P.>.-.O.@. . .` F b b x B N N N N h n n x b m F F F  .",
"H.H.=.c n M h h d i i s j s s l B x k v ' ] X.O.-.,.U.~.(.{.#X=X&X#X}._.!.U.>.>.:.O.@. . .b b b v v B V D n l x m m j j j y | *.",
"/ / } ) z z x d h V D m p i h M N v ) ' @.+.-.>.U.~.!._.OXkX*X=XjX=X*X*X$X`.~.P.,.-.-.O.|  .F b v V D _ ] N I I M d d a q r ^ ( ",
"` { ' ' ] ) l a i s n 1.2.M a s V [ ] ' =.;.J.I.W.!.E.}.kXzXzXvXBXBXnXjX-X@X{.!.U.>.>.-.+. . .b V l v 1.1.1.V x a 0 k l c ) ` ~ ",
"{ $.;.=.{ { _ i s i i t ) [ 2.2.v ' ' =.;.K.W.Y.!.%X}.OX&XjXaXiXBXBXMXnXlX=X=X].!.P.,.O.+.+. . ./ 1.2...] ! p i i s _ O.+.=.;.$.",
"{ $.=.J.J.J.{ l i ) ) p t r t [ 1.J.J.H.R.Y.T.~.5XhXOX@XgXuXG.sXMXBXbXbXlX-XhXfX_.>.-.9.#.(  .b #...! r z k ) { k b +.$.J.J.$.$.",
") ) z ! ) $.^ ) z ) ! z a k l 8 [ R.R.I.K.E./.M.3X XXX4XG.G.G.iXsXbXsXiXpXfXfXC.3Xx.,.#.#.x.9. .#.r k k ) ) ^ ) ` ` ` $.^ z ) ) ",
"x v ) n l ^ { l x z z ) ~ ! z 0 ;.R.$.-.t.e.R 3.0.x.n.D.D.F.v.Y T v.S.D.F.c.w.v.v.Q x.9.O. . .o.4.z c ~ ^ ) ! z z x { ^ z v v ] ",
"n ) N z ] ) ) ] [ [ v ) ! ! ^ ] u.i.p.x.e.e.e.w.Q Q g.Q W A 6 4 5 j K R s.g.q.w.Q x.x.v.x.x.y.r.3. ./ ~ ) z x [ ] z ) ) z x x x ",
"x v l l x l @.<.i 7 n [ p ) v 7 8 ; i : i < < < 6 6 3 6 3 5 F G G S g 3 6 3 6 , > > : ; ; ; ; % < M ) ) [ N - i 5.@.k x v x v v ",
"{ v z v k y.z.2 X O > D D D - & % - , 3 C 1 4 f 5 5 g g S 5 Z S S S g g G g 5 4 4 4 3 6 2 > - = O $ j D D - & X C z.y.z N N N v ",
"| X.b e a.aX8.X : > : @ : : : , 1 f S S G H J J K L L L L L J S G J K K L P L L J H H S Z 3 1 < > : = @ = = > = . j.aXt.a B x _ ",
"y | b q 9XaX= @ > : = > , , 1 > 2 3 4 f S H S g Z Z H H H J P H K L T L H S 5 H J S S 5 4 4 1 , 2 > > > > - > > + 1 sX9Xk N c / ",
"b | ~ F pXv.X - > f M > 3 2 3 K G j J D g 4 1 T 0.0.J L T U U T T L H G T 0.R 5 5 S J D G < > 1 < > 2 > 1 > 1 > = O A.pX#.s ^ | ",
"b c | 3.m.R o > @ R rXU > 5 2 m.tX1 j.V.> 4 N.F.N.C.0.f.C.V.C.N.B.L H N.Z.m.C.C.D f N.N.N.k.> g.N.> @ @ 8.C.L * > # q.m.5.i ^ ~ ",
"b b x 3.z.Y O > : + rXtX> Z > rXc.  E uX# C.S.2 2 S H Y 5 f.uXZ Y S S.S.5 3 4 S.rX* B.c.. uXk.* iXB.. . C.n.o > : o E z.6.0 c k ",
"b h d i.2XD o - > @ Q sXY # U aXD   q.rX4 iXR * f f S S < g.uX4 3 R iX7., G < L iXD B.b.j iXq.  g.sX3.7.iX< O - : . R 2Xi.a x k ",
"] b x 5XtXD . : 2 > - b.k.. j.h.+ + R l.S b.S 1 S S J H g R b.G g R n.Y g J 4 S n.P f.h.B.f.. @ # h.V.C.Y X = = = . T tX5Xb s k ",
"b ~ F /.M.0.. > > = @ A l.2.h.2 @ @ Y d.* d.W : , 3 S H g W s.G G H s.w., 4 * 0.l.2 W A A f.= @ # : l.E o @ = $ @ . g.,X Xb a y ",
"X.b ~ F +.e.T o $ = - = h.tXs.o - + q.b.+ P n.l.0.q.j.L 4 q.n.Z J 5 E S.m.3.e.S.s.O b.E   h.b.% + o V.f.X + * - . T j.O.{ i ` ) ",
"b a e  .@.I j.3 o = $ . W n.P o > * U f.> * S g.b.b.Q G g R g.J L H j W c.Z.n.R < f h.T + > l.U o - C.k.X - + # - q.D [ i { ) l ",
"b x b X.~ 2.r.8.o $ - * * s.> - = > = @ , 2 > > > 1 3 G H g g K U L G 3 6 3 6 < 1 1 = = > : # @ - - C.k.X * + X D 8.1.i ) / k k ",
"b b b b / k z.z.- O : > # - * 4 > > > 1 1 1 4 4 j g g G K G J K L K G G S g g 5 5 5 1 1 1 > < : - + D C + + # - j.r.p z / ) z k ",
"y b c c / q 5.V.A X - - 1 O @ > 1 > > 2 1 f f f g G G G H L L L L K K K F G G 5 S f g 3 1 > : : + + X o $ @ o D V.1.0 z / ` ) ~ ",
"b d c y ~ ! B N.7.& o - , 2 1 Z f 1 , > > 2 1 f g G G H G L L L L L L H H H G 5 f 1 > > > , 1 3 C C - * + + & 8.m.k i ! ^ r ~ l ",
"d x d b k ^ y m.l.- > C J U I 8.j.j.k.j.w.q.R U K g 4 5 H L U U U T L S 5 5 5 H L Q w.g.v.m.m.M.r.3.I Y D - - l.j.p z ^ z k x N ",
"F b b B F V r B 7.s a l x N m k 0 l s 1 D Y v.rXA.A.m.x.3.G S K U G K 0.x.b.A.n.S.N.R T I F b y 8 k m B N p a 8.B p k x F N b b ",
"b B b b b ..F 7 8 0 a a k k x I x k b d Z A A h.N.Q A.S.tX4Xi.J L M.4XtXF.A.W v.c.A J I @.F e e x F x 0 0 i k 0 0 0 m F c b b x ",
"b F b F v v x j s i i 0 k k k l F x k  .U E Q W M.x.3XfX4XS.iXpXpXsXG.aXyX3Xx.C.W Q v.x.L.~ r l n w 8 0 0 a k a x h k k k x N v ",
"B B B B v x l 0 d M h j F M B x x M l +.,.0.s.s.W yXhX@X*XgXS.iXbXaXmXMXnXhXyXs.h.h.x.L.|  .r x k 0 x h h j h M h p w k l k x N ",
"B B B N k l l a 0 0 9 e 0 0 b x d I v c ;.t.v.N.A.C.;X_.#X=XzXaXbXBXBXBXlXhXtXF.C.Z.,.X.~ X.) B k p w q q k w 0 a k k a l l l n ",
"B N B N l l k w 0 0 e c y w c c k x 1.V k =.:.t.x.5X^.T.$X$X*XjXzXzXlXkX-X*XfX X^.~.#. .{ @.@.~ ! t u q w r r a a z l l l k l n ",
"N N B x l l l p k k ~ r 9 w r ~ ` z z n 1.{ { +.| &.Y.!..X).}.#X&X*X&X#X}.{.(.R.I.;... ..._ ) ! ! ! q q q q t w k k k l l k l x ",
"B N N x l x l a k k p a w a 0 ! { { } w v [ =.=.-.O.L.`.$XT.T.{.[.{.{.].(.T.W.P.>.o.....N z } ^ ~ ! 7 9 w w 0 0 k k l x l l N N ",
"N N x d x N x k a a w a a 0 0 r I.,.X./ ~ z [ $.| -.&.|.$X{.XX.X.X).].[.(.(.T.I.-. .2. .! / { :.K.t 9 q w a 9 p a x V [ B N B B ",
"x N s a x x x a k a w w a k k k ! K.J.` ` ) ' :.=.=.K.[.[.'.}.%XlXkX.X[.(.K.(.T.=.4.[ ' o.` ;.I.! 8 8 0 p k w a l l [ [ B N N N ",
"l l a a l l x l k i 0 k l k l w k r } { +.{ ^ ' =.%.T.oX'.'.[.}.}._..X).R.I.Y.=.@.1.] +.+.{ } t w a w p p w k a l k l [ V N V [ ",
"l l p p p l l x a p l k k a w z z z t k ) ] ^ { @.H.Q.'.'.[.[.$X|.K.J.J.%.J.;.' ..' { ` z t w t w e z k a a p p k l l l N N N N ",
"l l l p 0 a a a k k p p i 0 a a p p t k a ) ` { [ =.Q.Q.'.oX{.}.^.} =.=.J.J.=.' 1.{ { ^ w 8 q 8 0 a a a v l l a z l x l l l l l ",
"i a p l p p i z ) w p 9 9 p p p p p k ~ k t z ^ O.;.Q.Q.T.(.T.XX%XW.W.K.R.H.) ..' ! ) r z ! 8 9 p p p p a l l l ) ) l l l l l l ",
"l a l p l p a k p a p 9 7 k k 9 7 p 8 t ! k p r ) -.} ( ^ } %.K.`.}..X}.).Y.%.:.! t p e t e 0 l l l l l l l l l l v x x l l l l ",
"l l l l l p p p k l p i 7 l x l a a p 0 0 p 0 8 8 l ! ! ~ ^ } H.H.H..XXXH.} { ,.=.u q 8 8 0 p a n B x l l x x x x x n a l v l n ",
"l n l l N l l l k i l l p l l l l p p p p q w p w m ) ! e r r %.H.H.~.;XH.} ~ l ! ! w w 0 a p p n l l l n x x x n l [ [ 1.1.[ D "
};
